<svg width="500" height="485" viewBox="0 0 500 485" fill="none" xmlns="http://www.w3.org/2000/svg">
<path d="M500 242.409C500 376.243 388.071 484.736 250 484.736C111.929 484.736 0 376.243 0 242.409C0 108.575 111.929 0.0814209 250 0.0814209C388.071 0.0814209 500 108.575 500 242.409Z" fill="#334293"/>
<path d="M224.8 162.07L217.733 184.07L220.8 186.603C222.533 188.07 223.6 189.536 223.067 190.07C222.533 190.603 219.6 189.003 216.4 186.47C209.467 181.003 204.533 178.736 199.2 178.736C194.8 178.736 187.333 182.07 187.333 184.07C187.333 184.87 182.933 185.403 177.733 185.536C168.133 185.536 167.867 186.736 176.933 188.603C180.267 189.403 180.4 189.803 179.733 195.136C178.4 204.603 179.067 212.07 181.867 216.87L184.533 221.403H178.8C174.533 221.403 172.667 222.07 172.133 223.67C170.933 226.736 173.6 228.07 181.733 228.07C186.8 228.07 189.867 228.87 192.533 230.87C194.8 232.603 197.067 233.27 198.133 232.736C199.333 231.936 199.067 231.27 197.333 229.803C195.067 228.203 195.2 228.07 199.067 228.07C201.467 228.07 203.333 228.603 203.333 229.403C203.333 230.07 204.267 230.736 205.467 230.736C206.667 230.736 207.333 231.67 207.067 233.003C206.8 234.47 205.467 235.27 203.733 235.136C201.867 234.87 200.667 235.803 200.133 237.803C198.933 242.203 199.067 242.736 201.333 242.736C202.4 242.736 203.333 243.536 203.333 244.603C203.333 247.136 198 253.536 196.667 252.736C195.467 251.936 193.333 257.136 194.4 258.203C194.8 258.603 197.2 257.003 199.733 254.87C203.333 251.67 205.067 248.336 207.867 239.403L211.467 228.07H254.933L258.667 232.336C260.8 234.736 262.667 238.336 262.8 240.47C262.933 242.603 263.733 245.003 264.533 245.803C265.333 246.603 266 248.336 266 249.67C266 251.003 266.8 253.403 267.733 255.136C268.533 256.736 269.467 258.336 269.6 258.603C269.733 258.736 270.4 258.603 271.2 258.203C272 257.67 271.067 253.27 268.533 246.336C266.267 240.336 264.267 234.603 264.133 233.67C264 232.736 262.4 231.003 260.533 229.803C258.8 228.603 256.933 227.003 256.4 226.203C255.867 225.403 243.867 225.27 224.133 225.803C205.2 226.203 192.4 226.07 192 225.27C191.467 224.603 194.8 224.07 199.867 224.07C204.667 224.07 208.8 223.536 209.2 222.87C209.6 222.203 205.067 221.803 199.067 221.803H188.133L185.067 216.07C181.733 209.936 181.067 200.47 183.467 195.936C184.8 193.403 184.933 193.403 188.667 196.336C190.667 198.07 196.4 202.07 201.2 205.403C206.4 209.003 209.867 212.336 210 213.803C210 215.136 209.467 215.936 208.8 215.536C208.133 215.136 207.2 215.67 206.8 216.87C205.6 219.936 205.733 220.07 208.533 220.07C210 220.07 211.333 220.87 211.733 221.67C212.667 224.336 213.333 223.003 218.267 208.603C221.6 198.603 222.4 194.736 221.333 193.936C214.8 189.003 208.4 185.403 206.4 185.67C205.067 185.67 201.067 185.67 197.333 185.536C192 185.403 191.2 185.003 193.067 183.936C194.4 183.136 198.533 182.87 202.4 183.27C206.267 183.67 209.733 183.936 210.267 184.07C212.4 184.203 224.667 195.003 224.667 196.736C224.667 197.803 225.867 199.27 227.333 200.07C228.8 200.87 230 201.003 230 200.47C230 199.936 232.4 201.936 235.333 204.736C238.267 207.536 240.667 210.47 240.667 211.003C240.667 212.736 251.467 223.003 252.267 222.203C253.2 221.27 261.467 227.403 267.6 233.536C272.8 238.736 282.267 242.736 289.6 242.736C296.267 242.736 304 238.203 307.6 232.203L310.667 227.003L373.333 226.87C407.867 226.736 438 226.336 440.4 225.936C447.6 224.603 445.2 223.27 436.4 223.67C431.733 223.936 401.467 224.203 368.933 224.336L310 224.736V219.136C310 216.07 307.6 206.736 304.533 198.07C301.6 189.67 299.333 182.07 299.6 181.403C299.867 180.603 306.533 185.27 314.4 191.67C343.6 215.403 344.8 216.203 348.533 215.803C351.467 215.403 352.133 214.603 352.4 210.736C353.2 203.003 354.533 202.336 367.333 203.136C373.6 203.536 381.2 204.87 384.4 205.936C393.733 209.27 412.4 212.07 424.667 211.936C438.267 211.803 445.2 209.803 445.733 205.536L446.267 202.603L441.067 205.403C431.867 210.336 416.533 209.003 378.667 200.07C359.733 195.536 350 198.07 350 207.67C350 210.07 349.467 212.07 348.8 212.07C347.2 212.07 333.6 201.67 316.4 187.27C301.067 174.47 296.667 173.003 296.667 180.736C296.667 183.403 298.8 191.003 301.333 197.67C304 204.47 306.533 213.403 307.2 217.67L308.267 225.403H283.733C268.4 225.403 259.333 224.87 259.333 224.07C259.333 223.27 259.867 222.736 260.533 222.736C261.333 222.736 260.933 221.136 259.867 219.003C258.933 217.003 258 214.47 258 213.403C258.133 211.67 277.6 196.87 290.4 188.736L294.667 186.07L248.4 184.736L246.533 179.403C242.667 168.603 236.667 150.336 235.333 145.27C234.533 142.47 233.467 140.07 232.8 140.07C232.267 140.07 228.667 149.936 224.8 162.07ZM235.067 156.336C235.867 158.736 236.8 161.936 237.467 163.27C238.133 165.136 238 165.536 236.667 164.736C235.6 164.07 235.2 164.336 235.6 165.536C236 166.603 236.933 167.27 237.733 167.136C238.4 167.003 238.933 168.47 238.933 170.47C238.933 172.47 238.667 173.27 238.4 172.47C238 171.27 236.533 171.003 234.4 171.536C231.733 172.203 231.2 172.07 231.867 170.603C232.4 169.536 232 169.803 230.933 171.003C229.867 172.336 228.267 173.403 227.2 173.403C225.733 173.27 225.867 172.87 227.6 171.67C228.8 170.736 229.733 169.003 229.733 167.936C229.467 163.27 230.133 159.536 231.067 160.736C232.8 163.136 235.733 163.003 234.8 160.736C234.4 159.536 234 158.203 234 157.936C234 157.536 233.467 157.67 232.667 158.07C231.2 159.003 230.933 157.27 232.133 154.203C233.333 151.136 233.733 151.536 235.067 156.336ZM226.4 168.736C225.733 170.47 223.333 171.67 223.333 170.203C223.333 168.203 225.2 165.536 226.133 166.07C226.667 166.47 226.933 167.67 226.4 168.736ZM236.4 178.736C238.4 178.736 238.4 178.47 236.667 177.403C235.067 176.336 235.067 176.07 237.333 176.07C241.2 176.07 243.6 177.936 242.667 180.336C242.267 181.403 242.8 183.403 244 184.603C245.333 185.936 246 187.936 245.6 189.536C245.2 191.003 246 195.27 247.333 199.136C249.733 205.936 249.867 206.07 255.467 206.47L261.2 206.87L257.2 210.07L253.333 213.136L255.733 217.403C257.2 219.67 258 221.803 257.733 222.07C256.533 223.403 235.333 201.803 235.333 199.27C235.333 197.936 234.667 195.803 233.867 194.736C232.8 193.136 232.533 193.536 233.067 196.336L233.6 199.936L229.2 196.336C224.267 192.336 224 190.87 226.533 183.67C227.6 181.003 227.867 178.736 227.2 178.736C226.533 178.736 226 178.203 226 177.536C226 175.536 230.533 175.136 232.4 177.003C233.333 177.936 235.2 178.736 236.4 178.736ZM197.733 190.736C198.8 191.803 199.2 191.936 198.667 191.003C197.333 188.47 207.733 188.336 210.8 190.87C211.6 191.536 212.533 191.803 212.933 191.403C214.133 190.203 217.067 194.603 217.467 198.07C217.733 200.87 217.467 201.136 215.333 200.07C212.8 198.736 210.133 200.603 211.867 202.336C212.267 202.87 212.667 202.47 212.667 201.536C212.667 200.336 213.2 200.47 214.667 201.936C217.067 204.203 217.067 204.203 215.333 208.603L214.133 212.07L209.6 207.403C207.067 204.87 204.4 202.736 203.733 202.736C201.333 202.736 198.933 199.136 200.8 198.47C201.867 198.07 201.067 196.603 198.8 194.336C194.533 190.07 193.467 189.803 194.667 193.403C195.733 196.603 194.267 196.736 190.267 193.936C187.867 192.336 187.733 191.536 189.067 190.07C191.067 187.803 195.467 188.07 197.733 190.736ZM258.533 189.67C259.867 189.536 260.667 189.936 260.133 190.336C259.733 190.736 260.533 191.936 261.867 192.87C264.133 194.603 266.8 203.403 264.533 201.936C263.867 201.536 262.267 202.07 260.933 202.87C259.067 204.07 257.733 204.07 255.867 203.003C253.6 201.67 253.733 201.536 257.2 201.803C260.4 202.07 261.067 201.536 261.333 198.47C261.867 194.07 257.467 190.736 252.533 191.67C250 192.07 249.067 191.67 249.067 190.07C249.067 188.336 249.867 188.07 252.533 188.87C254.4 189.403 257.067 189.67 258.533 189.67ZM284 190.203C282.133 191.67 279.6 192.07 276 191.536C270.667 190.87 270.667 190.87 273.733 193.27C277.333 195.936 276.4 197.403 271.2 197.403C268.4 197.403 266.933 196.47 265.333 193.403C264.267 191.27 263.333 189.27 263.333 188.736C263.333 188.336 268.533 188.07 275.067 188.07C285.733 188.203 286.4 188.336 284 190.203ZM259.067 195.136C259.867 194.736 260.667 195.136 260.667 195.936C260.667 196.736 260.133 197.403 259.333 197.403C258.667 197.403 258.533 198.47 258.933 199.67C259.733 201.67 259.467 201.803 257.733 200.336C256.667 199.403 254.667 199.003 253.467 199.536C251.867 200.203 251.467 199.803 252.133 198.203C252.533 197.003 252.267 196.07 251.333 196.07C250.533 196.07 250.267 195.403 250.667 194.736C251.2 193.936 252.133 193.67 252.8 194.07C253.467 194.603 254 194.07 254 193.136C254.133 191.936 254.533 192.07 255.733 193.536C256.667 194.736 258.133 195.403 259.067 195.136ZM187.333 224.07C188.8 225.003 187.333 225.403 182.4 225.403C178.533 225.403 175.333 224.736 175.333 224.07C175.333 222.336 184.667 222.336 187.333 224.07ZM305.867 229.67C305.2 230.87 302.8 233.27 300.4 234.87C294 239.536 284.933 239.003 273.6 233.27C268.667 230.87 264.667 228.603 264.667 228.203C264.667 227.803 274.267 227.403 285.867 227.403C305.333 227.403 306.933 227.536 305.867 229.67Z" fill="white"/>
<path d="M205.2 192.47C205.867 194.47 205.467 194.736 202.933 194.07C200 193.136 200 193.136 202.667 195.136C204.133 196.203 205.733 196.87 206.4 196.47C206.933 196.203 207.067 197.27 206.667 199.003C206.133 201.27 206.667 202.87 208.533 204.736C210.133 206.07 211.733 206.736 212.267 206.203C212.933 205.67 212.267 204.603 211.067 203.936C209.467 203.136 208.933 201.27 209.2 197.403C209.467 194.336 209.067 192.47 208.267 193.003C207.6 193.403 206.4 192.87 205.733 191.936C204.667 190.47 204.667 190.603 205.2 192.47Z" fill="white"/>
<path d="M310.8 198.203C310.133 199.803 310.533 200.203 312.133 199.536C313.2 199.136 315.2 198.736 316.4 198.603C318.267 198.603 318.133 198.336 316 197.403C312.133 195.803 311.733 195.803 310.8 198.203Z" fill="white"/>
<path d="M230.267 205.003C230.667 207.403 230.4 209.003 229.867 208.603C229.333 208.336 228.533 209.936 228 212.203C226.933 216.736 228 219.003 229.2 215.003C231.067 209.536 236.533 210.47 236.667 216.203C236.667 217.403 237.6 219.136 238.667 220.07C243.2 223.936 239.2 212.07 233.6 205.27L229.733 200.736L230.267 205.003Z" fill="white"/>
<path d="M317.2 202.47C315.733 203.403 312.667 208.603 312.667 210.07C312.667 211.003 316.533 207.27 319.2 203.67C321.067 201.403 319.867 200.603 317.2 202.47Z" fill="white"/>
<path d="M289.333 207.803C285.6 209.803 279.6 213.136 276 215.403C272.267 217.536 267.867 220.07 266 220.87C263.2 222.203 264 222.336 272 222.336C279.6 222.336 280.267 222.203 275.6 221.536L269.733 220.736L281.333 215.403C287.6 212.603 293.467 209.27 294.4 208.336C295.6 206.736 296.133 206.87 297.733 209.003C299.6 211.27 299.6 211.27 298.8 209.003C298.4 207.67 298 205.936 298 205.27C298 203.536 296.8 203.936 289.333 207.803Z" fill="white"/>
<path d="M287.467 214.203C279.867 217.803 278.667 220.203 286.133 217.003C290.4 215.136 296.8 210.87 295.333 210.87C294.933 210.87 291.467 212.336 287.467 214.203Z" fill="white"/>
<path d="M230.533 216.203C230.133 217.003 230.4 218.336 231.333 219.136C232.667 220.336 232.8 220.336 232.133 219.136C231.733 218.336 232.267 217.403 233.6 217.136C235.867 216.736 235.867 216.603 233.733 215.803C232.4 215.27 231.067 215.536 230.533 216.203Z" fill="white"/>
<path d="M290.933 219.403L287.2 222.736H291.467C294.8 222.736 295.467 222.336 294.8 220.47C294.267 219.27 294.667 217.803 295.6 217.136C296.533 216.603 296.8 216.07 296 216.07C295.333 216.203 292.933 217.67 290.933 219.403Z" fill="white"/>
<path d="M222.4 232.203C221.6 233.003 221.2 234.47 221.467 235.403C221.867 236.337 221.6 237.536 220.8 238.07C220 238.47 219.333 239.403 219.333 240.203C219.333 240.87 222.133 239.27 225.467 236.603C230.667 232.736 232.4 232.07 235.867 232.736C239.867 233.536 245.067 237.936 246.4 241.67C246.667 242.603 247.467 243.003 248 242.47C248.533 241.937 248.133 239.27 246.933 236.47L244.933 231.403L234.533 231.003C227.733 230.736 223.467 231.136 222.4 232.203Z" fill="white"/>
<path d="M232.4 237.003C231.2 237.27 230.267 238.736 230.4 240.203C230.533 242.603 230.667 242.736 232.267 240.736C233.067 239.403 234.4 238.87 235.2 239.403C236.8 240.336 237.2 242.87 235.733 242.47C235.067 242.336 230.8 244.203 226.133 246.603C220 249.67 217.867 250.336 218.533 248.87C218.933 247.67 219.733 245.803 220.133 244.736C220.533 243.67 220.4 242.736 219.6 242.736C218.133 242.736 212.267 256.07 213.333 257.136C213.733 257.536 215.067 256.87 216.267 255.803C217.6 254.736 224.133 250.87 230.667 247.403C241.333 241.67 242.267 240.736 239.333 240.07C237.467 239.536 236.133 238.47 236.4 237.67C236.667 236.07 236.267 235.936 232.4 237.003Z" fill="white"/>
<path d="M276.667 247.403C274.933 249.27 273.867 251.003 274.267 251.403C274.533 251.803 276.533 250.203 278.667 248.07C280.8 245.803 281.867 244.07 281.2 244.07C280.4 244.07 278.4 245.537 276.667 247.403Z" fill="white"/>
<path d="M88.6667 262.47C88.6667 263.136 89.8667 264.736 91.2 265.936C93.8667 268.336 94.4 266.603 92.2667 263.003C91.0667 261.137 88.6667 260.87 88.6667 262.47Z" fill="white"/>
<path d="M316.133 263.403C316.533 264.47 317.6 265.003 318.4 264.47C319.2 263.936 319.467 264.47 318.933 265.936C318.4 267.27 318.533 267.937 319.333 267.403C321.467 266.07 320.933 264.337 318 262.737C315.867 261.537 315.6 261.67 316.133 263.403Z" fill="white"/>
<path d="M404.667 264.07C403.6 264.736 401.067 265.403 399.067 265.403C395.6 265.403 395.467 265.67 396.267 269.67C396.667 272.07 398 275.136 399.067 276.47C400.133 277.67 400.667 279.136 400.267 279.67C399.733 280.07 398.133 278.87 396.533 277.003C394.4 274.07 392.667 273.403 388 273.403C377.867 273.403 372.4 281.67 375.867 291.67C376.533 293.936 376.4 294.737 374.8 294.737C372.533 294.737 371.467 288.336 372.933 281.536C374.133 275.403 371.467 273.537 362.267 273.403C353.067 273.403 347.467 276.203 347.333 281.003C347.333 283.403 352.133 283.136 354.533 280.603C355.867 279.27 358.4 278.737 361.6 279.003C369.6 279.67 368 282.07 358.4 283.67C349.2 285.27 346 287.536 346 292.336C346 296.336 353.867 300.337 359.333 299.27C364 298.337 368.4 298.337 373.333 299.003C374.933 299.27 375.867 298.736 375.733 297.67C375.2 295.67 376 295.67 382.667 297.936C386.267 299.27 390.933 299.67 396.533 299.137C404.267 298.337 404.8 298.203 403.867 295.536C401.733 289.536 402.533 267.403 404.8 268.87C405.467 269.27 406 269.136 405.867 268.47C405.333 265.536 406.133 264.203 408 264.87C409.067 265.403 410 265.003 410 264.203C410 262.336 407.333 262.336 404.667 264.07ZM395.333 281.27C398.667 287.537 394.133 295.803 388.267 293.936C384.533 292.87 380.667 288.736 380.667 285.936C380.667 279.936 392.533 276.203 395.333 281.27ZM367.333 289.27C367.333 291.803 360.533 294.87 356.533 294.07C351.867 293.003 351.467 291.137 355.733 289.403C359.6 287.803 367.333 287.803 367.333 289.27Z" fill="white"/>
<path d="M195.733 265.137C191.2 265.537 190.667 266.337 192.4 268.87C195.067 272.87 201.733 272.203 201.333 268.07C201.067 264.736 200.933 264.603 195.733 265.137Z" fill="white"/>
<path d="M340 265.003L334.667 265.536L329.333 278.07C324 290.736 322 293.403 322 287.67C322 283.67 316.533 268.07 315.067 268.07C314.4 268.07 314.267 267.403 314.667 266.737C315.2 265.937 313.067 265.403 309.067 265.403H302.667V298.737H307.333C311.733 298.737 312.133 298.47 312.267 294.336C312.533 290.87 312.267 290.603 311.333 292.737C310.533 294.737 310.133 293.67 310.133 288.603C310 284.87 309.067 279.67 308 277.003C306.4 273.003 306.4 272.07 307.867 270.87C309.067 269.803 310 269.803 310.533 270.603C310.933 271.27 310.533 272.203 309.733 272.47C308.533 273.003 308.667 273.27 310.133 273.27C311.333 273.403 312.933 275.003 313.867 277.003L315.6 280.737L312.667 278.07C310.267 275.936 310.667 277.137 314.533 285.003C317.2 290.203 319.333 295.403 319.333 296.47C319.333 299.003 326.4 300.07 328.533 297.803C329.333 296.87 329.733 296.07 329.2 296.07C328.8 296.07 328.933 295.27 329.6 294.336C330.267 293.536 332 289.137 333.333 284.737C335.733 276.87 335.867 276.87 336.933 280.737C337.6 282.87 337.733 287.936 337.333 291.67L336.533 298.737H341.333C344.8 298.737 345.867 298.337 345.067 297.137C343.467 294.47 343.733 267.937 345.333 268.603C346.133 268.87 346.933 267.937 346.933 266.603C347.067 265.27 346.8 264.203 346.267 264.336C345.733 264.47 342.933 264.737 340 265.003ZM341.067 271.003C341.467 272.337 341.2 273.403 340.533 273.403C340 273.403 339.733 274.336 340.267 275.536C340.933 277.403 340.667 277.536 338.267 276.203C335.2 274.603 334.267 270.737 336.8 270.737C337.467 270.737 337.867 270.203 337.467 269.67C337.067 269.003 337.6 268.47 338.667 268.47C339.6 268.47 340.8 269.67 341.067 271.003Z" fill="white"/>
<path d="M69.7333 281.003C65.4667 289.67 62.1333 297.27 62.1333 298.07C62.1333 298.736 63.2 299.27 64.4 299.003C70.9333 297.937 72.8 297.136 72.2667 295.67C72 294.736 72.2667 293.003 72.9333 291.67C73.8667 289.936 75.8667 289.403 81.8667 289.403C89.4667 289.403 89.6 289.536 90.8 293.67C92 297.936 92.2667 298.07 100.533 298.47L108.8 298.87L108.4 290.07C108 280.603 109.067 278.736 115.067 278.736C117.867 278.736 118 279.27 118 288.603C118 297.936 118.133 298.47 121.2 299.003C125.867 299.937 127.867 298.336 126.667 294.736C126.133 293.136 125.6 289.403 125.333 286.603C124.8 281.003 126.933 278.736 132.533 278.736C135.733 278.736 135.733 279.003 135.333 290.336L135.067 298.736H140C144.267 298.736 144.8 298.47 143.867 296.336C143.2 295.136 142.667 289.937 142.533 285.003C142.4 278.737 141.733 275.403 140.533 274.603C138.133 273.136 128.533 273.136 126 274.736C124.8 275.403 123.467 275.403 122.533 274.603C121.733 273.936 116.4 273.536 110.667 273.67L100.267 274.07L100.533 284.336C100.667 291.003 100.267 294.736 99.4667 294.736C98.6667 294.736 97.8667 293.937 97.7333 293.003C97.3333 289.403 97.0667 288.603 95.3333 283.803C94.4 281.136 92.9333 279.27 92.2667 279.67C91.6 280.07 91.4667 279.27 91.8667 277.803C92.4 276.203 92 274.47 90.8 273.536C89.7333 272.603 88.5333 270.47 88.1333 268.736C87.4667 265.936 86.5333 265.403 82.2667 265.403H77.3333L69.7333 281.003ZM83.8667 277.67C87.0667 282.203 86.4 283.67 81.0667 284.336C78.2667 284.736 75.8667 284.87 75.7333 284.87C75.0667 284.336 80 274.87 80.9333 274.736C81.4667 274.736 82.8 276.07 83.8667 277.67Z" fill="white"/>
<path d="M290.4 275.936C291.467 279.003 292.133 279.67 292.4 278.07C292.667 276.736 292 274.736 290.8 273.67C288.933 271.67 288.8 271.936 290.4 275.936Z" fill="white"/>
<path d="M151.867 274.736C147.6 276.47 144.667 281.403 144.667 286.736C144.667 296.603 157.467 302.87 167.333 297.803C172.8 295.003 174.4 290.736 170 290.736C168.533 290.736 165.733 291.67 163.867 293.003C160.8 295.003 160.133 295.003 155.867 293.003C148.533 289.403 150.4 288.07 162.4 288.07H173.467L172.933 282.736C172.533 279.136 171.467 276.737 169.6 275.403C166.533 273.27 156.4 272.87 151.867 274.736ZM165.733 280.336C168.667 283.27 167.467 284.07 160.4 284.07C156 284.07 152.667 284.87 151.2 286.203C148.8 288.336 146 287.803 146 285.137C146 284.337 147.2 284.07 148.667 284.47C150.267 284.87 151.333 284.47 151.333 283.536C151.333 279.67 162.667 277.27 165.733 280.336Z" fill="white"/>
<path d="M174 274.603C174 275.136 174.4 276.07 174.8 276.47C175.333 277.003 175.6 282.203 175.467 288.07L175.2 298.737H183.6L183.067 290.603C182.8 283.803 183.067 282.203 185.2 280.603C186.667 279.536 188.933 278.736 190.4 278.736C192.533 278.736 192.8 279.67 192.533 288.336L192.267 298.07L196.533 298.47C200.8 298.87 200.933 298.87 200 294.736C198.533 288.07 198.8 279.003 200.533 276.87C201.467 275.803 201.6 274.736 201.067 274.336C199.2 273.27 174 273.403 174 274.603ZM179.6 283.137C176.8 289.003 176.667 289.003 176.933 283.803C177.067 280.603 177.733 279.27 179.333 279.137C181.467 279.003 181.6 279.27 179.6 283.137Z" fill="white"/>
<path d="M207.2 275.403C203.733 277.27 200.667 283.27 200.667 288.336C200.667 292.47 207.467 298.337 213.6 299.403C220.267 300.47 227.333 297.403 227.333 293.403C227.333 289.67 229.6 290.07 230.533 293.936C231.6 298.07 238.8 300.737 245.067 299.27C247.333 298.603 254 298.337 259.733 298.603L270 299.003L269.867 293.27L269.6 287.403L268.667 292.07C267.733 296.47 267.733 296.336 267.467 289.936C267.333 281.936 269.867 278.737 276.4 278.737H280.667V288.603C280.667 296.87 281.067 298.47 283.067 299.003C287.733 300.337 289.467 298.337 289.6 291.403C289.733 285.803 289.6 285.403 288.667 288.737L287.6 292.737L287.467 289.137C287.467 287.137 288 285.137 288.667 284.737C290.933 283.403 290.133 280.07 286.8 276.737C283.867 273.803 282.533 273.536 272.4 273.536L261.2 273.67L261.333 283.936C261.333 293.136 261.067 294.07 258.667 294.47C256 294.87 256 294.336 256.8 286.47C257.6 279.003 257.333 277.803 254.8 275.536C252.533 273.536 250.4 273.27 243.6 273.67C236.533 274.07 234.667 274.736 232.533 277.536C231.2 279.27 230 281.136 230 281.67C230 283.536 236.267 282.737 238 280.737C240.133 278.203 250 277.936 250 280.47C250 281.67 246.933 282.87 241.867 283.803C237.333 284.603 232.667 286.203 231.467 287.27C230.267 288.47 228 289.003 226.4 288.603C224.533 288.07 222.667 289.003 220.267 291.536C217.067 294.87 216.533 295.003 212.8 293.403C209.467 292.07 208.8 291.137 209.467 289.003C210 287.403 209.733 286.737 208.933 287.27C206.8 288.603 208.8 282.336 211.067 280.336C214.4 277.803 220.4 278.337 222 281.403C222.8 282.87 224.667 284.07 226 284.07C229.733 284.07 229.467 278.203 225.733 275.536C222 272.87 211.867 272.87 207.2 275.403ZM205.867 281.536C205.067 283.136 204.667 285.803 205.067 287.536C205.333 289.27 205.067 290.737 204.533 290.737C202.933 290.737 203.067 284.47 204.667 281.27C205.467 279.937 206.4 278.737 206.8 278.737C207.067 278.737 206.8 280.07 205.867 281.536ZM254 285.536C254 287.936 253.733 288.07 252 286.737C250 285.137 250.4 282.737 252.8 282.737C253.467 282.737 254 284.07 254 285.536ZM250 290.203C245.867 295.003 236.667 295.936 236.667 291.536C236.667 289.536 239.733 288.603 247.2 288.203C251.067 288.07 251.467 288.336 250 290.203Z" fill="white"/>
<path d="M409.333 276.47C404.133 280.87 403.2 289.67 407.333 294.203C410.933 297.936 419.6 300.603 424.267 299.403C426.133 299.003 429.6 297.003 432.133 295.003C436.533 291.537 437.6 288.07 435.867 283.403C435.067 281.67 434.667 281.537 433.733 283.003C432.933 284.203 432.8 283.803 433.333 281.936C435.467 274.203 416.8 269.936 409.333 276.47ZM410.667 280.87C409.333 282.337 409.067 283.536 409.867 284.603C410.667 285.536 410.533 286.87 409.333 288.47C407.867 290.47 407.6 290.603 406.8 288.737C405.6 285.537 408.8 278.737 411.6 278.737C412.267 278.737 411.867 279.67 410.667 280.87ZM425.733 280.336C428.533 283.136 427.467 283.67 419.067 283.803L410.667 283.936L413.867 281.403C417.333 278.47 423.333 277.936 425.733 280.336ZM434 289.403C434 290.07 432.267 290.737 430 290.737C427.867 290.737 426 291.27 426 292.07C426 294.47 419.733 295.003 415.467 292.87C408.667 289.27 410.533 288.07 422.667 288.07C429.333 288.07 434 288.603 434 289.403Z" fill="white"/>
<path d="M393.867 301.936C392.8 303.003 394.267 324.07 395.467 324.07C396.933 324.07 397.067 303.136 395.467 302.203C394.933 301.803 394.133 301.67 393.867 301.936Z" fill="white"/>
<path d="M60.5333 312.336C58 317.536 55.8667 322.47 55.6 323.003C55.3333 323.537 56 324.07 57.0667 324.07C58.1333 324.07 59.4667 322.603 59.8667 320.736C60.5333 317.936 61.4667 317.403 65.3333 317.403C67.8667 317.403 70 316.736 70 316.07C70 315.27 68.2667 314.736 66.1333 314.736C62.4 314.736 62.4 314.603 63.8667 310.07C64.6667 307.536 65.8667 305.536 66.5333 305.803C67.2 306.07 69.3333 310.203 71.2 315.137C74.2667 323.003 76.6667 326.47 76.6667 322.87C76.6667 319.803 68.6667 303.403 67.0667 303.003C65.8667 302.737 63.4667 306.336 60.5333 312.336Z" fill="white"/>
<path d="M162.933 313.003C163.2 327.27 166 327.67 166 313.536C166 305.803 165.467 302.736 164.4 302.736C163.067 302.736 162.667 305.536 162.933 313.003Z" fill="white"/>
<path d="M177.2 304.87C177.6 306.07 178 310.87 178 315.536C178 321.003 178.533 324.07 179.467 324.07C180.533 324.07 180.8 321.136 180.4 314.736C180 309.536 180 305.67 180.4 306.07C180.8 306.47 182.667 310.47 184.667 315.137C186.533 319.67 188.933 323.403 189.867 323.403C191.867 323.403 196.933 311.136 196.267 308.07C195.733 306.07 195.2 307.137 191.2 317.003C189.867 320.47 189.6 320.603 188.533 318.07C182.533 303.403 182.133 302.736 179.2 302.736C177.2 302.736 176.667 303.27 177.2 304.87Z" fill="white"/>
<path d="M196.667 304.07C196.667 304.736 197.333 305.403 198 305.403C198.8 305.403 199.333 309.403 199.333 314.736C199.333 320.07 199.867 324.07 200.667 324.07C201.467 324.07 202 319.67 202 313.403C202 303.67 201.733 302.736 199.333 302.736C197.867 302.736 196.667 303.27 196.667 304.07Z" fill="white"/>
<path d="M261.6 303.67C260.267 305.936 260.667 324.07 262 324.07C262.667 324.07 263.333 321.136 263.333 317.536C263.333 313.536 264 310.603 265.067 310.203C266.4 309.536 266.4 309.27 265.067 308.603C262.533 307.536 262.933 304.336 265.733 303.67C267.467 303.136 267.333 303.003 265.067 302.87C263.467 302.87 261.867 303.136 261.6 303.67Z" fill="white"/>
<path d="M302.4 312.336C302.133 320.87 303.467 324.07 307.2 324.07C309.067 323.936 309.067 323.803 307.067 322.203C304.267 320.203 303.733 311.403 306.4 310.203C307.733 309.536 307.733 309.27 306.4 308.603C305.467 308.203 304.667 307.003 304.667 305.936C304.667 304.87 304.133 304.07 303.6 304.07C303.067 304.07 302.533 307.803 302.4 312.336Z" fill="white"/>
<path d="M208.933 308.203C207.333 308.87 206 310.336 206 311.536C206 313.67 206.133 313.67 208.4 311.67C212.933 307.536 217.6 309.67 217.333 315.403C217.2 319.67 215.467 321.403 211.2 321.403C205.867 321.403 206.133 318.203 211.733 316.336L216 315.003L211.867 314.87C206.667 314.737 203.467 317.937 205.6 321.137C206.533 322.737 209.067 323.403 214.4 323.536C219.867 323.67 221.6 323.27 220.8 322.203C220.133 321.403 219.333 318.07 219.067 314.737C218.667 309.803 218.133 308.736 215.333 308.07C213.467 307.536 210.533 307.67 208.933 308.203Z" fill="white"/>
<path d="M350.667 308.07C349.2 308.603 347.333 308.87 346.667 308.47C345.733 308.203 345.333 310.87 345.333 315.403C345.333 319.537 345.867 322.603 346.667 322.47C347.333 322.203 347.733 321.003 347.6 319.536C346.4 312.736 350.533 308.203 355.467 310.87C357.467 311.936 358 313.403 357.733 317.67C357.467 320.736 358 323.403 358.667 323.67C360.133 324.07 360.267 311.936 358.8 309.67C357.6 307.803 353.6 307.003 350.667 308.07Z" fill="white"/>
<path d="M423.333 307.803C415.2 310.336 417.067 324.07 425.6 324.07C429.067 324.07 434.933 319.536 433.067 318.336C432.267 317.803 430.933 318.337 430 319.403C429.067 320.47 426.933 321.403 425.2 321.403C421.467 321.403 419.6 316.47 422 312.203C423.733 308.87 426.4 308.603 429.2 311.403C431.733 313.937 434.133 313.936 433.2 311.536C432.267 309.27 426.133 306.87 423.333 307.803Z" fill="white"/>
<path d="M78.8 314.336C79.3333 323.403 86.8 327.27 92.6667 321.403C95.8667 318.203 96 315.003 93.3333 311.003C91.6 308.737 90 308.203 84.8 308.203L78.5333 308.47L78.8 314.336ZM90.1333 310.736C91.7333 311.67 92.6667 313.536 92.6667 316.07C92.6667 319.136 92 320.203 89.3333 320.87C87.4667 321.27 85.0667 321.403 84 320.87C81.2 319.803 81.4667 312.603 84.4 310.87C87.2 309.136 87.0667 309.136 90.1333 310.736Z" fill="white"/>
<path d="M97.7333 314.603C98.4 321.67 100.933 324.336 106.667 323.803C112.133 323.27 114.933 317.67 112.4 312.336C110.8 309.136 109.867 308.736 103.867 308.603L97.0667 308.47L97.7333 314.603ZM109.333 312.07C111.333 314.336 111.467 315.27 110.267 318.07C107.467 324.07 98.2667 321.003 100.4 314.736C102.267 309.003 105.6 307.936 109.333 312.07Z" fill="white"/>
<path d="M116.267 309.936C115.067 312.87 116.8 313.67 119.467 311.27C123.2 307.803 127.333 309.937 127.333 315.403C127.333 317.803 127.733 320.736 128.133 321.936C129.067 324.203 132.667 324.87 132.667 322.737C132.667 321.937 132.133 321.403 131.467 321.403C130.667 321.403 130 318.603 129.733 315.003L129.333 308.737L123.2 308.336C118.667 308.07 116.8 308.47 116.267 309.936Z" fill="white"/>
<path d="M134.933 314.603C135.067 317.936 135.2 321.536 135.2 322.336C135.333 323.27 136 324.07 136.8 324.07C137.733 324.07 138 322.737 137.467 320.87C136.4 316.603 138.667 310.737 141.333 310.737C142.4 310.737 143.333 310.203 143.333 309.536C143.333 308.87 141.333 308.336 138.933 308.47C134.667 308.603 134.533 308.603 134.933 314.603Z" fill="white"/>
<path d="M145.333 311.137C141.733 316.737 145.067 324.07 151.2 324.07C155.333 324.07 160.533 320.87 158.933 319.27C158.4 318.737 157.2 319.003 156.4 319.803C154.267 321.936 149.333 321.803 147.467 319.67C145.467 317.136 146.933 316.07 151.333 316.87C153.333 317.403 155.467 317.003 155.867 316.203C156.533 315.27 155.067 314.736 151.467 314.736C147.333 314.736 146.267 314.337 146.8 312.87C148.667 308.07 156.133 309.003 157.467 314.203C158.133 316.47 158.8 317.136 159.733 316.203C160.667 315.27 160.4 313.803 158.8 311.536C155.867 306.87 148.267 306.737 145.333 311.137Z" fill="white"/>
<path d="M223.733 315.67C223.733 319.536 224.133 323.136 224.8 323.536C225.467 323.936 226 321.937 226 319.003C226 312.203 229.733 308.47 234 310.737C236.4 312.07 236.8 313.003 236 316.87C235.2 321.403 236 324.603 237.867 323.536C238.267 323.136 238.4 319.803 238 315.803L237.333 308.737L223.867 308.47L223.733 315.67Z" fill="white"/>
<path d="M241.867 314.336C242.133 317.936 242.933 321.536 243.6 322.336C245.2 324.336 250.8 324.603 252 322.736C252.533 321.936 251.067 321.403 248.8 321.403C244.8 321.403 244.667 321.27 244.667 314.736C244.667 310.336 244.133 308.07 242.933 308.07C241.867 308.07 241.467 309.936 241.867 314.336Z" fill="white"/>
<path d="M253.733 316.07C254.4 326.47 256.667 326.47 256.667 316.07C256.667 310.603 256.133 308.07 255.067 308.07C253.867 308.07 253.467 310.336 253.733 316.07Z" fill="white"/>
<path d="M268.267 309.003C267.733 309.403 267.333 310.736 267.333 311.803C267.333 313.536 267.733 313.536 269.733 311.67C274.667 307.136 280.267 310.47 278.933 317.003C278.533 319.003 278.533 321.403 278.933 322.336C279.733 324.336 283.333 324.736 283.333 322.736C283.333 321.936 282.667 321.403 282 321.403C281.2 321.403 280.667 319.136 280.8 316.336C281.067 313.536 280.667 310.603 280.133 309.67C279.067 307.936 269.733 307.403 268.267 309.003Z" fill="white"/>
<path d="M286.267 309.67C284 311.936 284.267 319.536 286.8 321.936C290.8 326.07 299.333 323.937 299.333 318.87C299.2 317.137 298.933 317.137 297.467 319.137C296.133 320.737 294.267 321.403 291.733 321.137C288.8 320.87 287.867 319.937 287.6 317.003C286.8 310.337 293.6 306.47 296.533 311.67C297.2 313.003 298.267 313.67 298.8 313.137C299.333 312.603 298.933 311.27 298 310.07C296 307.67 288.533 307.403 286.267 309.67Z" fill="white"/>
<path d="M310 314.47C310 317.936 310.667 321.536 311.6 322.47C313.6 324.47 318.4 324.47 320.4 322.47C321.6 321.27 322 321.27 322 322.47C322 323.403 322.667 324.07 323.333 324.07C324.133 324.07 324.667 320.47 324.667 316.07C324.667 311.67 324.133 308.07 323.333 308.07C322.667 308.07 322 310.736 322 314.07C322 319.27 321.6 320.07 318.8 320.87C314 322.07 312.667 320.603 312.667 313.936C312.667 310.736 312.133 308.07 311.333 308.07C310.667 308.07 310 311.003 310 314.47Z" fill="white"/>
<path d="M328.4 316.07C328.933 325.403 331.333 327.003 331.333 317.936C331.333 313.003 331.867 311.67 334 311.137C335.467 310.737 336.667 309.937 336.667 309.27C336.667 307.537 334.8 307.803 332.933 309.67C331.733 310.87 331.333 310.87 331.333 309.67C331.333 308.736 330.533 308.07 329.733 308.07C328.533 308.07 328.133 310.336 328.4 316.07Z" fill="white"/>
<path d="M339.333 316.07C339.333 320.47 339.867 324.07 340.667 324.07C341.467 324.07 342 320.47 342 316.07C342 311.67 341.467 308.07 340.667 308.07C339.867 308.07 339.333 311.67 339.333 316.07Z" fill="white"/>
<path d="M364.933 309.67C362.267 312.336 362.933 321.136 365.867 322.736C369.2 324.47 374 324.47 374 322.736C374 321.936 372.533 321.403 370.667 321.403C366.4 321.403 364.267 317.403 366 312.736C367.067 309.803 368 309.27 370.4 309.936C372 310.336 374 310.736 374.8 310.736C376.4 310.736 376.533 323.803 374.8 326.47C373.6 328.47 368.4 328.603 366.4 326.603C365.6 325.803 364.133 325.403 363.2 325.67C362 326.07 362.533 327.003 364.8 328.47C367.467 330.203 369.067 330.47 373.067 329.27C377.867 327.937 378 327.803 378.133 321.003C378.133 317.137 378.4 312.87 378.533 311.403C378.8 309.003 378 308.603 372.667 308.336C369.333 308.203 365.733 308.87 364.933 309.67Z" fill="white"/>
<path d="M400.667 316.336C400.667 320.603 401.2 324.07 402 324.07C402.8 324.07 403.333 321.403 403.333 318.07C403.333 313.536 404 311.803 405.867 310.736C410.533 308.336 412.667 310.47 412.667 317.536C412.667 321.136 413.333 324.07 414 324.07C414.8 324.07 415.333 320.87 415.333 316.87C415.333 308.737 414.4 307.936 405.733 308.336L400.667 308.47V316.336Z" fill="white"/>
<path d="M121.467 314.603C113.867 316.203 113.2 324.07 120.533 324.07C122.667 324.07 124.933 323.536 125.333 322.736C125.867 321.936 124.4 321.403 122.133 321.403C116.667 321.403 116.667 317.936 122 316.736C124.267 316.203 126 315.27 126 314.603C126 313.936 125.867 313.536 125.733 313.536C125.467 313.67 123.6 314.07 121.467 314.603Z" fill="white"/>
<path d="M267.2 316.87C263.733 321.003 271.867 326.737 275.733 322.87C276.8 321.803 276 321.403 272.933 321.403C266.933 321.403 267.467 317.936 273.733 316.336L278.667 315.003L273.867 314.87C270.933 314.737 268.267 315.537 267.2 316.87Z" fill="white"/>
<path d="M382.533 324.07C382.667 328.87 385.2 328.603 385.733 323.67C386 321.27 385.6 320.07 384.267 320.07C383.067 320.07 382.4 321.403 382.533 324.07Z" fill="white"/>
<path d="M435.6 321.67C436.4 324.07 439.333 324.47 439.333 322.203C439.333 321.003 438.4 320.07 437.2 320.07C436 320.07 435.333 320.736 435.6 321.67Z" fill="white"/>
<path d="M79.3333 326.603C79.3333 328.87 80 330.737 80.6667 330.737C81.4667 330.737 82 329.27 82 327.536C82 325.67 81.4667 323.803 80.6667 323.403C79.8667 322.87 79.3333 324.336 79.3333 326.603Z" fill="white"/>
<path d="M97.7333 323.67C96.6667 325.803 97.4667 329.803 99.0667 330.336C100 330.736 100.667 329.67 100.667 327.536C100.667 324.336 98.6667 321.67 97.7333 323.67Z" fill="white"/>
</svg>
