<svg width="501" height="501" viewBox="0 0 501 501" fill="none" xmlns="http://www.w3.org/2000/svg">
<path d="M500.25 250.736C500.25 388.808 388.321 500.736 250.25 500.736C112.179 500.736 0.25 388.808 0.25 250.736C0.25 112.665 112.179 0.73645 250.25 0.73645C388.321 0.73645 500.25 112.665 500.25 250.736Z" fill="#D9D9D9"/>
<path d="M358.267 205.65C356.623 206.926 327.595 223.282 327.595 259.652C327.595 301.719 364.532 316.601 365.637 316.97C365.467 317.877 359.769 337.351 346.163 357.194C334.03 374.656 321.359 392.089 302.083 392.089C282.807 392.089 277.846 380.892 255.594 380.892C233.908 380.892 226.198 392.458 208.566 392.458C190.934 392.458 178.631 376.3 164.486 356.457C148.101 333.156 134.863 296.956 134.863 262.6C134.863 207.493 170.694 178.267 205.958 178.267C224.695 178.267 240.314 190.57 252.078 190.57C263.276 190.57 280.737 177.53 302.055 177.53C310.133 177.53 339.161 178.267 358.267 205.65ZM291.935 154.2C300.751 143.74 306.987 129.226 306.987 114.713C306.987 112.7 306.817 110.659 306.448 109.015C292.105 109.553 275.04 118.568 264.75 130.502C256.671 139.687 249.13 154.2 249.13 168.912C249.13 171.123 249.499 173.335 249.669 174.043C250.576 174.213 252.05 174.412 253.524 174.412C266.394 174.412 282.58 165.794 291.935 154.2Z" fill="black"/>
</svg>
