<svg width="500" height="501" viewBox="0 0 500 501" fill="none" xmlns="http://www.w3.org/2000/svg">
<path d="M500 250.409C500 388.48 388.071 500.409 250 500.409C111.929 500.409 0 388.48 0 250.409C0 112.338 111.929 0.408936 250 0.408936C388.071 0.408936 500 112.338 500 250.409Z" fill="#999B9E"/>
<path fill-rule="evenodd" clip-rule="evenodd" d="M286.619 228.56C288.745 224.001 289.844 219.032 289.839 214.003C289.839 201.999 283.711 191.438 274.415 185.248C280.105 179.393 286.08 173.822 292.319 168.556C284.851 172.948 277.833 177.99 271.339 183.426C266.395 180.827 260.893 179.471 255.308 179.475C236.231 179.475 220.772 194.935 220.772 214C220.772 222.612 223.933 230.481 229.148 236.526C222.536 250.816 221.37 262.313 227.198 266.196C233.44 270.36 247.011 262.822 255.153 250.541C255.153 250.541 242.558 261.901 235.645 259.289C231.38 257.679 231.37 251.172 234.883 241.834C240.803 246.187 247.962 248.53 255.31 248.519C264.767 248.519 273.336 244.713 279.572 238.558L280.802 240.866C295.855 239.645 340.803 238.459 340.803 238.459C340.798 236.296 311.03 238.252 286.619 228.56ZM230.388 233.951C225.841 228.298 223.367 221.259 223.376 214.005C223.376 196.378 237.672 182.085 255.306 182.085C260.281 182.085 264.987 183.226 269.188 185.254C251.524 200.548 238.001 218.624 230.388 233.951ZM268.357 217.537L278.282 236.151C275.309 239.244 271.741 241.704 267.793 243.383C263.844 245.062 259.597 245.927 255.306 245.924C248.28 245.932 241.449 243.613 235.881 239.328C241.763 225.329 254.693 205.948 272.574 187.166C281.392 192.847 287.232 202.74 287.232 214.005C287.232 218.854 286.143 223.446 284.209 227.556C278.375 225.011 272.92 221.747 268.357 217.537Z" fill="#0066B3"/>
<path fill-rule="evenodd" clip-rule="evenodd" d="M423.707 284.561C423.707 283.591 423.177 283.075 421.953 283.075H419.935V288.458H420.396V285.975H421.798L423.417 288.458H423.935L422.32 285.981C423.09 285.867 423.707 285.439 423.707 284.561ZM421.541 285.575H420.396V283.485H421.885C422.527 283.485 423.251 283.725 423.251 284.553C423.251 285.49 422.359 285.575 421.541 285.575ZM421.885 281.287C419.368 281.287 417.33 283.324 417.33 285.84C417.33 288.363 419.368 290.395 421.885 290.395C424.405 290.395 426.44 288.363 426.44 285.842C426.44 283.324 424.405 281.287 421.885 281.287ZM421.897 289.992C419.57 289.992 417.794 288.146 417.794 285.842C417.794 283.497 419.548 281.693 421.897 281.693C424.241 281.693 425.976 283.506 425.976 285.832C425.976 288.129 424.224 289.992 421.897 289.992ZM213.155 286.06C213.155 285.432 213.032 284.81 212.791 284.23C212.551 283.65 212.199 283.123 211.755 282.679C211.311 282.235 210.783 281.883 210.203 281.643C209.623 281.402 209.001 281.279 208.373 281.279H176.988C174.436 281.276 171.918 281.866 169.634 283.004C167.35 284.142 165.363 285.796 163.829 287.835L147.621 309.34C147.086 310.05 146.759 310.895 146.678 311.781C146.597 312.666 146.764 313.556 147.161 314.352C147.558 315.147 148.169 315.816 148.925 316.283C149.682 316.751 150.553 316.998 151.443 316.998L182.828 317C185.38 317.003 187.897 316.412 190.181 315.274C192.465 314.136 194.453 312.482 195.987 310.444L212.201 288.943C212.825 288.111 213.161 287.099 213.158 286.06H213.155ZM139.323 300.015C143.115 299.151 146.479 296.974 148.819 293.868L152.534 288.943C153.157 288.11 153.494 287.098 153.492 286.057C153.492 284.79 152.988 283.574 152.091 282.677C151.195 281.78 149.978 281.277 148.71 281.277L109.107 281.275L82.1835 316.998L123.163 317C125.715 317.003 128.233 316.412 130.517 315.274C132.801 314.136 134.789 312.482 136.323 310.444L140.118 305.4C140.619 304.737 140.888 303.928 140.884 303.096C140.885 302.496 140.744 301.903 140.473 301.367C140.201 300.831 139.806 300.367 139.321 300.013L139.323 300.015ZM121.2 304.618L118.786 307.823C118.387 308.352 117.871 308.781 117.279 309.077C116.686 309.372 116.032 309.526 115.37 309.527H107.352L112.548 302.633H120.208C120.439 302.633 120.664 302.697 120.86 302.819C121.056 302.94 121.214 303.113 121.317 303.319C121.421 303.525 121.464 303.755 121.444 303.985C121.424 304.214 121.338 304.433 121.2 304.618ZM252.213 302.631L257.844 295.162L238.239 295.158L243.069 288.75H262.674L268.31 281.279H229.173L202.249 317H241.388L247.019 309.529H227.42L232.608 302.635H252.213V302.631ZM131.663 290.739L129.607 293.469C128.829 294.493 127.591 295.164 126.195 295.164L118.171 295.16L123.007 288.752H130.667C130.898 288.752 131.124 288.816 131.32 288.938C131.517 289.059 131.675 289.232 131.778 289.439C131.881 289.645 131.925 289.876 131.904 290.105C131.884 290.335 131.801 290.554 131.663 290.739ZM191.324 290.739L178.447 307.826C178.049 308.353 177.534 308.782 176.941 309.076C176.349 309.371 175.697 309.524 175.035 309.523H169.508C169.277 309.523 169.051 309.458 168.855 309.337C168.659 309.215 168.5 309.042 168.398 308.835C168.295 308.629 168.252 308.398 168.273 308.168C168.294 307.939 168.379 307.72 168.518 307.536L181.393 290.453C181.791 289.925 182.307 289.496 182.899 289.201C183.491 288.905 184.143 288.751 184.805 288.75H190.337C190.567 288.75 190.793 288.815 190.989 288.936C191.185 289.058 191.343 289.231 191.446 289.437C191.549 289.644 191.593 289.874 191.572 290.104C191.551 290.333 191.467 290.553 191.328 290.737L191.324 290.739ZM408.345 281.279L376.954 281.275C374.402 281.272 371.884 281.864 369.601 283.002C367.317 284.141 365.33 285.796 363.797 287.835L347.591 309.34C347.056 310.05 346.729 310.895 346.648 311.781C346.567 312.666 346.734 313.556 347.131 314.352C347.528 315.147 348.139 315.816 348.896 316.283C349.652 316.751 350.524 316.998 351.413 316.998H382.802C385.354 317 387.87 316.41 390.154 315.272C392.437 314.134 394.425 312.481 395.959 310.444L399.857 305.27H404.387L410.06 297.749H386.013L378.419 307.817C377.643 308.852 376.401 309.518 375.01 309.518H369.482C369.251 309.52 369.023 309.457 368.826 309.336C368.628 309.215 368.468 309.041 368.364 308.834C368.26 308.627 368.216 308.396 368.237 308.165C368.258 307.935 368.343 307.714 368.482 307.53L381.361 290.447C382.138 289.412 383.372 288.746 384.771 288.746H390.305C390.994 288.746 391.543 289.305 391.543 289.988C391.543 290.269 391.448 290.526 391.297 290.733L389.204 293.51H408.72L412.167 288.932C412.7 288.222 413.025 287.377 413.105 286.493C413.185 285.609 413.017 284.719 412.62 283.925C412.224 283.131 411.614 282.462 410.859 281.994C410.104 281.527 409.234 281.28 408.345 281.279ZM344.473 281.279L330.828 299.382L326.638 281.279H311.369L284.443 317H297.368L310.895 299.055L315.044 316.998H330.476L357.4 281.277L344.473 281.279ZM279.4 281.279L252.476 317H272.009L298.931 281.279H279.4Z" fill="#0066B3"/>
</svg>
