<svg width="501" height="501" viewBox="0 0 501 501" fill="none" xmlns="http://www.w3.org/2000/svg">
<path d="M500.211 250.121C500.211 388.192 388.282 500.121 250.211 500.121C112.14 500.121 0.210938 388.192 0.210938 250.121C0.210938 112.05 112.14 0.120972 250.211 0.120972C388.282 0.120972 500.211 112.05 500.211 250.121Z" fill="#F5B227"/>
<path d="M248.821 243.858L260.082 186.288L271.288 243.858H248.821ZM289.106 152.307H230.833L196.853 304.659L260.082 253.617L326.008 308.857L289.106 152.307ZM260.082 266.831L154.643 352.092H361.842L260.082 266.831ZM418.711 152.11V191.006H389.701V351.783H377.316L343.111 323.138V191.006H314.227V152.11H418.711ZM178.205 318.42C185.9 311.989 187.22 304.041 187.22 296.908V266.971H145.376V307.608C145.38 310.398 144.276 313.076 142.306 315.053C140.337 317.031 137.663 318.145 134.873 318.153C129.059 318.153 124.735 313.435 124.735 307.622V192.452C124.735 186.639 129.059 181.921 134.873 181.921C137.663 181.924 140.338 183.035 142.31 185.01C144.282 186.985 145.39 189.661 145.39 192.452V233.355H187.164V190.935C187.164 167.486 171.83 148.193 134.508 148.15C96.2019 148.15 81.7109 167.528 81.7109 190.977V311.216C81.7109 334.455 100.162 352.035 123.766 352.035H136.712L178.205 318.42Z" fill="black"/>
</svg>
