<svg width="501" height="501" viewBox="0 0 501 501" fill="none" xmlns="http://www.w3.org/2000/svg">
<path d="M500.987 250.736C500.987 388.808 389.058 500.736 250.987 500.736C112.916 500.736 0.987305 388.808 0.987305 250.736C0.987305 112.665 112.916 0.73645 250.987 0.73645C389.058 0.73645 500.987 112.665 500.987 250.736Z" fill="#E8EC3B"/>
<path d="M83.654 225.867C77.5206 228.533 71.1206 234.4 67.9206 240.533C63.7873 248.267 63.7873 265.067 67.9206 272.667C73.3873 282.8 83.654 289.333 94.1873 289.333C103.787 289.333 117.921 281.6 121.787 274.267C122.987 272.267 121.787 272.8 117.787 276.267C103.921 288.133 88.054 285.2 82.054 269.6C78.9873 261.733 78.9873 244.267 82.054 236.933C84.9873 230 90.454 225.333 95.654 225.333C100.721 225.333 103.121 227.733 106.854 236.4L109.654 242.8L113.387 240.133C120.054 235.467 120.587 234.133 117.254 230.933C115.654 229.333 112.054 227.2 109.387 226C103.387 223.6 89.1206 223.467 83.654 225.867Z" fill="black"/>
<path d="M130.587 224.8C129.121 226.267 129.521 260 130.987 268.133C131.787 272 133.654 277.2 135.387 279.6C141.387 288.667 155.387 291.867 166.587 286.8C175.654 282.667 176.721 279.733 177.921 257.067C178.454 246.133 178.987 234.4 179.254 230.933L179.654 224.667L173.787 224.267C170.587 224 167.387 224.4 166.721 225.067C166.054 225.733 167.654 230.4 170.987 236.8L176.587 247.2L176.054 261.467C175.787 273.467 175.254 276.4 172.854 279.6C166.454 288.267 152.987 287.733 147.787 278.667C145.254 274.533 144.854 271.067 144.321 249.333L143.654 224.667L137.654 224.267C134.321 224 131.121 224.267 130.587 224.8Z" fill="black"/>
<path d="M190.321 225.6C189.921 226.533 189.787 240.933 189.921 257.333L190.321 287.333H226.321L227.521 280.933C228.854 273.333 228.054 272 223.921 275.6C219.787 279.467 208.187 286.667 206.054 286.667C204.721 286.667 204.321 279.867 204.054 255.6L203.654 224.667L197.254 224.267C192.987 224 190.721 224.4 190.321 225.6Z" fill="black"/>
<path d="M223.787 225.067C223.521 225.6 222.721 229.467 222.187 233.467L221.254 240.667L228.721 233.6C240.587 222.533 240.321 221.867 240.321 257.467V288.133L247.387 287.733L254.321 287.333L254.721 256.933C255.121 222.267 254.854 222.667 265.787 232.933C269.387 236.267 272.587 238.8 272.854 238.533C273.121 238.267 272.854 234.933 272.454 231.333L271.654 224.667L248.054 224.267C235.121 224.133 224.187 224.4 223.787 225.067Z" fill="black"/>
<path d="M279.921 224.933C278.454 226.267 278.854 262.667 280.454 269.333C284.187 286 300.187 293.867 315.921 286.8C324.987 282.667 326.054 279.733 327.254 257.067C327.787 246.133 328.321 234.4 328.587 230.933L328.987 224.667L323.121 224.267C319.921 224 316.721 224.4 316.187 224.933C315.521 225.6 317.254 230.667 320.454 236.667L325.921 247.2L325.387 261.467C324.854 278.133 322.987 282.133 314.054 285.067C306.187 287.6 299.787 284.8 296.321 277.067C294.054 272.133 293.654 268.267 293.654 248.533C293.654 223.333 293.921 224 285.121 224C282.721 224 280.321 224.4 279.921 224.933Z" fill="black"/>
<path d="M340.587 225.067C339.387 226 338.987 233.2 339.254 256.8L339.654 287.333L353.521 288.133L353.921 273.733C354.321 260.8 354.587 259.333 356.854 259.333C358.721 259.333 360.587 262.667 364.854 273.333L370.454 287.333L378.054 287.733C382.854 288 385.654 287.6 385.654 286.667C385.654 285.867 382.721 279.333 378.987 272L372.321 258.667L376.321 256.667C378.454 255.6 381.387 253.333 382.854 251.867C388.854 245.333 386.854 232.8 379.121 228.667C373.254 225.733 361.521 223.6 359.787 225.333C358.854 226.267 359.521 226.667 361.787 226.667C369.921 226.667 375.121 236.4 372.321 246.667C370.587 252.933 366.187 256.267 359.254 256.533L354.321 256.667L354.054 240.667L353.921 224.667L348.054 224.267C344.987 224.133 341.521 224.533 340.587 225.067Z" fill="black"/>
<path d="M397.254 224.8C396.721 225.333 396.321 239.733 396.321 256.933V288.133L435.521 287.333L436.587 282.133C437.254 279.333 437.387 276.667 437.121 276.267C436.721 276 434.721 276.933 432.454 278.533C426.587 282.8 417.521 286.667 413.387 286.667H409.654V271.333C409.654 254 409.921 253.733 419.387 258.533L424.321 261.067V248L420.054 250.667C417.654 252.133 414.321 253.333 412.721 253.333C409.787 253.333 409.654 252.933 409.654 239.867V226.267L415.521 226.933C418.854 227.333 424.454 229.467 428.321 231.867C432.187 234.267 435.521 235.867 435.787 235.6C436.054 235.333 435.921 232.667 435.254 229.867L434.187 224.667L416.187 224.267C406.321 224.133 397.787 224.4 397.254 224.8Z" fill="black"/>
<path d="M294.987 307.6C288.321 310.133 285.921 318.8 290.721 323.067C294.321 326.4 302.321 326 305.921 322.4C308.587 319.733 308.721 319.333 306.587 318.933C305.387 318.667 303.387 319.467 302.187 320.533C299.787 323.067 298.454 323.2 294.854 321.333C292.054 319.733 291.521 314.667 293.921 312.267C296.187 310 300.321 310.267 303.121 312.8C306.721 316 309.121 314.533 306.054 311.067C303.521 307.867 298.321 306.267 294.987 307.6Z" fill="black"/>
<path d="M327.387 308C321.521 310.4 319.921 318.267 324.321 322.667C327.787 326.133 336.321 326.267 339.387 322.933C341.787 320.4 342.321 313.867 340.587 311.067C339.654 309.6 333.121 306.533 331.254 306.8C330.721 306.8 328.987 307.333 327.387 308ZM336.054 312.267C338.454 314.667 337.921 319.733 335.254 321.2C331.521 323.2 327.121 321.467 326.054 317.6C324.721 312.267 332.054 308.267 336.054 312.267Z" fill="black"/>
<path d="M142.987 309.6C142.987 310.4 144.054 314.267 145.254 318.267C146.987 323.867 148.054 325.333 150.321 325.333C152.587 325.333 153.654 324.133 154.854 320C155.654 317.067 156.854 314.667 157.521 314.667C158.054 314.667 159.387 317.067 160.321 320C162.854 327.733 166.587 326.933 169.787 318C172.721 309.733 172.854 308 170.454 308C169.521 308 167.921 310.667 166.987 314.133C165.121 320.8 164.054 320.533 161.654 312.933C160.587 309.6 159.387 308 157.654 308C155.921 308 154.721 309.6 153.654 312.933C151.254 320.533 150.187 320.8 148.321 314.133C147.387 310.667 145.787 308 144.854 308C143.787 308 142.987 308.667 142.987 309.6Z" fill="black"/>
<path d="M186.987 316.667C186.987 323.467 187.387 325.333 188.987 325.333C190.587 325.333 190.987 323.467 190.987 316.667C190.987 309.867 190.587 308 188.987 308C187.387 308 186.987 309.867 186.987 316.667Z" fill="black"/>
<path d="M206.987 316.667C206.987 323.467 207.387 325.333 208.987 325.333C210.454 325.333 210.987 323.733 210.987 318.933V312.667L215.387 318.933C218.321 323.2 220.587 325.2 222.721 325.333C225.521 325.333 225.654 324.8 225.654 316.667C225.654 310 225.254 308 223.787 308C222.321 308 221.654 309.867 221.387 314.133L220.987 320.4L216.587 314.133C213.921 310.533 211.121 308 209.521 308C207.254 308 206.987 308.933 206.987 316.667Z" fill="black"/>
<path d="M240.854 316.667V325.333H248.587C257.521 325.333 259.121 323.067 250.721 322.4C243.654 321.867 243.254 319.467 250.054 318.933C256.587 318.4 256.721 314.933 250.321 314.4C243.654 313.867 243.921 311.467 250.721 310.933C259.121 310.267 257.521 308 248.721 308H240.987L240.854 316.667Z" fill="black"/>
<path d="M354.987 322.667C354.987 324.667 355.654 325.333 357.387 325.067C358.587 324.8 359.654 323.733 359.654 322.667C359.654 321.6 358.587 320.533 357.387 320.267C355.654 320 354.987 320.667 354.987 322.667Z" fill="black"/>
</svg>
