<svg width="501" height="501" viewBox="0 0 501 501" fill="none" xmlns="http://www.w3.org/2000/svg">
<path d="M500.474 250.081C500.474 388.153 388.545 500.081 250.474 500.081C112.402 500.081 0.473633 388.153 0.473633 250.081C0.473633 112.01 112.402 0.0814209 250.474 0.0814209C388.545 0.0814209 500.474 112.01 500.474 250.081Z" fill="#0083CA"/>
<path d="M245.778 98.5814H255.169C300.848 101.166 333.417 118.566 357.563 142.953C381.709 167.339 399.558 199.503 401.943 245.523V254.64C399.624 301.396 381.46 332.255 357.563 357.363C332.459 381.212 301.6 399.282 255.018 401.581H245.778C200.105 398.991 167.53 381.598 143.385 357.21C119.239 332.823 101.389 300.66 99.0042 254.64V245.523C99.1231 245.49 99.1812 245.396 99.1557 245.219C101.44 199.375 119.386 166.877 143.385 142.801C167.495 118.613 200.401 101.088 245.778 98.5814ZM216.09 120.311C207.09 122.729 199.019 125.799 191.704 129.428C169.437 140.474 151.074 156.278 138.235 176.535C125.703 196.307 114.852 221.743 116.424 255.096C117.415 276.123 122.197 293.811 129.752 308.888C144.672 338.659 167.387 360.594 198.823 373.926C214.368 380.519 233.63 385.143 255.321 384.107C276.127 383.113 294.156 378.421 309.093 370.887C338.368 356.12 361.439 333.336 374.226 301.899C380.693 285.996 385.583 267.625 384.526 245.371C382.525 203.213 365.431 174.628 342.872 152.829C331.71 142.043 318.269 132.869 302.43 126.237C287.062 119.803 267.056 115.033 245.629 116.056C235.095 116.559 225.158 117.875 216.09 120.311Z" fill="white"/>
<path d="M236.539 210.725C241.338 213.913 246.247 216.992 250.777 220.45C240.543 226.897 230.509 233.547 220.332 240.052C221.877 241.238 223.634 242.21 225.179 243.395C235.44 236.873 245.705 230.355 255.928 223.793C260.512 226.64 265.026 229.557 269.258 232.759C259.014 239.249 249.115 246.083 238.963 252.664C240.467 253.891 242.311 254.777 243.961 255.856C254.453 249.413 264.684 242.708 275.012 236.102V214.524H297.733V257.528C304.144 257.882 311.214 257.578 317.879 257.678V277.889H275.012V257.374C262.418 265.051 249.511 273.732 236.842 281.84C223.649 273.245 210.933 264.169 197.763 255.552C193.948 267.684 184.886 276.811 169.892 277.889C160.541 278.56 149.915 277.388 139.144 277.889V214.524C152.609 215.419 167.396 212.717 178.071 216.043C187.511 218.984 194.203 226.54 197.308 235.949C210.488 227.645 223.457 219.129 236.539 210.725ZM160.803 234.886V257.679C166.215 257.706 170.332 258.021 173.526 255.552C178.279 251.88 179.236 242.776 175.041 237.925C172.241 234.688 167.514 234.009 160.954 234.43C160.779 234.456 160.79 234.67 160.803 234.886ZM323.785 214.524H346.505V257.679H366.499V277.89H323.632V214.98C323.621 214.764 323.608 214.549 323.785 214.524Z" fill="white"/>
</svg>
