<svg width="501" height="501" viewBox="0 0 501 501" fill="none" xmlns="http://www.w3.org/2000/svg">
<path d="M500.283 250.736C500.283 388.808 388.354 500.736 250.283 500.736C112.212 500.736 0.282959 388.808 0.282959 250.736C0.282959 112.665 112.212 0.73645 250.283 0.73645C388.354 0.73645 500.283 112.665 500.283 250.736Z" fill="#3D5447"/>
<path d="M217.243 176.765C208.885 177.846 204.165 178.829 193.25 181.385C182.63 183.842 163.848 190.625 154.408 195.441C132.283 206.647 116.746 220.801 108.781 236.823C104.553 245.375 103.57 250.093 103.668 261.889C103.668 271.129 104.061 273.488 106.323 279.189C119.5 312.511 161.98 337.478 218.325 344.948C231.796 346.718 269.36 346.619 283.225 344.85C338.586 337.478 381.165 312.216 394.243 279.189C396.603 273.193 396.898 271.129 396.898 260.807C396.898 250.486 396.603 248.422 394.243 242.426C386.573 223.062 368.971 206.352 343.208 193.967C334.85 189.937 317.838 183.842 309.283 181.778C288.633 176.667 275.063 175.29 248.906 175.389C236.418 175.487 222.16 176.077 217.243 176.765ZM281.061 179.714C321.673 185.022 354.615 199.176 375.658 220.015C396.111 240.362 400.143 266.312 386.18 288.822C372.02 311.725 339.668 330.302 298.958 339.051C272.015 344.752 227.863 344.948 203.378 339.444C186.563 335.61 180.565 333.841 167.388 328.631C149.59 321.751 131.988 310.054 121.565 298.356C114.976 291.181 107.995 277.125 106.618 268.671C105.536 262.085 105.93 254.811 107.798 247.439L108.88 243.114L121.86 243.213C133.856 243.311 135.331 243.016 143.591 240.165C154.801 236.332 168.568 233.285 175.55 233.285C178.5 233.285 182.531 232.892 184.4 232.4C186.268 231.909 189.71 231.221 191.873 230.926C195.413 230.434 196.003 230.631 196.495 232.302C197.281 235.349 200.035 234.759 199.838 231.515C199.74 230.041 199.248 228.567 198.756 228.272C198.265 227.879 198.166 226.797 198.658 225.814C199.346 224.045 199.445 224.045 200.231 225.913C200.723 226.994 201.51 229.058 202.1 230.533C202.591 232.105 203.771 233.285 204.755 233.285C206.033 233.285 206.131 232.99 205.246 232.105C203.083 229.943 203.968 228.567 207.803 228.173C211.736 227.682 213.211 228.763 212.326 231.515C211.638 233.678 212.72 237.217 213.998 237.217C214.49 237.217 214.883 235.546 214.883 233.481C214.883 231.515 215.375 229.156 215.866 228.37C216.555 227.289 216.85 227.584 216.85 229.943C216.85 231.614 217.538 233.58 218.325 234.268C219.603 235.349 219.8 234.956 219.8 231.417C219.8 226.896 221.373 226.109 224.225 229.353C226.683 232.105 234.353 234.858 235.73 233.481C236.516 232.695 236.516 232.007 235.828 231.122C233.075 227.485 233.566 226.699 238.778 226.896C243.498 227.092 243.891 227.289 244.186 229.746C244.383 231.221 245.366 232.892 246.35 233.481C247.333 234.071 247.923 235.251 247.628 235.939C247.333 236.627 247.53 237.217 247.923 237.217C248.415 237.217 249.89 237.511 251.266 237.806C253.626 238.298 253.626 238.298 251.856 236.823C249.791 235.152 250.48 233.58 253.823 232.302C255.2 231.712 256.183 230.533 256.183 229.353C256.183 227.584 256.871 227.387 261.886 227.289C265.918 227.289 267 226.994 265.525 226.404C264.443 225.913 261.69 225.814 259.428 226.109C256.085 226.502 255.2 226.306 255.2 225.126C255.2 224.34 255.691 223.455 256.38 223.259C257.56 222.865 256.773 219.523 255.396 219.523C255.003 219.523 253.823 220.801 252.938 222.472C250.971 225.814 247.333 226.502 247.333 223.652C247.333 222.669 247.038 221.588 246.743 221.194C245.661 220.113 243.4 221.686 243.4 223.554C243.4 225.126 242.613 225.421 238.975 225.421C233.96 225.421 232.78 223.062 237.008 221.489C238.385 220.998 239.466 220.113 239.466 219.523C239.466 218.246 237.893 218.246 235.435 219.622C233.763 220.506 232.681 220.015 228.748 216.28C222.16 210.087 213.015 205.664 205.64 205.074C201.215 204.681 198.953 203.894 197.183 202.322C190.3 196.031 182.236 194.163 175.943 197.407C174.37 198.193 167.388 204.386 160.406 211.168C142.411 228.567 137.2 231.024 128.841 225.913C124.22 223.062 122.155 222.669 125.498 225.323C130.218 228.96 134.348 230.533 137.79 229.943C142.805 228.96 151.556 222.472 161.783 212.151C178.401 195.244 182.728 193.868 193.741 201.634L198.363 204.877L195.806 207.236C194.43 208.514 193.25 210.185 193.25 210.873C193.25 211.856 193.053 211.856 192.365 210.775C191.873 210.087 190.988 209.792 190.398 210.087C189.808 210.48 189.513 211.267 189.808 211.758C190.103 212.25 189.808 212.348 189.021 212.053C188.235 211.758 187.251 212.053 186.76 212.741C186.268 213.626 186.858 213.822 189.12 213.331C192.07 212.741 192.266 212.839 192.266 215.395C192.266 216.869 192.856 218.934 193.643 220.015C194.331 221.096 195.216 223.554 195.61 225.519L196.2 228.96L187.645 230.139C182.826 230.729 174.566 231.712 169.158 232.4C162.668 233.088 155.391 234.759 147.525 237.413C136.61 241.148 134.741 241.443 122.548 241.935L109.47 242.328L113.206 235.251C117.828 226.404 129.53 214.314 140.641 206.942C160.701 193.573 188.628 183.842 217.833 179.91C232.288 177.944 266.508 177.846 281.061 179.714ZM216.751 212.053C224.323 215.985 230.616 222.079 230.616 225.519C230.616 228.861 229.436 229.058 225.7 226.404C223.831 225.028 222.061 224.635 220.095 225.028C217.735 225.519 216.653 225.028 213.703 222.079C210.851 219.229 209.475 218.54 206.23 218.54C203.968 218.54 201.805 219.13 201.116 220.015C199.936 221.391 199.641 221.391 198.068 220.015C195.118 217.263 194.823 213.724 197.38 210.972C199.445 208.711 200.231 208.514 205.541 209.006C209.278 209.301 213.408 210.382 216.751 212.053ZM209.77 222.669C213.703 223.75 213.998 226.404 210.261 226.404C208.688 226.404 206.525 226.699 205.345 226.994C203.28 227.584 203.083 227.289 203.083 223.947C203.083 220.9 203.378 220.408 204.853 220.998C205.738 221.391 208 222.079 209.77 222.669Z" fill="white"/>
<path d="M241.826 185.218C239.565 185.808 235.041 187.774 231.796 189.838C225.7 193.573 213.31 204.484 214.195 205.369C214.391 205.664 216.85 203.796 219.406 201.339C225.306 195.834 235.828 188.757 240.351 187.184C242.22 186.594 247.038 186.103 251.266 186.103C257.953 186.103 259.625 186.496 266.606 189.936C271.031 192.001 276.931 195.834 279.783 198.39L285.093 203.108L277.226 202.322C267.688 201.437 263.066 199.766 263.066 197.014C263.066 195.932 262.673 194.753 262.083 194.458C261.591 194.163 261.1 194.261 261.1 194.753C261.1 195.244 258.641 195.539 255.691 195.441C251.561 195.146 250.283 195.441 250.283 196.522C250.283 197.309 250.775 197.898 251.266 197.898C252.741 197.898 252.446 201.437 250.775 202.813C248.021 205.074 249.005 206.745 253.135 206.745C257.658 206.745 259.723 209.202 261.001 216.083C261.886 220.9 263.263 223.062 266.016 223.947C268.671 224.831 270.245 229.648 269.753 235.84C269.36 240.854 269.458 241.247 271.326 240.952C273.195 240.657 273.391 239.871 273.686 233.973L273.981 227.289L281.061 227.879C300.236 229.451 300.433 229.55 296.5 234.563C294.041 237.61 294.041 238.2 296.401 238.2C297.778 238.2 299.155 236.529 301.121 232.302C302.596 229.058 304.17 226.404 304.563 226.404C305.546 226.404 306.628 234.759 306.136 237.708C305.743 239.772 306.038 240.165 307.906 240.165C310.07 240.165 310.168 239.871 309.873 235.251C309.578 231.024 309.775 230.336 311.151 230.729C314.495 231.614 320.493 232.4 329.54 233.186C338.095 233.875 339.766 234.464 349.895 239.379C355.991 242.426 363.17 245.572 365.825 246.358C373.986 248.914 391.883 252.157 391.883 251.076C391.883 250.683 388.048 249.798 383.426 249.11C372.216 247.341 362.875 244.294 349.698 237.806C340.946 233.481 337.505 232.302 332.195 231.909C328.458 231.515 321.87 230.827 317.543 230.238L309.578 229.156L308.3 225.421C307.316 222.472 307.316 220.605 308.103 217.361C308.693 215.002 309.48 212.053 309.676 210.677C309.971 209.301 309.971 211.758 309.775 216.083C309.578 220.408 309.775 224.635 310.266 225.421C310.955 226.404 311.25 224.733 311.446 220.015C311.84 208.219 311.643 205.86 309.873 203.894C308.3 202.125 308.398 202.027 312.331 200.454C316.363 198.783 316.461 198.881 322.46 201.634C325.705 203.305 331.998 207.531 336.325 211.07C359.04 229.844 362.776 232.597 367.89 233.678C371.528 234.464 374.675 233.383 378.608 229.943C382.345 226.699 381.066 226.601 376.346 229.844C374.38 231.221 371.331 232.302 369.66 232.302C365.628 232.302 355.696 225.618 341.93 213.822C330.13 203.698 320.985 197.898 316.658 197.898C314.986 197.898 312.036 198.783 309.971 199.864C307.415 201.24 303.481 202.027 296.5 202.42L286.666 203.108L280.963 197.702C269.36 186.594 255.396 182.171 241.826 185.218ZM263.853 202.42C267.983 205.271 274.178 206.057 291.878 206.057C299.843 206.057 306.628 206.352 306.825 206.745C307.12 207.236 306.726 210.579 306.038 214.412C305.251 218.147 304.858 221.981 304.956 222.767C305.251 224.831 301.81 225.519 300.236 223.75C298.368 221.391 295.123 220.605 291.288 221.489C289.223 221.882 285.585 221.784 282.045 221.096C277.226 220.015 275.85 220.113 273.195 221.391C270.146 222.767 269.851 222.669 267.59 220.605C266.311 219.425 264.738 216.28 264.05 213.822C263.263 210.677 261.69 208.121 258.936 205.467C255.79 202.518 255.298 201.437 256.183 200.356C257.461 198.783 259.133 199.275 263.853 202.42ZM278.505 223.652C279.98 224.242 284.995 224.831 289.616 224.831C296.893 224.93 297.975 225.126 298.27 226.699C298.565 228.075 298.171 228.468 296.795 228.075C295.811 227.78 290.305 227.289 284.503 226.896C274.965 226.306 273.883 226.011 273.883 224.34C273.883 222.177 274.67 222.079 278.505 223.652Z" fill="white"/>
<path d="M110.65 254.32C110.65 256.384 111.141 256.876 113.108 256.876C115.468 256.876 115.566 257.072 115.566 264.248C115.566 271.423 115.468 271.62 113.108 271.62C111.141 271.62 110.65 272.111 110.65 274.176V276.731L123.728 276.338C134.446 276.043 137.2 275.748 139.461 274.176C147.23 268.966 146.64 257.662 138.38 254.222C136.02 253.239 130.415 252.452 122.745 252.157L110.65 251.666V254.32ZM134.25 258.842C135.528 260.119 136.216 262.085 136.216 264.641C136.216 269.556 133.561 271.62 127.366 271.62H122.941V256.876H127.661C131.005 256.876 132.873 257.465 134.25 258.842Z" fill="white"/>
<path d="M145.066 254.32C145.066 256.188 145.558 256.876 147.033 256.876C148.803 256.876 149 257.564 149 264.248C149 270.932 148.803 271.62 147.033 271.62C145.558 271.62 145.066 272.308 145.066 274.077C145.066 276.535 145.165 276.535 153.425 276.535C161.685 276.535 161.783 276.535 161.783 274.077C161.783 272.111 161.291 271.62 159.325 271.62C157.26 271.62 156.866 271.129 156.866 268.671C156.866 267 157.26 265.722 157.85 265.722C158.341 265.722 160.603 268.081 162.963 271.03C167.191 276.338 167.29 276.436 172.6 276.436C177.713 276.535 178.008 276.436 178.008 274.077C178.008 272.111 177.516 271.62 175.451 271.62C173.976 271.62 171.813 270.44 170.141 268.671C167.585 266.017 167.486 265.722 169.256 265.231C172.895 264.051 174.075 263.068 175.058 260.414C175.845 258.252 175.55 257.367 173.386 255.205C170.83 252.747 170.24 252.649 157.948 252.158L145.066 251.666V254.32ZM166.503 259.53C166.798 261.594 166.503 261.79 161.881 261.79C157.161 261.79 156.866 261.594 156.866 259.235C156.866 256.876 157.063 256.777 161.586 257.072C165.52 257.367 166.208 257.662 166.503 259.53ZM154.31 266.017L153.621 268.18L152.835 265.919C152.343 264.739 152.245 263.068 152.638 262.184C153.13 260.709 153.326 260.709 154.113 262.184C154.605 263.068 154.703 264.739 154.31 266.017Z" fill="white"/>
<path d="M176.533 254.418C176.533 256.089 177.025 256.876 178.303 256.876C180.86 256.876 190.3 266.804 190.3 269.457C190.3 270.932 189.71 271.62 188.333 271.62C186.858 271.62 186.366 272.308 186.366 274.077C186.366 276.535 186.465 276.535 194.725 276.535C202.985 276.535 203.083 276.535 203.083 274.077C203.083 272.111 202.591 271.62 200.625 271.62C198.756 271.62 198.166 271.129 198.166 269.359C198.166 266.41 207.803 256.876 210.753 256.876C212.425 256.876 212.916 256.286 212.916 254.418C212.916 252.059 212.72 251.961 205.541 251.961C198.363 251.961 198.166 252.059 198.166 254.418C198.166 255.991 198.756 256.876 199.74 256.876C200.92 256.876 200.526 257.76 198.363 260.021L195.315 263.068L192.07 260.021C190.398 258.252 189.513 256.876 190.103 256.876C190.791 256.876 191.283 255.794 191.283 254.418C191.283 252.059 191.086 251.961 183.908 251.961C176.73 251.961 176.533 252.059 176.533 254.418Z" fill="white"/>
<path d="M235.533 254.32C235.533 256.188 236.025 256.876 237.5 256.876C239.27 256.876 239.466 257.564 239.466 264.248C239.466 270.932 239.27 271.62 237.5 271.62C236.025 271.62 235.533 272.308 235.533 274.077C235.533 276.535 235.631 276.535 243.891 276.535C248.513 276.535 252.25 276.142 252.25 275.65C252.25 273.389 250.873 271.62 249.201 271.62C247.825 271.62 247.333 270.932 247.333 268.671C247.333 267 247.726 265.722 248.316 265.722C248.808 265.722 251.07 268.081 253.43 271.03C257.56 276.338 257.756 276.436 262.87 276.436C267.688 276.535 267.983 276.436 267.983 274.077C267.983 272.21 267.491 271.62 265.721 271.62C263.656 271.62 258.15 267.098 258.15 265.427C258.15 265.034 259.231 264.739 260.51 264.739C263.066 264.739 266.016 261.496 266.016 258.842C266.016 257.957 264.935 256.188 263.558 254.91C261.296 252.846 260.018 252.551 248.316 252.158L235.533 251.666V254.32ZM256.97 259.53C257.265 261.594 256.97 261.79 252.348 261.79C247.628 261.79 247.333 261.594 247.333 259.235C247.333 256.876 247.53 256.777 252.053 257.072C255.986 257.367 256.675 257.662 256.97 259.53ZM244.973 265.329C244.186 267.492 243.105 266.41 242.613 262.97C242.318 260.513 242.416 260.414 243.99 261.987C244.973 262.97 245.366 264.248 244.973 265.329Z" fill="white"/>
<path d="M268.966 254.418C268.966 256.286 269.458 256.876 271.228 256.876C273.293 256.876 273.391 257.269 273.391 264.248C273.391 271.227 273.293 271.62 271.228 271.62C269.458 271.62 268.966 272.21 268.966 274.077C268.966 276.535 269.065 276.535 277.325 276.535C285.585 276.535 285.683 276.535 285.683 274.077C285.683 272.21 285.191 271.62 283.52 271.62C281.356 271.62 281.258 271.227 281.258 264.248C281.258 257.269 281.356 256.876 283.52 256.876C285.191 256.876 285.683 256.286 285.683 254.418C285.683 251.961 285.585 251.961 277.325 251.961C269.065 251.961 268.966 251.961 268.966 254.418Z" fill="white"/>
<path d="M287.551 252.059C286.765 255.794 287.158 256.876 289.321 256.876C291.485 256.876 291.583 257.171 291.583 264.248C291.583 271.227 291.485 271.62 289.42 271.62C287.65 271.62 287.158 272.21 287.158 274.077V276.535H296.991C310.07 276.535 313.708 275.748 317.15 272.603C319.706 270.146 320.1 269.163 320.1 264.346C320.1 258.35 318.526 255.794 313.413 253.73C310.955 252.747 287.748 251.273 287.551 252.059ZM310.266 258.842C311.446 260.021 312.233 262.085 312.233 264.248C312.233 269.261 309.48 271.62 303.678 271.62H298.958V256.876H303.678C307.021 256.876 308.89 257.465 310.266 258.842Z" fill="white"/>
<path d="M328.95 254.222C324.033 256.679 322.066 259.628 322.066 264.936C322.066 269.556 325.803 274.176 330.72 275.552C335.538 276.83 346.256 276.83 348.813 275.454C350.19 274.667 351.075 274.667 351.861 275.454C352.451 276.043 353.828 276.535 355.008 276.535C356.778 276.535 356.975 275.847 357.171 270.637L357.368 264.739H350.583C343.798 264.739 343.7 264.838 343.7 267.295C343.7 269.654 343.896 269.752 346.846 269.064C349.6 268.475 349.895 268.573 348.813 269.851C345.765 273.586 335.145 272.505 332.293 268.18C330.031 264.739 331.31 260.218 335.046 258.252C340.75 255.303 351.566 258.055 351.566 262.479C351.566 263.167 352.648 263.756 354.025 263.756C356.385 263.756 356.483 263.461 356.483 257.859C356.483 252.256 356.385 251.961 354.025 251.961C352.55 251.961 351.566 252.551 351.566 253.337C351.566 254.615 351.173 254.615 348.911 253.337C344.683 251.175 334.26 251.568 328.95 254.222ZM328.261 269.654C327.475 270.539 325.016 266.41 325.016 264.248C325.016 263.068 325.606 261.594 326.295 260.906C327.278 259.923 327.573 260.611 328.065 264.444C328.36 267 328.458 269.359 328.261 269.654Z" fill="white"/>
<path d="M358.45 254.418C358.45 256.188 358.941 256.876 360.416 256.876C362.186 256.876 362.383 257.564 362.383 264.248C362.383 270.932 362.186 271.62 360.416 271.62C358.941 271.62 358.45 272.308 358.45 274.077V276.535H388.933V271.62C388.933 266.804 388.835 266.705 385.983 266.705C383.525 266.705 383.033 267.098 383.033 269.163C383.033 271.522 382.836 271.62 376.641 271.62C370.348 271.62 370.25 271.62 370.25 268.868C370.25 266.312 370.446 266.214 374.675 266.509C378.903 266.902 379.1 266.804 379.1 264.346C379.1 261.987 378.805 261.79 374.675 261.79C370.643 261.79 370.25 261.594 370.25 259.333C370.25 256.974 370.446 256.876 376.641 256.876C382.836 256.876 383.033 256.974 383.033 259.333C383.033 261.397 383.525 261.79 385.983 261.79C388.835 261.79 388.933 261.692 388.933 256.876V251.961H358.45V254.418Z" fill="white"/>
<path d="M186.956 293.343C185.383 296.685 184.695 299.438 185.088 300.912C185.481 302.681 185.285 303.173 184.301 302.878C183.613 302.681 182.728 301.109 182.335 299.536C181.548 295.801 178.598 288.92 178.008 289.411C177.811 289.706 178.696 292.852 180.073 296.587C181.351 300.322 182.236 304.156 181.941 305.04C181.056 307.891 182.433 311.921 184.301 311.921C185.678 311.921 185.973 311.233 185.678 308.677C185.383 306.318 185.481 305.827 186.268 307.006C186.858 307.793 187.35 309.267 187.35 310.152C187.35 311.135 187.841 311.921 188.333 311.921C189.71 311.921 189.611 306.711 188.136 303.664C187.251 301.6 187.35 300.814 188.628 299.339C189.611 298.356 190.3 296.98 190.3 296.292C190.3 295.604 189.415 295.997 188.333 297.275L186.366 299.634L188.333 294.326C190.89 287.249 190.005 286.659 186.956 293.343Z" fill="white"/>
<path d="M310.266 288.92C310.266 289.608 311.151 291.967 312.135 294.326C314.396 299.339 314.101 300.421 311.348 297.079C308.791 294.031 308.693 295.604 311.151 298.75C312.823 300.814 312.823 301.502 311.643 304.746C309.971 309.66 309.971 311.921 311.643 311.921C312.528 311.921 313.216 310.643 313.511 308.677L313.905 305.532L314.003 308.677C314.2 311.233 314.593 311.921 316.166 311.921C317.346 311.921 318.133 311.233 318.133 310.152C318.133 309.267 318.428 307.4 318.821 306.122C319.215 304.549 319.116 303.959 318.33 304.451C317.051 305.237 318.428 300.027 321.083 293.638C322.165 291.279 322.558 289.313 322.066 289.313C321.476 289.313 321.083 289.706 321.083 290.296C321.083 290.788 320.493 291.181 319.903 290.984C319.215 290.886 318.035 292.262 317.248 293.933C315.773 297.275 314.2 298.258 314.2 295.702C314.2 294.916 313.315 292.852 312.233 291.082C311.151 289.313 310.266 288.33 310.266 288.92ZM318.428 297.472C316.855 302.976 315.183 304.942 315.183 301.109C315.183 300.027 315.576 299.143 315.97 299.143C316.461 299.143 317.346 297.373 318.035 295.113C319.903 289.018 320.198 290.984 318.428 297.472Z" fill="white"/>
<path d="M322.656 295.014C320.69 298.258 319.116 301.698 319.116 302.681C319.116 303.763 320.886 301.305 323.148 297.275C327.868 288.527 327.573 286.954 322.656 295.014Z" fill="white"/>
<path d="M173.583 290.689C173.583 290.984 175.353 294.425 177.615 298.356C180.171 302.976 181.351 304.451 180.958 302.583C179.975 298.16 173.583 287.839 173.583 290.689Z" fill="white"/>
<path d="M180.466 290.689C180.466 291.869 183.613 298.258 184.006 297.865C184.596 297.275 181.843 290.296 181.056 290.296C180.663 290.296 180.466 290.493 180.466 290.689Z" fill="white"/>
<path d="M195.216 292.459C195.216 293.54 196.003 294.228 197.183 294.228C198.953 294.228 199.15 294.916 199.15 299.634C199.15 304.352 198.953 305.04 197.183 305.04C195.905 305.04 195.216 305.729 195.216 307.006C195.216 308.776 195.905 308.972 201.608 308.972C207.311 308.972 208 308.776 208 307.006C208 305.925 207.311 305.04 206.525 305.04C205.64 305.04 205.05 304.156 205.05 302.976C205.05 301.305 205.541 301.01 208.196 301.305C210.655 301.502 211.54 301.207 211.736 299.831C212.031 298.455 211.343 298.16 208.59 298.16C205.738 298.16 205.05 297.767 205.05 296.194C205.05 294.523 205.738 294.228 210.065 294.228C214.588 294.228 215.08 294.425 214.588 296.194C214.195 297.767 214.588 298.16 216.456 298.16C218.521 298.16 218.816 297.668 218.816 294.425V290.788H207.016C196.396 290.788 195.216 290.984 195.216 292.459Z" fill="white"/>
<path d="M222.946 297.668C219.406 303.173 217.833 305.04 216.161 305.04C214.588 305.04 213.9 305.63 213.9 307.006C213.9 308.776 214.588 308.972 219.8 308.972C225.798 308.972 227.175 307.891 224.52 305.237C223.635 304.352 224.323 304.057 227.961 304.057C232.386 304.057 232.485 304.156 231.6 306.515C230.715 308.972 230.715 308.972 236.516 308.972C241.728 308.972 242.416 308.776 242.416 307.006C242.416 305.925 241.826 305.04 241.04 305.04C240.253 305.04 237.795 301.698 235.533 297.668C230.223 288.035 229.043 288.035 222.946 297.668ZM230.026 298.75C230.911 301.01 230.813 301.109 228.65 301.109C226.781 301.109 225.995 299.143 227.371 297.865C228.453 296.784 229.338 297.079 230.026 298.75Z" fill="white"/>
<path d="M243.4 292.459C243.4 293.442 244.088 294.228 245.17 294.228C246.546 294.228 246.841 295.113 246.841 299.634C246.841 304.156 246.546 305.04 245.17 305.04C244.088 305.04 243.4 305.827 243.4 307.006C243.4 308.776 244.088 308.972 249.791 308.972C255.495 308.972 256.183 308.776 256.183 307.006C256.183 305.729 255.495 305.04 254.216 305.04C252.938 305.04 252.25 304.352 252.25 303.075C252.25 300.126 253.823 300.715 257.265 305.04C260.018 308.382 261.001 308.972 264.246 308.972C267.295 308.972 267.983 308.677 267.983 307.006C267.983 305.729 267.295 305.04 266.213 305.04C264.541 305.04 260.215 301.404 261.198 300.814C261.395 300.715 262.476 300.126 263.558 299.536C264.738 298.848 265.623 297.177 265.82 295.408C266.213 291.672 265.623 291.574 252.545 290.984C244.285 290.689 243.4 290.886 243.4 292.459ZM260.116 296.194C260.116 297.865 259.428 298.16 256.183 298.16C252.938 298.16 252.25 297.865 252.25 296.194C252.25 294.523 252.938 294.228 256.183 294.228C259.428 294.228 260.116 294.523 260.116 296.194Z" fill="white"/>
<path d="M269.95 292.36C269.95 293.343 270.638 294.228 271.425 294.228C272.605 294.228 272.9 295.506 272.9 299.634C272.9 303.763 272.605 305.04 271.425 305.04C270.638 305.04 269.95 305.925 269.95 307.006C269.95 308.776 270.638 308.972 275.85 308.972C281.061 308.972 281.75 308.776 281.75 307.006C281.75 305.729 281.061 305.04 279.881 305.04C278.701 305.04 277.915 304.156 277.521 302.288C276.833 298.553 277.423 298.356 279.98 301.698C281.258 303.271 283.225 305.63 284.503 307.006L286.666 309.464L288.928 306.515C290.108 304.942 292.075 302.485 293.255 301.109L295.418 298.651L295.516 301.797C295.516 304.352 295.123 305.04 293.55 305.04C292.271 305.04 291.583 305.729 291.583 307.006C291.583 308.776 292.271 308.972 297.975 308.972C303.678 308.972 304.366 308.776 304.366 307.006C304.366 305.827 303.678 305.04 302.695 305.04C301.22 305.04 300.925 304.156 300.925 299.634C300.925 295.113 301.22 294.228 302.695 294.228C303.678 294.228 304.366 293.442 304.366 292.36C304.366 290.689 303.678 290.493 299.941 290.591C295.713 290.788 295.123 291.181 291.288 295.997L287.158 301.109L282.733 296.096C278.898 291.771 277.718 291.082 274.178 290.788C270.54 290.493 269.95 290.689 269.95 292.36Z" fill="white"/>
<path d="M168.273 295.211C167.88 297.865 167.978 300.715 168.568 302.288C169.158 303.763 169.256 305.925 168.863 307.105C168.175 308.874 167.88 308.677 166.7 305.139C165.225 300.421 164.536 300.224 162.963 303.566C161.39 306.908 161.488 307.498 163.16 306.122C164.34 305.139 164.93 305.434 166.208 307.989C167.191 309.857 168.47 310.938 169.453 310.742C170.338 310.643 171.715 310.84 172.403 311.331C173.485 311.921 173.681 311.43 173.485 309.365C173.288 307.793 173.485 305.925 173.878 305.237C174.37 304.647 174.271 304.057 173.78 304.057C173.288 304.057 173.091 302.681 173.386 301.109C173.976 297.177 174.861 298.16 175.156 302.878C175.353 306.613 177.221 312.511 178.008 311.725C178.205 311.528 177.811 308.972 177.025 306.023C175.845 301.502 175.845 300.912 177.025 302.386C177.713 303.468 178.696 305.925 178.991 308.088C179.385 310.152 179.975 311.921 180.466 311.921C181.745 311.921 178.991 302.583 176.926 299.732C174.468 296.39 173.386 296.98 172.01 302.19L170.928 306.515L170.24 300.617C169.846 297.373 169.453 293.835 169.256 292.754C169.158 291.672 168.666 292.754 168.273 295.211Z" fill="white"/>
<path d="M330.425 299.536C330.523 305.532 330.228 306.515 329.245 305.139C328.556 304.254 327.966 302.681 327.966 301.6C327.868 298.75 326.393 296.784 325.016 297.668C323.541 298.553 319.116 307.891 319.116 310.152C319.116 312.216 321.378 312.511 322.755 310.643C324.721 308.284 326 302.78 325.016 301.6C324.033 300.421 324.623 299.143 326.196 299.143C326.688 299.143 327.081 300.322 326.983 301.797C326.885 303.369 326.885 306.318 326.885 308.481C327.081 312.019 327.18 312.216 328.36 310.643C329.441 309.267 329.835 309.169 330.228 310.152C330.621 311.036 331.31 310.84 332.785 309.169C333.768 307.989 334.948 306.417 335.243 305.729C335.735 304.844 335.931 304.844 336.423 305.729C337.603 308.382 338.586 306.908 337.505 304.057C336.128 300.421 335.046 300.322 333.866 303.763C331.113 311.233 330.916 310.545 332.096 299.143C332.391 296.096 331.9 292.262 331.113 292.262C330.72 292.262 330.425 295.506 330.425 299.536ZM323.443 304.746C322.656 309.562 321.181 312.314 321.083 309.365C321.083 307.105 322.951 301.109 323.64 301.109C323.935 301.109 323.836 302.78 323.443 304.746Z" fill="white"/>
</svg>
