<svg width="501" height="501" viewBox="0 0 501 501" fill="none" xmlns="http://www.w3.org/2000/svg">
<path d="M500.125 250.081C500.125 388.153 388.197 500.081 250.125 500.081C112.054 500.081 0.125488 388.153 0.125488 250.081C0.125488 112.01 112.054 0.0814209 250.125 0.0814209C388.197 0.0814209 500.125 112.01 500.125 250.081Z" fill="#000958"/>
<path d="M250.698 180.546C148.827 180.546 66.987 211.165 66.987 249.509C66.987 287.568 149.399 318.472 250.698 318.472C351.996 318.472 434.409 287.568 434.409 249.509C434.695 211.737 351.996 180.546 250.698 180.546ZM250.698 312.463C153.405 312.463 74.7132 284.42 74.7132 249.509C74.7132 214.885 153.692 186.555 250.698 186.555C347.99 186.555 426.682 214.598 426.682 249.509C426.969 284.42 347.99 312.463 250.698 312.463ZM323.095 263.531C323.095 263.817 323.095 264.103 323.095 264.103C323.095 264.389 323.667 264.675 323.953 264.961C323.953 264.961 324.239 265.248 323.953 265.534C322.809 268.109 321.664 269.54 320.233 271.543C318.802 273.546 317.372 274.977 315.655 276.408C313.079 278.697 309.073 280.986 305.925 279.555C304.495 278.697 303.922 276.98 303.922 275.263C303.922 270.971 305.925 266.392 309.645 261.814C313.938 256.377 319.089 253.515 322.236 255.232C325.67 256.663 324.812 260.669 323.095 263.531ZM232.098 234.915C231.812 233.198 232.384 231.195 234.101 229.764C234.959 228.906 236.104 228.906 236.962 229.478C237.821 230.051 237.249 231.768 236.676 233.198C235.818 234.629 234.387 235.774 232.956 235.774C232.384 235.488 232.098 235.488 232.098 234.915ZM250.698 191.992C156.839 191.992 80.7224 218.032 80.7224 249.795C80.7224 281.272 156.839 307.312 250.698 307.312C344.556 307.312 420.673 281.272 420.673 249.509C420.673 217.746 344.556 191.992 250.698 191.992ZM163.421 287.568C153.405 287.568 144.535 281.558 143.39 270.684C142.818 264.675 144.535 259.524 147.969 254.946C150.83 250.94 155.981 247.792 160.273 246.934C161.704 246.648 163.421 246.934 164.279 247.792C165.424 249.223 165.138 250.654 163.993 251.512C160.845 253.229 156.839 256.091 154.836 259.811C153.119 262.958 152.833 266.964 155.409 270.398C159.415 276.408 170.575 276.694 181.162 266.965C183.738 264.675 186.027 262.386 188.316 259.525C192.895 254.374 194.325 252.371 200.621 243.786V243.5C200.621 243.5 200.621 243.5 200.335 243.214C196.329 243.214 192.609 244.644 189.175 247.22C188.316 248.078 186.885 247.792 186.027 246.934C185.455 245.789 185.741 244.358 186.885 243.786C192.322 239.78 198.618 239.208 204.627 238.063C204.627 238.063 205.199 238.063 205.485 237.491C208.061 234.343 210.064 231.195 212.639 228.048C215.501 224.614 218.935 221.752 221.51 219.177C225.23 216.029 227.805 214.885 230.095 213.454C230.667 213.168 230.095 212.595 229.809 212.595C216.073 210.02 201.765 206.586 188.316 211.737C178.873 215.171 174.867 222.611 176.87 227.761C178.301 231.195 182.879 231.768 187.458 229.764C191.178 228.048 194.325 225.186 196.901 221.466C198.332 219.463 200.907 220.894 199.476 224.328C195.47 233.771 187.744 241.211 178.587 241.497C170.575 241.783 165.71 236.06 165.71 228.906C165.71 214.884 181.449 205.441 198.045 204.011C218.076 202.294 236.962 207.731 256.707 210.02C271.873 211.737 286.467 212.023 301.633 208.303C303.35 208.017 304.781 209.161 304.495 210.878C304.209 213.454 302.205 216.029 297.341 218.891C291.618 222.038 285.609 222.897 279.313 222.897C264.147 222.897 250.125 217.174 235.532 214.026C235.532 214.598 235.818 215.457 235.245 215.743C227.233 221.752 219.793 227.761 214.929 236.06C214.642 236.346 214.929 236.346 215.215 236.346C219.507 236.06 223.227 236.06 227.233 235.774C227.805 235.774 227.805 235.488 227.805 234.915C227.519 232.054 228.378 228.62 230.953 226.331C233.529 224.041 236.962 223.755 238.965 225.472C241.541 227.475 241.255 230.909 239.824 233.484C238.393 236.06 236.104 237.491 234.101 238.349C234.101 238.349 233.529 238.349 233.815 238.921C233.815 239.494 236.962 241.211 237.249 241.783C237.535 242.069 237.249 242.928 236.962 243.214C236.676 243.5 236.104 243.786 235.532 243.786C234.959 243.786 234.673 243.5 234.101 243.214C232.67 242.355 230.953 241.211 230.095 239.78C229.809 239.208 229.522 239.208 228.664 239.208C224.372 239.494 217.79 240.066 213.212 240.638C212.067 240.638 212.067 240.925 211.781 241.497C204.627 253.229 196.901 266.106 188.316 274.691C179.159 284.992 171.433 287.568 163.421 287.568ZM358.864 229.764C357.433 232.054 330.535 273.26 328.818 277.266C328.245 278.697 328.245 279.555 328.818 280.414C330.249 282.417 333.396 281.272 335.399 279.841C341.122 275.835 345.129 270.971 349.707 266.678C349.993 266.392 350.279 266.392 350.565 266.678C351.138 267.251 352.282 268.109 352.855 268.681C353.141 268.968 353.141 269.254 352.855 269.54C348.562 274.977 343.698 279.841 339.119 283.561C331.965 288.998 324.812 290.429 321.092 286.995C319.661 285.565 319.089 283.848 319.089 282.131C319.089 281.272 318.516 281.272 318.23 281.558C313.938 285.851 306.498 290.429 299.916 286.995C294.193 284.134 293.049 277.552 294.193 271.829C294.193 271.829 294.193 270.971 293.335 271.257C292.19 272.115 290.759 272.974 288.756 273.832C286.467 274.691 285.322 274.977 283.033 274.977C280.172 274.977 277.882 273.832 276.165 270.971C275.307 269.54 274.735 267.251 274.735 265.534C274.735 265.248 274.449 264.961 274.162 265.534C269.584 272.401 265.292 279.269 260.713 286.423C260.427 286.709 260.141 286.995 259.855 286.995C256.993 286.995 253.845 286.995 250.984 286.995C250.412 286.995 250.125 286.709 250.412 286.137C252.129 282.989 260.713 270.398 266.722 259.525C268.439 256.663 268.153 254.946 267.009 254.374C265.864 253.515 263.289 254.66 260.999 256.377C255.276 260.669 250.412 267.537 247.836 270.684C246.405 272.401 244.975 275.263 241.255 279.269C235.245 285.851 227.233 289.571 219.793 286.995C215.501 285.565 212.639 282.131 211.495 278.125C211.209 277.266 210.922 276.98 210.35 277.552C209.205 278.983 206.63 281.272 204.341 282.703C204.055 282.989 203.482 283.275 202.91 282.989C202.338 282.703 200.907 280.7 200.621 279.841C200.335 279.269 200.621 278.983 200.907 278.697C204.055 276.121 205.485 274.404 206.916 272.974C207.775 271.829 208.633 270.398 209.492 268.109C211.209 263.531 215.501 254.946 223.799 250.368C226.947 248.651 230.095 247.506 233.815 246.934C235.245 246.648 236.676 246.934 236.962 248.078C237.249 248.651 237.535 249.795 237.821 250.368C238.107 250.94 237.821 251.226 237.249 251.512C232.384 253.515 227.519 256.377 224.085 260.955C220.079 266.106 219.221 272.401 221.796 275.835C223.799 278.411 226.661 278.983 229.809 277.838C234.387 276.408 238.107 272.401 240.11 267.537C242.113 262.386 242.685 256.663 240.969 251.226C240.682 250.368 240.969 249.509 241.541 249.223C242.685 248.364 244.402 247.506 244.689 247.22C245.833 246.648 246.978 246.934 247.55 247.792C249.267 250.081 250.125 253.515 250.125 257.235C250.125 258.094 250.412 258.094 250.984 257.521C253.845 254.374 256.707 251.226 259.569 248.651C262.43 246.361 266.15 244.644 269.298 244.644C273.59 244.644 275.879 247.792 275.593 252.943C275.593 253.515 276.165 253.515 276.452 253.229C277.882 251.226 278.741 250.368 280.172 249.223C283.319 246.648 286.181 245.503 289.615 245.789C293.621 246.075 296.769 249.795 296.196 253.801C295.91 256.377 294.193 258.952 291.904 260.097C289.901 261.241 287.325 260.955 285.609 259.525C284.178 258.38 283.892 256.377 284.178 254.66C284.178 254.374 283.892 253.801 283.319 254.374C279.313 258.38 279.027 263.531 281.602 266.106C284.464 268.681 288.47 266.964 291.618 264.961C297.341 261.241 301.633 256.377 306.498 252.371C309.932 249.795 313.652 247.506 317.944 246.934C320.233 246.648 322.522 246.648 324.812 247.792C327.959 248.937 329.676 251.512 329.962 253.801C329.962 254.374 330.535 254.66 330.821 254.088C333.11 250.368 346.273 230.909 347.418 228.906C347.704 228.334 347.99 228.048 348.849 228.048C351.71 228.048 355.43 228.048 358.005 228.048C358.864 229.192 358.864 229.478 358.864 229.764Z" fill="white"/>
</svg>
