<svg width="501" height="485" viewBox="0 0 501 485" fill="none" xmlns="http://www.w3.org/2000/svg">
<path d="M500.717 242.409C500.717 376.243 388.788 484.736 250.717 484.736C112.646 484.736 0.717285 376.243 0.717285 242.409C0.717285 108.575 112.646 0.0814209 250.717 0.0814209C388.788 0.0814209 500.717 108.575 500.717 242.409Z" fill="#0671D8"/>
<path d="M176.523 142.409C162.271 142.409 150.717 153.963 150.717 168.215V316.601C150.717 330.853 162.271 342.407 176.523 342.407H324.909C339.161 342.407 350.715 330.853 350.715 316.601V168.215C350.715 153.963 339.161 142.409 324.909 142.409H176.523ZM176.523 155.312H324.909C332.035 155.312 337.812 161.089 337.812 168.215V316.601C337.812 323.727 332.035 329.504 324.909 329.504H176.523C169.397 329.504 163.62 323.727 163.62 316.601V168.215C163.62 161.089 169.397 155.312 176.523 155.312Z" fill="white"/>
<path d="M241.039 277.891V290.795H312.006V277.891H241.039Z" fill="white"/>
<path d="M241.039 194.021V263.375H255.555V206.924H270.071V263.375H284.587V206.924H294.264C296.937 206.924 299.103 209.091 299.103 211.763V263.375H313.619V210.15C313.619 201.242 306.398 194.021 297.49 194.021H241.039Z" fill="white"/>
<path d="M203.943 194.021C195.035 194.021 187.814 201.242 187.814 210.15V247.247C187.814 256.154 195.035 263.375 203.943 263.375H216.846V266.601C216.846 272.837 211.069 277.891 203.943 277.891H195.878V290.795H203.943C219.086 290.795 231.362 279.963 231.362 266.601V194.021H203.943ZM207.168 206.924H216.846V250.472H207.168C204.496 250.472 202.33 248.306 202.33 245.634V211.763C202.33 209.091 204.496 206.924 207.168 206.924Z" fill="white"/>
</svg>
