<svg width="501" height="485" viewBox="0 0 501 485" fill="none" xmlns="http://www.w3.org/2000/svg">
<path d="M500.704 242.409C500.704 376.243 388.775 484.736 250.704 484.736C112.633 484.736 0.704102 376.243 0.704102 242.409C0.704102 108.575 112.633 0.0814209 250.704 0.0814209C388.775 0.0814209 500.704 108.575 500.704 242.409Z" fill="white"/>
<path d="M213.092 141.742C205.359 143.342 201.092 146.542 199.892 151.476C199.359 153.876 198.959 162.009 199.092 169.742C199.492 201.076 209.892 242.809 220.292 255.076C227.092 262.942 234.025 266.009 246.425 266.809C262.425 267.742 272.159 264.676 282.159 255.476L289.892 248.276L293.625 251.742C295.625 253.742 302.425 257.876 308.692 260.942C319.892 266.276 320.292 266.409 336.692 266.809C355.225 267.342 391.892 264.009 398.559 261.209C407.225 257.609 414.425 246.409 422.825 223.342C428.559 207.742 429.625 191.076 425.492 183.209C419.359 171.609 403.359 161.609 390.559 161.476C384.159 161.476 373.092 165.476 362.959 171.609C352.692 177.742 335.625 192.142 334.559 195.342C334.025 197.209 332.959 197.742 330.959 197.209C329.359 196.809 322.159 196.409 315.092 196.409H302.025L303.092 186.009C303.625 180.409 304.025 169.742 304.025 162.409V149.076L299.225 146.676C290.025 142.276 228.692 138.676 213.092 141.742ZM270.025 145.742C293.359 147.476 296.692 148.142 296.692 150.809C296.692 154.276 284.425 164.942 278.559 166.809C270.559 169.209 257.625 168.809 244.825 165.742C230.159 162.142 204.959 149.076 207.625 146.276C208.825 145.209 233.492 143.609 243.359 144.142C247.359 144.276 259.359 145.076 270.025 145.742ZM224.825 163.076C236.292 168.409 256.425 172.809 266.692 172.142C277.092 171.476 288.959 166.009 295.625 158.809L300.692 153.342V160.676C300.692 167.342 298.292 195.342 297.625 196.009C297.492 196.142 289.892 196.942 280.692 197.742C265.225 199.209 254.292 202.009 252.292 205.342C251.892 206.009 252.692 208.942 254.025 212.009C256.425 217.609 265.759 227.476 279.892 239.876L287.625 246.542L280.292 253.342C271.492 261.342 264.425 263.742 249.359 263.609C235.092 263.609 226.292 259.076 220.559 249.076C215.625 240.676 209.492 221.342 205.892 203.076C203.092 188.276 201.092 159.209 202.559 153.209L203.359 149.742L209.892 154.409C213.359 156.942 220.159 160.809 224.825 163.076ZM404.292 168.542C411.492 171.609 415.359 174.809 420.825 182.276C424.292 187.076 424.692 188.409 424.692 198.676C424.692 208.142 424.025 211.609 420.025 222.142C413.359 239.342 413.225 239.742 408.159 247.609C402.825 256.009 398.425 258.409 384.025 260.409C366.292 262.809 329.892 264.409 323.492 262.942C316.425 261.342 300.025 253.476 294.959 249.209C291.092 246.142 291.092 246.009 293.359 241.742C294.559 239.342 296.692 230.809 298.159 222.676C299.625 214.542 300.959 207.742 301.092 207.476C301.359 207.342 306.025 206.809 311.492 206.276C326.692 205.076 334.959 202.409 337.225 198.009C339.492 193.609 355.892 179.876 365.225 174.409C368.825 172.276 375.359 169.209 379.892 167.476C389.092 164.009 394.292 164.276 404.292 168.542ZM297.759 201.342C297.225 204.009 288.959 205.342 270.692 205.609C250.825 205.876 263.225 202.409 290.692 200.009C293.625 199.742 296.559 199.476 297.092 199.342C297.759 199.209 298.025 200.142 297.759 201.342ZM327.759 200.542C326.425 201.876 302.025 204.676 300.825 203.609C300.559 203.342 300.692 202.276 301.092 201.076C301.759 199.476 304.559 199.076 315.625 199.076C325.492 199.076 328.825 199.476 327.759 200.542ZM296.692 208.542C296.692 208.942 295.759 214.942 294.559 221.876C292.159 236.276 290.292 243.076 288.692 243.076C288.025 243.076 282.292 238.142 275.892 232.009C264.425 221.209 256.692 212.009 256.692 209.209C256.692 208.142 263.092 207.742 276.692 207.742C287.759 207.742 296.692 208.142 296.692 208.542Z" fill="black"/>
<path d="M385.092 172.542C381.225 173.076 375.492 174.942 372.159 176.942C366.025 180.542 354.825 193.209 356.025 195.209C356.425 195.742 358.959 196.676 361.759 197.209C364.425 197.609 370.292 200.009 374.692 202.409C395.492 213.609 407.625 220.942 408.825 223.209C411.225 227.742 413.625 225.876 416.692 217.342C420.025 208.409 421.492 197.209 420.159 191.742C419.092 187.609 410.825 178.276 405.892 175.742C400.159 172.676 392.559 171.609 385.092 172.542ZM402.825 177.876C406.025 179.342 410.425 182.676 412.692 185.209C416.025 189.076 416.692 190.942 416.692 196.676C416.692 204.409 412.959 217.742 410.825 217.742C410.025 217.742 404.025 214.676 397.359 210.942C374.292 197.609 369.359 195.076 366.692 195.076C360.559 194.942 360.292 193.076 365.625 187.076C375.625 175.876 390.959 172.009 402.825 177.876Z" fill="black"/>
<path d="M122.692 189.876C120.559 190.809 114.559 191.476 109.625 191.609C101.092 191.742 100.159 192.009 96.5586 196.142C93.7586 199.209 92.6919 201.876 92.6919 205.209C92.6919 215.476 95.4919 220.542 107.759 233.076C115.092 240.542 120.292 247.076 121.492 250.276C126.292 263.342 136.825 271.076 151.092 272.009C163.225 272.809 170.292 269.209 176.159 259.476C181.092 251.076 192.559 222.409 196.559 208.409C199.359 198.409 199.359 198.409 196.692 196.276C195.359 195.076 188.825 193.076 182.425 191.742C167.892 189.076 128.425 187.742 122.692 189.876ZM172.292 193.876C192.025 196.809 187.359 197.876 158.025 197.209C130.025 196.676 123.359 196.009 123.359 193.609C123.359 191.876 160.025 192.142 172.292 193.876ZM116.159 196.809C116.959 197.742 117.359 236.409 116.559 236.409C116.025 236.409 111.625 232.142 106.825 226.942C94.4252 213.609 92.4252 204.009 100.559 197.609C103.359 195.342 105.225 194.942 109.892 195.609C113.225 196.009 115.892 196.542 116.159 196.809ZM163.759 200.542C181.092 200.409 195.359 200.676 195.359 201.076C195.359 207.876 177.625 252.542 172.025 259.876C162.959 271.742 144.292 271.342 131.092 258.942C123.625 251.742 120.825 240.942 120.692 217.476C120.559 206.942 120.559 198.009 120.692 197.609C120.692 197.076 123.225 197.609 126.425 198.676C130.692 200.142 139.092 200.542 163.759 200.542Z" fill="black"/>
<path d="M95.2252 303.342C94.6919 305.876 95.2252 354.009 95.7586 354.542C96.1586 354.942 97.2252 354.942 98.1586 354.409C99.0919 353.742 99.4919 351.209 98.9586 346.942C98.1586 340.809 98.2919 340.542 101.759 339.876C103.759 339.476 108.692 339.076 112.692 338.809L120.025 338.542L120.692 345.076C121.092 348.942 122.159 351.742 123.225 352.142C124.692 352.676 124.959 351.476 124.292 345.609C123.759 341.609 123.359 331.342 123.359 322.676C123.359 311.076 122.959 307.076 121.759 307.076C120.425 307.076 120.025 310.676 119.892 320.409C119.892 327.742 119.625 334.009 119.225 334.276C118.959 334.676 114.025 335.342 108.292 335.876L98.0252 336.809V319.876C98.0252 309.609 97.4919 303.076 96.6919 303.076C96.0252 303.076 95.3586 303.209 95.2252 303.342Z" fill="black"/>
<path d="M172.425 310.676C171.225 312.009 169.759 314.276 168.959 315.876C167.225 319.209 163.492 340.142 164.425 341.076C166.159 342.809 167.092 341.209 167.892 335.342C169.359 324.942 169.759 324.409 174.692 324.409C179.492 324.409 179.225 324.009 181.492 336.676C182.292 341.742 183.892 343.209 184.959 340.009C185.892 337.742 180.825 312.142 179.092 310.142C177.225 307.742 174.825 308.009 172.425 310.676ZM177.225 314.542C178.825 318.676 178.025 320.409 174.692 320.409C171.092 320.409 170.559 319.076 172.692 314.942C174.425 311.876 176.159 311.742 177.225 314.542Z" fill="black"/>
<path d="M340.159 317.209C339.759 318.409 339.359 325.209 339.359 332.409C339.359 339.742 338.825 346.009 338.025 346.409C337.359 346.809 336.692 346.542 336.692 345.742C336.692 344.809 334.025 338.542 330.692 331.609C321.625 312.809 318.825 314.676 317.759 340.142C317.359 350.542 317.625 354.942 318.559 354.676C320.425 354.009 321.759 345.076 321.892 333.076C322.025 328.009 322.559 324.409 323.092 325.076C323.759 325.876 326.425 331.476 329.359 337.742C335.759 351.876 337.225 353.742 340.159 350.809C341.759 349.209 342.425 344.809 342.959 331.876C343.492 320.676 343.225 315.076 342.425 315.076C341.625 315.076 340.559 316.009 340.159 317.209Z" fill="black"/>
<path d="M250.159 320.942C244.692 326.676 237.759 356.276 242.159 354.809C243.225 354.409 244.159 352.809 244.425 350.942C244.559 349.209 245.359 344.542 246.159 340.676C247.225 335.076 248.292 333.342 250.825 332.276C256.692 330.142 260.559 330.809 261.359 334.009C261.759 335.742 262.825 340.676 263.759 344.942C265.492 352.942 268.692 356.676 268.692 350.809C268.692 347.076 262.559 324.009 260.692 320.276C258.692 316.809 253.759 317.076 250.159 320.942ZM258.559 323.876C260.025 327.742 259.359 328.409 254.692 328.409C249.625 328.409 249.359 328.142 251.359 324.276C253.092 321.209 257.492 320.942 258.559 323.876Z" fill="black"/>
<path d="M402.425 333.876C402.959 340.009 403.359 347.876 403.359 351.342C403.359 359.076 404.292 359.342 416.159 353.742C428.292 347.876 433.492 339.076 429.492 331.209C427.092 326.676 421.892 324.542 410.159 323.476L401.625 322.676L402.425 333.876ZM422.959 330.009C431.092 333.876 426.559 344.009 413.892 350.542L407.359 353.742L407.225 347.476C407.225 343.876 406.692 337.876 406.159 333.876L405.092 326.809L412.159 327.476C416.025 327.876 420.959 328.942 422.959 330.009Z" fill="black"/>
</svg>
