<svg width="501" height="501" viewBox="0 0 501 501" fill="none" xmlns="http://www.w3.org/2000/svg">
<path d="M500.662 250.081C500.662 388.153 388.733 500.081 250.662 500.081C112.591 500.081 0.662109 388.153 0.662109 250.081C0.662109 112.01 112.591 0.0814209 250.662 0.0814209C388.733 0.0814209 500.662 112.01 500.662 250.081Z" fill="#3C93CB"/>
<path d="M159.485 231.061H168.08L167.645 237.196H159.049L159.485 231.061ZM392.784 260.622C397.034 260.622 397.305 256.725 397.531 253.561C395.616 253.561 393.8 253.466 392.512 254.079C391.128 254.742 390.091 255.878 389.974 257.531C389.855 259.232 391.062 260.622 392.784 260.622ZM396.734 262.233H396.638C394.687 264.022 392.843 265.324 389.33 265.324C383.631 265.324 381.237 262.123 381.237 257.93C381.237 253.204 386.144 250.17 394.861 250.17H397.737C397.884 248.092 398.617 244.663 395.006 244.663C392.444 244.663 391.821 247.066 391.769 248.223H383.49C383.679 245.129 385.033 243.062 387.552 241.976C390.124 240.844 393.255 240.559 395.939 240.559C400.822 240.559 406.815 242.957 406.411 248.838L405.731 260.244C405.663 261.236 405.648 262.275 405.783 265.109H397.199L396.734 262.233ZM435.72 251.906L444.329 241.338H454.662L445.391 251.386L454.179 265.13H442.981L435.72 251.906ZM425.68 265.13L428.1 231.055H437.201L434.781 265.13H425.68ZM278.143 244.874H278.238C280.573 241.908 283.263 241.416 286.225 241.416L285.687 249.02C285.075 248.975 284.453 248.975 283.829 248.975C277.831 248.975 277.646 252.364 277.423 256.29L276.883 265.135H267.547L268.794 247.516C268.946 245.388 268.998 243.972 268.939 241.357H277.839L278.143 244.874ZM285.545 265.125L287.963 231.048H296.772L294.355 265.125H285.545ZM221.816 253.577C221.676 256.476 222.415 260.567 225.71 260.567C229.9 260.567 230.932 256.45 231.087 253.154C231.223 250.241 230.64 245.92 227.085 245.932C222.545 245.944 221.968 250.429 221.816 253.577ZM214.599 231.051H223.62L222.653 244.636H222.827C224.652 242.51 227.187 240.735 230.435 240.735C237.811 240.735 240.652 247.139 240.25 252.919C239.842 258.79 236.733 265.474 228.495 265.474C225.718 265.474 223.02 263.967 221.773 262.207H221.581L221.04 265.104H212.18L214.599 231.051ZM258.775 250.318C258.864 249.041 258.571 247.767 257.923 246.774C257.276 245.78 256.294 245.169 254.897 245.265C251.726 245.406 250.88 247.625 250.453 250.318H258.775ZM250.024 254.798C249.758 258.076 250.518 260.72 253.917 260.72C256.457 260.72 258.057 259.053 258.057 257.503H266.489C266.298 260.39 264.258 262.636 261.865 263.959C259.663 265.282 257.139 265.516 254.435 265.516C244.614 265.516 240.817 261.496 241.425 252.486C241.929 244.975 248.063 240.532 255.296 240.645C264.971 240.798 268.083 246.415 267.161 254.798H250.024ZM123.673 231.061H133.798L131.372 265.128H121.248L123.673 231.061ZM145.001 231.061L132.897 246.196L143.682 265.128H155.812L143.721 245.702L156.444 231.061H145.001ZM158.646 241.353H167.241L165.555 265.121H156.96L158.646 241.353ZM178.126 241.353L178.123 244.564H178.218C180.9 241.102 184.592 240.792 186.861 240.792C190.145 240.792 193.505 242.584 194.182 244.989C196.041 242.146 199.357 240.743 203.013 240.649C208.27 240.649 211.926 243.965 211.548 249.224L210.406 265.124H201.157L202.161 251.167C202.284 248.903 202.099 246.335 199.081 246.335C194.651 246.335 194.824 251.213 194.779 251.498L193.83 265.129H184.554L185.581 251.167C185.625 248.845 185.319 246.335 182.385 246.335C177.712 246.335 177.811 251.213 177.815 251.498L176.855 265.137H167.32L168.996 241.355L178.126 241.353ZM308.455 276.563H300.088L305.48 265.51L296.646 241.353H306.904L310.886 256.104L317.213 241.353H325.678L308.455 276.563ZM325.947 246.132H337.6L333.875 253.569H322.222L325.947 246.132ZM356.315 230.15C363.436 230.15 370.712 233.217 370.397 241.747H360.588C360.588 239.511 359.266 236.963 355.945 236.963C352.623 236.963 348.719 239.406 348.038 246.481C347.351 253.554 348.246 258.909 354.047 258.909C359.057 258.909 360.061 254.644 360.164 253.813H369.895C369.895 257.611 366.703 265.463 353.52 265.463C339.598 265.463 337.119 255.478 338.276 246.168C339.251 238.372 344.872 230.15 356.315 230.15ZM370.575 265.125L372.996 231.048H381.805L379.384 265.125H370.575ZM417.905 244.874H418C420.337 241.908 423.025 241.416 426.042 241.416L425.502 249.02C424.836 248.975 424.211 248.975 423.59 248.975C417.592 248.975 417.409 252.364 417.184 256.29L416.644 265.135H407.308L408.556 247.516C408.707 245.388 408.76 243.972 408.699 241.357H417.6L417.905 244.874Z" fill="#414749"/>
<path d="M75.519 270.859C60.8281 270.859 48.9741 260.81 48.9741 248.366C48.9741 235.918 60.8267 225.87 75.5176 225.87C90.2058 225.87 102.06 235.918 102.06 248.366C102.06 260.81 90.2058 270.859 75.5176 270.859H75.519ZM46.6621 248.37C46.6621 262.05 59.5755 273.138 75.5081 273.138C91.4407 273.138 104.354 262.05 104.354 248.37C104.354 234.69 91.438 223.601 75.5081 223.601C59.5415 223.6 46.6621 234.69 46.6621 248.37Z" fill="#414749"/>
<path d="M79.2413 262.805V251.867C81.3127 256.441 84.9738 257.449 87.9427 257.449H96.1804V252.549H90.4139C87.4423 252.549 86.5106 250.371 86.5106 249.12C86.5106 246.089 89.0022 243.783 92.7123 240.542H86.1434C83.301 242.381 80.5238 245.294 79.2481 248.564V233.421H71.7857V248.564C70.5114 245.294 67.7342 242.381 64.8932 240.543H58.3175C62.0303 243.783 64.5191 246.089 64.5191 249.12C64.5191 250.369 63.5903 252.546 60.6173 252.546H54.8549V257.448H63.0911C66.0587 257.448 69.7171 256.441 71.7912 251.867V262.805H79.2413ZM69.3975 265.16V258.266C68.8086 258.66 67.3439 259.797 64.3274 259.797H52.4748V250.185H59.789C61.6196 250.185 61.7352 249.108 61.7352 248.782C61.7352 246.006 56.9017 242.164 51.5378 238.179L65.9132 238.152C66.7917 238.791 68.1749 239.758 69.4057 241.126V231.03H81.6268V241.126C82.859 239.758 84.2408 238.79 85.1193 238.152L99.4961 238.179C94.1295 242.166 89.2973 246.006 89.2973 248.782C89.2973 249.108 89.4129 250.185 91.2435 250.185H98.5577V259.797H86.7051C83.6886 259.797 82.2252 258.66 81.635 258.269V265.16H69.3975Z" fill="#414749"/>
</svg>
