<svg width="501" height="501" viewBox="0 0 501 501" fill="none" xmlns="http://www.w3.org/2000/svg">
<path d="M500.366 250.081C500.366 388.153 388.437 500.081 250.366 500.081C112.295 500.081 0.366211 388.153 0.366211 250.081C0.366211 112.01 112.295 0.0814209 250.366 0.0814209C388.437 0.0814209 500.366 112.01 500.366 250.081Z" fill="white"/>
<path d="M403.66 200.094C404.664 200.023 405.557 199.816 406.342 199.471C407.123 199.13 407.752 198.605 408.213 197.885C408.682 197.173 408.915 196.173 408.915 194.898C408.915 193.821 408.701 192.959 408.291 192.316C407.887 191.692 407.329 191.183 406.671 190.839C405.957 190.48 405.186 190.245 404.392 190.145C404.023 190.088 403.657 190.053 403.293 190.023H395.247V200.202H400.464C401.591 200.202 402.655 200.168 403.66 200.094ZM384.777 218.789C386.81 220.903 389.212 222.56 391.98 223.767C394.746 224.972 397.746 225.571 400.975 225.571C404.165 225.571 407.124 224.971 409.868 223.767C412.561 222.597 414.996 220.906 417.035 218.789C419.065 216.678 420.659 214.181 421.812 211.306C422.961 208.427 423.541 205.293 423.541 201.899C423.541 198.609 422.961 195.536 421.812 192.683C421.437 191.771 421.006 190.882 420.522 190.023H412.703C413.501 191.383 413.911 193.075 413.911 195.117C413.911 198.017 413.104 200.147 411.484 201.493C409.868 202.846 407.864 203.647 405.459 203.894L414.647 218.125H409.279L400.539 204.261H395.248V218.125H390.256V190.023H381.29C380.807 190.883 380.377 191.772 380.003 192.685C378.854 195.536 378.275 198.609 378.275 201.9C378.275 205.296 378.852 208.43 380.003 211.307C381.151 214.181 382.746 216.678 384.777 218.789ZM191.156 245.176C184.192 245.176 180.503 250.635 180.425 256.223H202.812C202.812 249.635 198.658 245.176 191.156 245.176ZM425.816 190.023C425.984 190.371 426.171 190.703 426.328 191.061C427.795 194.406 428.533 198.019 428.533 201.899C428.533 205.89 427.796 209.56 426.328 212.931C424.861 216.289 422.879 219.217 420.376 221.698C417.87 224.187 414.899 226.155 411.634 227.489C408.304 228.865 404.752 229.555 400.973 229.555C397.203 229.555 393.638 228.866 390.288 227.489C386.999 226.157 384.002 224.19 381.468 221.698C378.946 219.215 376.951 216.288 375.484 212.931C374.014 209.56 373.276 205.89 373.276 201.899C373.276 198.019 374.013 194.406 375.484 191.061C375.641 190.703 375.829 190.371 375.998 190.023H49.8662L88.4251 354.977C169.381 302.727 247.186 352.94 250.315 354.855H250.324C250.331 354.849 250.339 354.845 250.348 354.841H250.387C250.393 354.845 250.404 354.849 250.41 354.855H250.423C253.546 352.94 331.356 302.727 412.31 354.977L450.866 190.023H425.816ZM155.824 290.168H103.119V235.075H126.814V275.178H155.824V290.168ZM226.713 267.311H180.466C180.466 274.482 186.515 279.891 194.577 279.891C199.371 279.891 203.738 278.3 206.824 273.994H225.266C219.238 287.894 207.546 291.846 191.606 291.846C170.876 291.846 156.219 280.581 156.219 262.737C156.219 243.678 170.657 233.624 191.606 233.624C215.044 233.624 226.795 248.866 226.795 263.537C226.794 264.761 226.889 265.984 226.713 267.311ZM269.614 290.256H249.645L219.83 235.029H246.736L263.845 268.6L264.316 269.612L264.745 268.6L280.746 235.028H296.902L269.614 290.256ZM322.272 290.149H299.417V234.926H322.272V290.149ZM339.442 241.847L332.557 249.363H329.694L332.85 241.168H326.542V230.241H339.442V241.847ZM369.437 291.722C345.014 291.722 340.569 277.561 340.569 274.053H358.254C358.254 276.115 361.036 278.586 363.385 279.591C365.317 280.422 367.47 280.585 369.485 280.585C374.464 280.585 378.55 279.373 378.55 276.471C378.55 272.937 374.367 272.154 369.752 271.489C357.194 269.672 339.595 267.555 339.595 253.457C339.595 240.308 353.901 233.615 369.089 233.615C393.402 233.615 399.847 247.132 399.847 251.047H381.874C381.874 249.878 380.987 247.635 378.537 246.352C376.719 245.399 374.047 244.628 371.464 244.628C364.748 244.628 360.97 246.031 360.97 249.119C360.97 251.642 364.376 252.892 369.267 253.734C382.031 255.933 401.632 256.694 401.632 272.284C401.631 280.203 394.798 291.722 369.437 291.722Z" fill="#A8112E"/>
</svg>
