<svg width="501" height="501" viewBox="0 0 501 501" fill="none" xmlns="http://www.w3.org/2000/svg">
<path d="M500.204 250.409C500.204 388.48 388.275 500.409 250.204 500.409C112.133 500.409 0.204102 388.48 0.204102 250.409C0.204102 112.338 112.133 0.408936 250.204 0.408936C388.275 0.408936 500.204 112.338 500.204 250.409Z" fill="#242B6D"/>
<path d="M170.324 241.503C172.294 233.241 175.282 225.584 178.686 218.102C182.411 209.907 186.471 201.874 191.617 194.459C198.304 184.841 207.911 181.161 219.06 183.914C219.77 184.089 220.467 184.357 221.673 184.747C218.806 187.178 216.233 189.408 213.606 191.584C213.325 191.826 212.829 191.947 212.441 191.92C206.839 191.437 202.927 194.54 199.201 198.1C193.091 203.983 188.254 210.848 183.832 218.021C180.79 222.965 177.895 227.989 174.947 232.986C174.586 233.604 174.358 234.316 173.862 235.444C175.47 234.92 176.046 233.886 176.77 233.093C193.614 214.717 211.302 197.199 230.799 181.617C238.772 175.25 247.361 169.836 256.915 166.115C267.796 161.884 277.471 164.194 286.221 171.596C291.862 176.378 296.405 182.088 300.358 188.28C311.158 205.192 318.863 223.515 324.96 242.564C325.027 242.792 325.001 243.047 325.068 243.853C294.864 226.471 264.768 209.625 232.326 196.837C234.698 194.768 237.244 193.264 239.83 191.853C241.076 191.168 242.189 192.404 243.261 192.914C261.578 201.606 279.146 211.627 296.03 222.844C304.217 228.284 312.204 234.034 320.284 239.635C320.967 240.106 321.637 240.562 322.294 241.006C322.736 240.616 322.589 240.307 322.428 240.012C313.49 223.663 303.467 208.027 291.474 193.734C286.77 188.119 281.692 182.84 275.179 179.199C270.757 176.728 266.215 176.177 261.337 177.587C250.537 180.717 241.036 186.426 231.83 192.632C214.598 204.252 198.33 217.175 182.652 230.81C178.552 234.383 174.411 237.902 170.284 241.462L170.324 241.503ZM174.277 235.484C174.264 235.216 174.143 235.162 173.942 235.296C173.808 235.377 173.688 235.485 173.554 235.579C173.741 235.673 173.916 235.78 174.103 235.874C174.17 235.74 174.224 235.605 174.277 235.484Z" fill="#DE7F26"/>
<path d="M238.558 262.648C234.256 268.115 229.968 273.569 225.667 279.037C221.097 284.853 216.528 290.67 211.945 296.487C210.056 298.878 209.466 298.878 207.577 296.527C199.162 286.035 190.733 275.544 182.318 265.053C181.648 264.22 180.951 263.4 179.933 262.178C179.879 263.481 179.812 264.341 179.799 265.214C179.799 278.943 179.745 292.658 179.852 306.387C179.866 308.563 179.236 309.168 177.186 308.966C175.35 308.792 173.474 308.792 171.651 308.966C169.507 309.181 168.837 308.577 168.851 306.266C168.958 287.231 168.918 268.209 168.918 249.174C168.918 244.029 168.945 244.338 173.956 243.935C178.271 243.586 180.911 245.104 183.497 248.556C191.336 259.075 199.617 269.244 207.644 279.628C208.997 281.374 209.64 281.844 211.262 279.735C220.025 268.33 228.977 257.087 237.794 245.722C238.772 244.459 239.75 243.882 241.345 243.989C243.516 244.123 245.727 244.164 247.897 243.989C249.76 243.841 250.055 244.567 250.055 246.259C250.001 266.383 249.988 286.506 250.055 306.629C250.055 308.536 249.586 309.127 247.71 308.98C245.619 308.805 243.502 308.818 241.412 308.98C239.63 309.114 239.174 308.509 239.187 306.75C239.268 295.801 239.228 284.853 239.228 273.919C239.228 270.238 239.228 266.544 239.228 262.863C239.013 262.796 238.812 262.742 238.598 262.675L238.558 262.648Z" fill="white"/>
<path d="M266.148 276.323C266.148 266.302 266.188 256.281 266.108 246.259C266.094 244.54 266.456 243.976 268.292 243.989C281.397 244.083 294.516 243.989 307.621 244.097C313.088 244.137 318.328 245.426 322.803 248.718C330.16 254.104 332.063 261.708 330.548 270.238C329.074 278.62 323.607 283.591 315.648 285.995C311.829 287.15 307.889 287.352 303.936 287.365C295.695 287.392 287.467 287.419 279.226 287.339C277.484 287.325 276.935 287.755 276.962 289.568C277.082 295.372 276.962 301.188 277.042 307.005C277.069 308.577 276.573 309.087 275.046 308.966C272.138 308.738 269.19 309.275 266.282 308.657C266.242 305.89 266.148 303.109 266.148 300.342C266.135 292.336 266.148 284.343 266.148 276.337V276.323ZM293.953 276.444C293.953 276.444 293.953 276.404 293.953 276.39C299.152 276.39 304.365 276.565 309.564 276.35C315.835 276.081 319.748 272.428 320.096 266.96C320.498 260.66 317.497 256.576 311.427 255.3C310.033 255.004 308.599 254.816 307.179 254.816C297.772 254.776 288.365 254.816 278.972 254.749C277.417 254.749 276.962 255.206 276.975 256.751C277.056 262.729 277.056 268.706 276.975 274.671C276.962 276.135 277.444 276.498 278.838 276.484C283.876 276.417 288.915 276.458 293.953 276.458V276.444Z" fill="white"/>
<path d="M187.034 324.265C185.091 326.549 183.041 328.766 181.232 331.143C180.093 332.634 179.436 332.943 178.163 331.237C176.341 328.792 174.224 326.549 171.745 323.634C171.745 327.449 171.785 330.525 171.718 333.602C171.704 334.609 172.348 336.073 170.257 336.033C168.328 335.993 168.931 334.663 168.917 333.722C168.864 329.854 168.864 325.971 168.917 322.103C168.917 321.364 168.368 320.182 169.493 319.94C170.646 319.698 171.919 319.456 172.91 320.746C174.76 323.15 176.81 325.38 178.646 327.785C179.517 328.927 180.039 328.779 180.843 327.785C182.692 325.488 184.689 323.325 186.471 320.988C187.409 319.738 188.615 319.617 189.808 319.9C191.228 320.249 190.464 321.592 190.478 322.452C190.572 326.401 190.518 330.364 190.518 334.327C190.518 335.267 190.692 336.114 189.191 336.114C187.771 336.114 187.543 335.523 187.557 334.3C187.624 331.036 187.583 327.771 187.583 324.507C187.396 324.44 187.222 324.359 187.034 324.292V324.265Z" fill="white"/>
<path d="M237.981 336.048C235.971 336.048 233.948 335.967 231.938 336.075C230.491 336.155 229.834 335.846 229.888 334.181C230.008 329.976 229.968 325.771 229.901 321.567C229.888 320.291 230.209 319.78 231.576 319.807C235.69 319.888 239.804 319.834 243.904 319.834C244.722 319.834 245.606 319.632 245.566 321.016C245.526 322.238 244.882 322.306 243.944 322.292C240.755 322.252 237.566 322.4 234.377 322.238C232.487 322.144 232.662 323.206 232.635 324.428C232.608 325.718 232.608 326.698 234.417 326.564C236.668 326.403 238.946 326.483 241.211 326.55C242.135 326.577 243.556 325.906 243.489 327.853C243.435 329.868 241.934 328.942 241.09 328.982C238.826 329.116 236.561 329.13 234.296 328.995C232.286 328.874 232.729 330.231 232.729 331.306C232.729 332.394 232.273 333.71 234.296 333.63C237.486 333.495 240.675 333.576 243.864 333.616C244.748 333.616 245.981 333.133 245.941 334.893C245.901 336.733 244.561 335.954 243.77 336.008C241.841 336.115 239.911 336.048 237.981 336.048Z" fill="white"/>
<path d="M261.525 330.203C263.159 332.151 264.647 333.924 266.201 335.791C264.138 336.436 262.717 335.993 261.685 334.34C261.283 333.709 260.627 333.225 260.292 332.567C258.469 329.007 255.2 330.163 252.332 330.055C251.475 330.028 251.515 330.713 251.515 331.304C251.515 332.393 251.461 333.494 251.515 334.582C251.582 335.657 251.233 336.046 250.108 336.046C248.942 336.046 248.714 335.536 248.714 334.528C248.741 330.149 248.754 325.783 248.714 321.404C248.701 320.209 249.063 319.779 250.282 319.819C253.217 319.886 256.151 319.819 259.099 319.846C263.066 319.873 265.156 321.135 265.799 323.862C266.456 326.643 265.411 328.242 261.538 330.216L261.525 330.203ZM256.419 322.398C256.419 322.398 256.419 322.358 256.419 322.331C255.414 322.331 254.409 322.425 253.418 322.304C251.917 322.143 251.22 322.6 251.461 324.212C251.568 324.951 251.515 325.716 251.461 326.468C251.421 327.274 251.662 327.745 252.573 327.718C255.32 327.637 258.081 327.651 260.828 327.489C262.248 327.409 263.106 326.563 263.119 325.031C263.133 323.365 262.154 322.559 260.667 322.425C259.26 322.291 257.826 322.398 256.406 322.398H256.419Z" fill="white"/>
<path d="M322.173 319.834C324.357 319.699 326.622 320.264 328.712 321.432C329.208 321.701 330.508 321.795 329.637 322.937C329.141 323.595 328.632 324.132 327.573 323.488C324.853 321.835 321.865 321.688 318.823 322.4C317.764 322.641 316.545 322.95 316.572 324.347C316.599 325.637 317.751 325.865 318.743 326C321.235 326.349 323.741 326.564 326.22 326.98C327.962 327.276 329.731 327.719 330.655 329.479C331.66 331.386 330.749 333.831 328.337 334.852C323.54 336.908 318.836 336.397 314.361 333.804C313.852 333.509 313.021 333.16 313.744 332.286C314.307 331.601 314.776 331.104 315.795 331.803C318.635 333.751 321.811 334.207 325.175 333.59C326.541 333.334 328.029 332.998 328.069 331.346C328.109 329.667 326.555 329.586 325.322 329.412C323.004 329.063 320.659 328.834 318.354 328.431C316.947 328.189 315.567 327.719 314.548 326.631C313.101 325.1 313.543 322.816 315.473 321.419C316.893 320.398 319.104 319.861 322.2 319.834H322.173Z" fill="white"/>
<path d="M294.503 335.778C292.453 336.476 291.233 335.939 290.657 334.031C290.175 332.446 289.143 331.828 287.441 332.016C285.954 332.178 284.426 332.164 282.925 332.016C280.54 331.788 278.718 332.218 277.914 334.851C277.404 336.557 275.944 335.899 274.43 335.818C277.23 330.579 279.924 325.488 282.697 320.45C283.274 319.416 285.753 319.456 286.329 320.504C289.089 325.555 291.769 330.646 294.49 335.764L294.503 335.778ZM284.493 322.291C283.368 324.454 282.429 326.307 281.424 328.134C280.714 329.437 281.277 329.719 282.496 329.693C283.836 329.652 285.177 329.639 286.503 329.693C288.111 329.76 288.138 329.142 287.454 327.933C286.476 326.186 285.592 324.4 284.493 322.291Z" fill="white"/>
<path d="M192.582 336.155C195.543 330.621 198.197 325.597 200.93 320.626C201.573 319.458 204.079 319.377 204.722 320.532C207.496 325.57 210.149 330.674 212.883 335.793C210.779 336.478 209.573 335.846 208.943 334.019C208.421 332.488 207.416 331.83 205.701 332.031C204.213 332.206 202.672 332.179 201.185 332.031C198.813 331.816 196.95 332.179 196.2 334.852C195.691 336.639 194.203 335.725 192.595 336.155H192.582ZM206.598 329.586C205.272 326.967 204.133 324.723 202.86 322.225C201.721 324.401 200.756 326.255 199.751 328.109C199.202 329.13 199.322 329.64 200.622 329.6C202.444 329.546 204.28 329.6 206.598 329.6V329.586Z" fill="white"/>
<path d="M219.208 319.834C221.553 319.834 223.898 319.834 226.243 319.834C227.02 319.834 227.743 319.78 227.717 320.962C227.703 321.997 227.234 322.292 226.323 322.238C226.162 322.238 225.988 322.238 225.814 322.238C222.142 322.373 220.306 324.271 220.306 327.934C220.306 330.124 220.306 332.3 220.306 334.49C220.306 335.376 220.347 336.061 219.047 336.088C217.653 336.128 217.626 335.443 217.64 334.409C217.68 331.051 217.573 327.679 217.693 324.334C217.747 322.735 217.345 322.023 215.63 322.211C214.384 322.346 213.111 322.198 211.864 322.252C210.926 322.292 210.511 321.997 210.484 321.002C210.444 319.874 211.06 319.82 211.905 319.834C214.33 319.861 216.769 319.834 219.194 319.834H219.208Z" fill="white"/>
<path d="M296.928 327.597C296.928 325.582 296.954 323.567 296.928 321.552C296.914 320.544 296.914 319.792 298.321 319.792C299.648 319.792 299.809 320.41 299.795 321.498C299.755 324.695 299.943 327.892 299.728 331.076C299.581 333.293 300.371 333.763 302.395 333.628C304.901 333.454 307.42 333.615 309.939 333.575C310.944 333.561 311.48 333.776 311.467 334.958C311.467 336.154 310.743 336.06 309.979 336.06C306.12 336.06 302.261 336.02 298.402 336.087C297.102 336.114 296.887 335.536 296.914 334.421C296.968 332.151 296.928 329.881 296.928 327.61V327.597Z" fill="white"/>
<path d="M272.097 327.96C272.097 330.149 272.071 332.339 272.111 334.529C272.138 335.523 271.977 336.087 270.771 336.073C269.672 336.06 269.31 335.684 269.324 334.609C269.364 330.149 269.364 325.676 269.324 321.216C269.324 320.074 269.779 319.819 270.824 319.792C272.097 319.752 272.124 320.464 272.111 321.391C272.084 323.58 272.111 325.77 272.111 327.96H272.097Z" fill="white"/>
<path d="M174.277 235.484C174.224 235.605 174.157 235.74 174.103 235.874C173.916 235.78 173.741 235.673 173.554 235.579C173.688 235.485 173.808 235.377 173.942 235.296C174.143 235.162 174.264 235.229 174.277 235.484Z" fill="#303030"/>
</svg>
