<svg width="501" height="501" viewBox="0 0 501 501" fill="none" xmlns="http://www.w3.org/2000/svg">
<path d="M500.285 250.409C500.285 388.48 388.356 500.409 250.285 500.409C112.214 500.409 0.285156 388.48 0.285156 250.409C0.285156 112.338 112.214 0.408936 250.285 0.408936C388.356 0.408936 500.285 112.338 500.285 250.409Z" fill="#77B900"/>
<path d="M433.585 369.358C433.585 373.059 430.859 375.543 427.632 375.543V375.521C424.313 375.543 421.638 373.059 421.638 369.359C421.638 365.661 424.313 363.184 427.632 363.184C430.86 363.183 433.585 365.66 433.585 369.358ZM436 369.358C436 364.279 432.042 361.331 427.632 361.331C423.191 361.331 419.234 364.279 419.234 369.358C419.234 374.434 423.192 377.394 427.632 377.394C432.042 377.394 436 374.434 436 369.358ZM426.244 370.038H427.14L429.216 373.672H431.495L429.195 369.884C430.384 369.8 431.361 369.237 431.361 367.642C431.361 365.66 429.99 365.024 427.669 365.024H424.311V373.672H426.242L426.244 370.038ZM426.244 368.573V366.492H427.587C428.317 366.492 429.313 366.551 429.313 367.439C429.313 368.405 428.798 368.573 427.936 368.573H426.244ZM379.647 325.115L390.081 353.568H368.891L379.647 325.115ZM368.474 314.036L344.43 374.765H361.407L365.21 364.033H393.664L397.263 374.765H415.694L391.472 314.028L368.474 314.036ZM320.202 374.788H337.427V314.018L320.199 314.014L320.202 374.788ZM200.622 314.014L186.251 362.179L172.484 314.018L153.899 314.014L173.56 374.788H198.376L218.196 314.014H200.622ZM270.249 327.247H277.653C288.392 327.247 295.34 332.054 295.34 344.528C295.34 357.005 288.392 361.813 277.653 361.813H270.249V327.247ZM253.168 314.014V374.788H281.092C295.971 374.788 300.83 372.322 306.083 366.792C309.794 362.909 312.194 354.385 312.194 345.07C312.194 336.525 310.163 328.907 306.622 324.161C300.242 315.674 291.051 314.014 277.334 314.014H253.168ZM90 313.929V374.788H107.371V328.578L120.83 328.582C125.287 328.582 128.464 329.689 130.61 331.974C133.332 334.864 134.444 339.53 134.444 348.065V374.788H151.276V341.163C151.276 317.165 135.932 313.929 120.919 313.929H90ZM225.446 314.014L225.453 374.788H242.67V314.014H225.446Z" fill="black"/>
<path d="M136.292 193.007C136.292 193.007 158.447 160.421 202.682 157.05V145.228C153.686 149.151 111.258 190.519 111.258 190.519C111.258 190.519 135.288 259.77 202.682 266.112V253.546C153.225 247.344 136.292 193.007 136.292 193.007ZM202.682 228.556V240.065C165.304 233.42 154.928 194.688 154.928 194.688C154.928 194.688 172.875 174.868 202.682 171.654V184.282C202.659 184.282 202.643 184.275 202.625 184.275C186.981 182.404 174.759 196.972 174.759 196.972C174.759 196.972 181.609 221.498 202.682 228.556ZM202.682 123.424V145.228C204.12 145.118 205.558 145.025 207.005 144.976C262.708 143.105 299.002 190.519 299.002 190.519C299.002 190.519 257.317 241.049 213.888 241.049C209.908 241.049 206.182 240.681 202.682 240.063V253.546C205.777 253.943 208.895 254.143 212.016 254.147C252.429 254.147 281.655 233.572 309.954 209.22C314.646 212.966 333.855 222.079 337.804 226.068C310.896 248.526 248.187 266.629 212.635 266.629C209.208 266.629 205.917 266.423 202.682 266.112V285.058H356.29V123.424H202.682ZM202.682 171.654V157.05C204.105 156.951 205.54 156.876 207.005 156.829C247.061 155.575 273.34 191.144 273.34 191.144C273.34 191.144 244.956 230.441 214.522 230.441C210.142 230.441 206.215 229.739 202.681 228.555V184.281C218.275 186.159 221.413 193.026 230.788 208.606L251.64 191.079C251.64 191.079 236.419 171.179 210.761 171.179C207.971 171.178 205.302 171.375 202.682 171.654Z" fill="black"/>
</svg>
