<svg width="501" height="501" viewBox="0 0 501 501" fill="none" xmlns="http://www.w3.org/2000/svg">
<path d="M500.555 250.081C500.555 388.153 388.626 500.081 250.555 500.081C112.484 500.081 0.554688 388.153 0.554688 250.081C0.554688 112.01 112.484 0.0814209 250.555 0.0814209C388.626 0.0814209 500.555 112.01 500.555 250.081Z" fill="white"/>
<path fill-rule="evenodd" clip-rule="evenodd" d="M151.223 264.215H160.683C164.374 264.215 165.777 265.483 165.777 268.587C165.777 271.577 164.373 272.843 160.683 272.843H151.223V264.215ZM136.568 295.617H151.224V282.848H166.922C177.315 282.848 181.057 276.755 181.057 268.876C181.057 259.731 177.209 254.556 166.816 254.556H136.568V295.617ZM185.89 254.556H225.335V264.561H200.546V270.082H223.571V280.09H200.546V285.611H225.335V295.617H185.89V254.556ZM246.125 264.215H255.584C259.274 264.215 260.679 265.483 260.679 268.587C260.679 271.577 259.274 272.843 255.584 272.843H246.125V264.215ZM231.469 295.617H246.125V282.848H261.82C272.216 282.848 275.959 276.755 275.959 268.876C275.959 259.731 272.111 254.556 261.716 254.556H231.469V295.617ZM290.145 278.192C282.974 276.982 280.014 272.382 280.014 266.632C280.014 255.991 289.421 253.119 301.475 253.119C318.001 253.119 324.81 257.89 325.331 266.575H308.283C308.283 264.907 307.399 263.87 306.05 263.295C304.75 262.664 303.088 262.435 301.475 262.435C297.11 262.435 295.604 263.641 295.604 265.368C295.604 266.516 296.07 267.266 297.525 267.495L315.039 270.369C322.421 271.577 326.995 275.373 326.995 282.329C326.995 292.339 319.614 297.055 303.138 297.055C291.861 297.055 279.543 295.33 279.492 283.253H297.162C297.212 284.631 297.682 285.551 298.722 286.184C299.811 286.76 301.423 287.048 303.709 287.048C308.282 287.048 309.531 285.667 309.531 283.711C309.531 282.504 308.854 281.297 306.883 280.954L290.145 278.192ZM331.774 254.556H346.429V295.617H331.774V254.556ZM400.744 279.63C399.808 285.035 398.142 289.406 394.504 292.396C390.92 295.387 385.306 297.055 376.368 297.055C367.481 297.055 351.006 296.363 351.006 275.088C351.006 253.808 367.481 253.118 376.368 253.118C385.201 253.118 398.819 254.382 400.744 270.659H384.216C383.8 267.723 382.031 263.468 376.368 263.468C370.388 263.468 366.595 266.746 366.595 275.087C366.595 283.426 370.286 286.702 375.639 286.702C380.266 286.702 383.02 284.574 384.216 279.629L400.744 279.63ZM419.92 275.088C419.92 266.747 423.715 263.47 429.692 263.47C435.668 263.47 439.464 266.747 439.464 275.088C439.464 283.427 435.668 286.703 429.692 286.703C423.715 286.702 419.92 283.427 419.92 275.088ZM404.327 275.088C404.327 296.363 420.802 297.056 429.692 297.056C438.579 297.056 455.055 296.364 455.055 275.088C455.055 253.809 438.579 253.119 429.692 253.119C420.802 253.119 404.327 253.808 404.327 275.088ZM114.422 254.963C115.369 235.264 98.2992 213.079 75.0284 210.337L75.0681 210.068C98.0095 210.068 115.597 231.205 115.597 247.881C115.575 251.352 115.299 253.503 114.808 255.064L114.422 254.963ZM113.032 257.467C111.506 259.324 109.586 261.192 107.337 262.967C103.2 239.283 85.7135 218.574 73.3508 212.529L73.086 212.713C85.519 222.868 100.348 242.592 106.115 263.896C103.173 266.046 99.9959 267.857 96.6436 269.294C84.9113 255.978 73.9734 230.297 70.4486 214.001L70.0901 214.108C70.1696 229.927 81.4539 256.781 95.2152 269.884C92.059 271.127 88.7778 272.029 85.4281 272.575C72.2369 267.374 62.8474 250.716 62.8474 233.652C62.8474 222.512 66.26 215.621 66.9202 214.211L66.6391 214.1C65.8404 215.303 60.8411 222.19 60.8411 234.217C60.8411 253.505 70.3989 268.248 83.0882 272.891C78.5505 273.388 73.9626 273.173 69.4916 272.256L69.3972 272.55C70.7546 273.047 75.3599 274.971 82.3854 274.971C98.2757 274.971 109.018 265.145 113.342 257.676L113.032 257.467Z" fill="#28458E"/>
<path fill-rule="evenodd" clip-rule="evenodd" d="M80.7965 203.107C68.7504 203.107 54.6257 211.76 54.6257 219.669C54.6257 222.729 57.4377 225.313 63.2577 225.313C76.7684 225.313 89.3207 216.075 89.3207 208.891C89.3207 205.111 85.673 203.107 80.7965 203.107ZM85.6056 208.668C85.6056 214.723 73.9223 222.125 64.1558 222.125C59.8408 222.125 57.5094 220.435 57.5094 217.646C57.5094 211.504 69.3255 204.228 78.4864 204.228C84.4591 204.228 85.6056 207.253 85.6056 208.668Z" fill="#0096D6"/>
<path fill-rule="evenodd" clip-rule="evenodd" d="M49.8265 223.331C49.4879 223.914 48.1319 226.557 48.1319 229.264C48.1319 234.286 53.23 238.948 62.6067 238.948C80.6453 238.948 101.486 225.733 101.486 213.466C101.486 207.96 96.2489 204.966 92.6126 204.347L92.5445 204.562C93.6754 204.918 97.8185 206.835 97.8185 211.74C97.8185 221.514 79.4179 234.831 61.0889 234.831C54.0719 234.831 49.6512 231.384 49.6512 226.362C49.6512 224.774 49.9834 223.728 50.0715 223.425L49.8265 223.331Z" fill="#EB7B30"/>
<path fill-rule="evenodd" clip-rule="evenodd" d="M108.923 214.383C109.418 214.757 112.389 217.222 112.389 221.882C112.389 237.773 87.3726 253.398 65.2562 253.398C52.0671 253.398 46.0547 246.917 46.3209 241.162H46.5573C47.0741 244.151 51.3564 249.499 62.8999 249.499C85.0441 249.499 109.769 233.331 109.769 219.165C109.769 216.735 109.106 215.221 108.731 214.547L108.923 214.383Z" fill="#00984A"/>
<path fill-rule="evenodd" clip-rule="evenodd" d="M117.285 229.218C117.388 229.557 117.927 231.078 117.927 233.461C117.927 251.137 92.6105 266.271 70.592 266.271C59.2594 266.271 53.3414 260.792 52.0919 258.567L52.2936 258.419C55.4293 261.148 61.6057 263.222 68.8136 263.222C88.26 263.222 117.277 248.497 117.018 229.283L117.285 229.218Z" fill="#DF002C"/>
</svg>
