<svg width="501" height="501" viewBox="0 0 501 501" fill="none" xmlns="http://www.w3.org/2000/svg">
<path d="M500.447 250.081C500.447 388.153 388.518 500.081 250.447 500.081C112.376 500.081 0.447266 388.153 0.447266 250.081C0.447266 112.01 112.376 0.0814209 250.447 0.0814209C388.518 0.0814209 500.447 112.01 500.447 250.081Z" fill="#243882"/>
<path fill-rule="evenodd" clip-rule="evenodd" d="M124.947 124.581H375.947V375.581H124.947V124.581Z" fill="#243882"/>
<path fill-rule="evenodd" clip-rule="evenodd" d="M211.009 193.479H159.832C159.832 193.479 162.092 195.454 162.371 196.99C162.795 199.322 161.735 201.641 161.735 201.641L135.006 287.179C135.006 287.179 133.811 290.277 132.312 291.66C131.101 292.778 128.638 293.75 128.638 293.75H166.174C166.174 293.75 163.7 292.477 163.006 290.993C162.391 289.678 162.746 287.287 162.746 287.287L172.026 255.392C172.026 255.392 216.242 261.9 229.646 228.803C240.904 201.017 218.816 193.479 211.009 193.479ZM206.31 227.109C197.277 253.61 174.049 248.962 174.049 248.962L188.696 201.228H197.221C197.221 201.228 215.637 199.745 206.31 227.109Z" fill="white"/>
<path fill-rule="evenodd" clip-rule="evenodd" d="M333.424 232.854C320.082 235.01 300.104 242.391 300.104 242.391L297.772 252.585C297.772 252.585 304.738 249.314 309.443 247.95C313.576 246.753 320.263 245.783 320.263 245.783L309.008 286.33C309.008 286.33 277.405 293.324 294.807 239.425C298.657 227.494 311.842 208.158 325.138 203.773C340.073 198.846 355.493 210.132 355.493 210.132L359.944 196.779C359.944 196.779 343.26 192.401 332.433 192.855C311.024 193.754 296.964 199.418 282.065 214.816C263.181 234.338 264.891 263.311 264.891 263.311L250.611 274.463C250.611 274.463 246.086 267.538 244.498 262.57C243.215 258.565 242.6 251.953 242.6 251.953C242.6 251.953 254.679 245.921 260.852 240.909C273.143 230.925 268.705 219.267 260.518 218.082C251.058 216.712 246.422 217.338 239.457 222.873C228.79 231.35 228.377 249.175 228.377 249.175C228.377 249.175 193.36 257.673 197.77 283.009C199.073 290.505 210.404 294.983 219.665 294.812C234.1 294.174 243.943 287.704 243.943 287.704C243.943 287.704 252.841 300 275.071 305.43C303.708 312.424 332.379 297.988 332.379 297.988L334.061 293.537C334.061 293.537 312.844 304.794 288.757 300.206C266.386 295.946 254.682 281.223 254.682 281.223C254.682 281.223 258.629 278.189 261.07 276.147C263.253 274.321 266.559 271.341 266.559 271.341C266.559 271.341 270.86 284.746 282.505 290.204C308.159 302.228 335.968 288.24 335.968 288.24L349.558 243.24C349.558 243.24 355.239 242.698 358.881 242.718C362.868 242.737 369.08 243.452 369.08 243.452L372.258 231.559C372.258 231.559 348.298 230.449 333.424 232.854ZM226.045 285.482C220.534 285.828 214.484 283.572 213.093 278.467C209.277 264.456 229.223 257.462 229.223 257.462C229.223 257.462 230.688 265.356 232.579 270.087C234.449 274.767 238.762 281.432 238.762 281.432C238.762 281.432 232.656 285.071 226.045 285.482ZM255.527 224.353C259.289 224.905 258.305 233.278 253.139 237.022C249.11 241.306 242.175 243.239 242.175 243.239C242.175 243.239 241.323 222.27 255.527 224.353Z" fill="white"/>
</svg>
