<svg width="501" height="501" viewBox="0 0 501 501" fill="none" xmlns="http://www.w3.org/2000/svg">
<path d="M500.097 250.409C500.097 388.48 388.168 500.409 250.097 500.409C112.025 500.409 0.0966797 388.48 0.0966797 250.409C0.0966797 112.338 112.025 0.408936 250.097 0.408936C388.168 0.408936 500.097 112.338 500.097 250.409Z" fill="white"/>
<path fill-rule="evenodd" clip-rule="evenodd" d="M78.0967 78.4089H422.097V422.409H78.0967V78.4089Z" fill="white"/>
<path fill-rule="evenodd" clip-rule="evenodd" d="M83.1544 250.407C83.1544 159.571 159.016 83.7129 250.338 83.7129C340.692 83.7129 417.039 159.571 417.039 250.891C417.039 341.729 341.663 417.107 250.338 417.107C159.499 417.107 83.1544 342.211 83.1544 250.407ZM169.138 176.468L166.722 175.984C238.232 162.937 243.549 159.073 252.245 103.99V102.541C170.104 105.923 101.492 166.32 101.492 249.909C101.492 330.116 168.171 398.729 248.865 398.729H250.798C248.865 370.704 245 356.691 230.505 343.646C221.807 335.918 221.807 335.918 173.489 326.736L171.556 326.253C214.077 319.005 251.767 311.759 251.767 250.395C251.764 185.646 211.659 181.299 169.138 176.468ZM118.369 261.042V256.207H127.551L128.034 259.107C128.518 262.007 128.518 262.973 130.935 262.973C132.867 262.973 133.833 261.524 133.833 259.591C133.833 256.691 131.9 253.791 129 251.374L123.202 246.06C119.818 243.16 118.369 239.296 118.369 234.947C118.369 227.216 123.202 221.899 129.967 221.899C138.666 221.899 141.08 226.248 142.047 231.081V235.912H134.316V233.981C133.833 231.081 132.867 230.114 130.935 230.114C129.002 230.114 127.551 231.081 127.551 234.947C127.551 237.363 129 239.296 131.9 241.711L139.147 248.476C142.047 250.893 143.498 254.756 143.498 259.591C143.498 266.353 139.631 271.669 130.453 271.669C121.751 271.669 119.336 267.322 118.369 261.042ZM203.912 254.756V260.073C203.912 262.489 205.361 263.938 207.296 263.938C210.196 263.938 210.196 262.489 210.196 259.591H217.927C217.927 266.838 214.545 271.669 206.814 271.669C198.599 271.669 195.217 266.838 195.217 256.691V247.511C195.217 240.263 200.532 234.463 207.297 234.463C213.579 234.463 217.929 238.814 217.929 245.578V254.756H203.912ZM203.908 246.035L203.425 249.418H209.708V246.035C209.708 244.102 209.225 242.651 206.808 242.651C204.874 242.653 204.39 244.102 203.908 246.035ZM176.364 254.756V260.073C176.364 262.973 177.332 263.938 179.748 263.938C182.646 263.938 182.646 262.489 182.646 259.591H190.377C190.377 266.838 187.477 271.669 179.263 271.669C171.048 271.669 167.666 267.322 167.666 256.691V247.511C167.666 239.78 172.981 234.463 179.746 234.463C186.026 234.463 190.376 238.814 190.376 245.578V254.756H176.364ZM176.361 246.035L175.877 249.418H182.159V246.035C182.159 243.618 181.675 242.651 179.261 242.651C177.328 242.653 176.844 243.62 176.361 246.035ZM146.873 242.671V236.389H149.773V227.209H158.471V236.389H164.27V242.671H158.471V257.166C158.471 262.962 159.437 262.962 164.27 262.962V270.211H161.37C150.74 270.211 149.773 269.728 149.773 260.549V242.671H146.873ZM223.218 222.378H231.917V270.213H223.218V222.378ZM254.162 396.796L253.68 398.727C333.887 395.345 393.803 338.813 398.638 252.324V250.393C346.935 261.506 338.238 267.306 330.989 325.285L330.507 327.216C278.806 334.467 259.479 344.129 254.162 396.796ZM257.032 102.546H255.097C263.314 162.46 279.741 166.326 327.577 172.124L329.993 172.608C343.521 232.04 345.455 241.22 396.189 247.016L398.605 247.5C388.456 166.327 339.173 107.379 257.032 102.546ZM254.665 247.985L254.182 249.918C310.23 242.187 320.861 230.109 328.109 176.477L328.592 174.544C268.193 185.655 263.362 191.453 254.665 247.985ZM256.596 251.885L254.18 251.401C261.911 311.797 270.608 313.732 326.176 324.359L328.107 324.843C321.345 268.794 308.779 258.647 256.596 251.885Z" fill="black"/>
</svg>
