<svg width="501" height="485" viewBox="0 0 501 485" fill="none" xmlns="http://www.w3.org/2000/svg">
<path d="M500.421 242.409C500.421 376.243 388.493 484.736 250.421 484.736C112.35 484.736 0.421387 376.243 0.421387 242.409C0.421387 108.575 112.35 0.0814209 250.421 0.0814209C388.493 0.0814209 500.421 108.575 500.421 242.409Z" fill="white"/>
<path d="M313.171 232.459C313.245 232.454 313.317 232.434 313.383 232.401C313.449 232.368 313.508 232.323 313.556 232.267C313.604 232.211 313.641 232.147 313.664 232.076C313.688 232.006 313.697 231.933 313.691 231.859C313.681 231.71 313.612 231.572 313.499 231.475C313.387 231.377 313.24 231.328 313.091 231.339C312.943 231.35 312.805 231.419 312.707 231.531C312.61 231.644 312.561 231.79 312.571 231.939C312.584 232.086 312.654 232.222 312.767 232.317C312.879 232.413 313.024 232.46 313.171 232.449M277.551 214.299C277.551 214.621 277.647 214.936 277.826 215.205C278.005 215.473 278.26 215.681 278.558 215.805C278.855 215.928 279.183 215.961 279.499 215.898C279.816 215.835 280.106 215.679 280.334 215.452C280.562 215.224 280.717 214.933 280.78 214.617C280.843 214.301 280.811 213.973 280.687 213.675C280.564 213.377 280.355 213.123 280.087 212.944C279.819 212.765 279.504 212.669 279.181 212.669C278.749 212.669 278.334 212.841 278.029 213.146C277.723 213.452 277.551 213.867 277.551 214.299ZM287.901 217.799C287.901 218.123 287.998 218.44 288.178 218.71C288.358 218.98 288.614 219.19 288.914 219.314C289.213 219.438 289.543 219.471 289.861 219.407C290.179 219.344 290.472 219.188 290.701 218.959C290.93 218.729 291.087 218.437 291.15 218.119C291.213 217.801 291.181 217.471 291.057 217.171C290.932 216.872 290.722 216.616 290.453 216.435C290.183 216.255 289.866 216.159 289.541 216.159C289.109 216.159 288.694 216.331 288.389 216.636C288.083 216.942 287.911 217.357 287.911 217.789M248.911 260.479C248.909 260.803 249.004 261.121 249.182 261.392C249.361 261.663 249.616 261.874 249.915 262C250.213 262.126 250.543 262.161 250.861 262.099C251.18 262.038 251.473 261.884 251.704 261.656C251.935 261.428 252.093 261.136 252.158 260.819C252.223 260.501 252.193 260.171 252.07 259.871C251.948 259.57 251.739 259.313 251.471 259.131C251.202 258.949 250.886 258.851 250.561 258.849C250.347 258.848 250.135 258.888 249.937 258.969C249.739 259.05 249.558 259.169 249.406 259.319C249.254 259.47 249.132 259.649 249.049 259.846C248.966 260.043 248.923 260.255 248.921 260.469M256.971 267.249C256.971 267.573 257.068 267.89 257.248 268.16C257.428 268.43 257.684 268.64 257.984 268.764C258.283 268.888 258.613 268.921 258.931 268.857C259.249 268.794 259.542 268.638 259.771 268.409C260 268.179 260.157 267.887 260.22 267.569C260.283 267.251 260.251 266.921 260.127 266.621C260.002 266.322 259.792 266.066 259.523 265.885C259.253 265.705 258.936 265.609 258.611 265.609C258.179 265.614 257.766 265.789 257.461 266.096C257.156 266.402 256.984 266.817 256.981 267.249M267.241 270.409C267.241 270.733 267.338 271.05 267.518 271.32C267.698 271.59 267.954 271.8 268.254 271.924C268.553 272.048 268.883 272.081 269.201 272.017C269.519 271.954 269.812 271.798 270.041 271.569C270.27 271.339 270.427 271.047 270.49 270.729C270.553 270.411 270.521 270.081 270.397 269.781C270.272 269.482 270.062 269.226 269.793 269.045C269.523 268.865 269.206 268.769 268.881 268.769C268.666 268.768 268.452 268.809 268.252 268.891C268.053 268.973 267.871 269.094 267.719 269.246C267.566 269.399 267.445 269.58 267.364 269.78C267.282 269.979 267.24 270.193 267.241 270.409ZM277.781 270.279C277.789 270.599 277.891 270.91 278.075 271.172C278.258 271.435 278.515 271.638 278.813 271.755C279.11 271.873 279.436 271.9 279.75 271.833C280.063 271.767 280.35 271.609 280.574 271.381C280.798 271.153 280.95 270.863 281.011 270.549C281.072 270.234 281.039 269.909 280.916 269.613C280.793 269.317 280.586 269.065 280.32 268.886C280.054 268.707 279.742 268.611 279.421 268.609C279.203 268.608 278.987 268.65 278.785 268.734C278.584 268.818 278.401 268.941 278.248 269.097C278.095 269.253 277.975 269.437 277.895 269.641C277.815 269.844 277.776 270.061 277.781 270.279ZM287.901 267.069C287.905 267.392 288.004 267.706 288.186 267.972C288.368 268.239 288.624 268.446 288.923 268.568C289.222 268.689 289.55 268.72 289.866 268.656C290.182 268.592 290.473 268.437 290.701 268.208C290.929 267.98 291.085 267.69 291.149 267.374C291.213 267.057 291.182 266.729 291.06 266.431C290.939 266.132 290.732 265.875 290.465 265.694C290.198 265.512 289.884 265.413 289.561 265.409C289.346 265.408 289.132 265.449 288.932 265.531C288.733 265.613 288.551 265.734 288.399 265.886C288.246 266.039 288.125 266.22 288.044 266.42C287.962 266.619 287.92 266.833 287.921 267.049M295.981 260.569C295.981 260.893 296.078 261.21 296.258 261.48C296.438 261.75 296.694 261.96 296.994 262.084C297.293 262.208 297.623 262.241 297.941 262.177C298.259 262.114 298.552 261.958 298.781 261.729C299.01 261.499 299.167 261.207 299.23 260.889C299.293 260.571 299.261 260.241 299.137 259.941C299.012 259.642 298.802 259.386 298.533 259.205C298.263 259.025 297.946 258.929 297.621 258.929C297.406 258.928 297.192 258.969 296.992 259.051C296.793 259.133 296.611 259.254 296.459 259.406C296.306 259.559 296.185 259.74 296.104 259.94C296.022 260.139 295.98 260.353 295.981 260.569ZM295.871 224.269C295.873 224.591 295.971 224.905 296.151 225.172C296.331 225.439 296.587 225.646 296.885 225.768C297.183 225.89 297.51 225.92 297.825 225.856C298.141 225.792 298.431 225.636 298.657 225.408C298.884 225.18 299.039 224.889 299.101 224.573C299.163 224.257 299.13 223.93 299.006 223.633C298.883 223.336 298.674 223.082 298.406 222.903C298.138 222.724 297.823 222.629 297.501 222.629C297.287 222.629 297.074 222.671 296.875 222.754C296.677 222.837 296.497 222.957 296.345 223.11C296.194 223.262 296.074 223.443 295.993 223.642C295.911 223.841 295.87 224.054 295.871 224.269ZM284.421 219.949C284.419 219.538 284.296 219.137 284.066 218.796C283.836 218.455 283.511 218.19 283.13 218.034C282.75 217.879 282.332 217.839 281.93 217.92C281.527 218.002 281.157 218.2 280.867 218.492C280.577 218.783 280.38 219.154 280.301 219.557C280.221 219.96 280.263 220.378 280.421 220.757C280.578 221.137 280.845 221.461 281.187 221.689C281.529 221.917 281.93 222.039 282.341 222.039C282.615 222.039 282.887 221.985 283.14 221.88C283.393 221.774 283.622 221.62 283.816 221.426C284.009 221.232 284.162 221.001 284.266 220.748C284.37 220.494 284.423 220.223 284.421 219.949ZM291.421 224.259C291.419 223.848 291.296 223.447 291.066 223.106C290.836 222.765 290.511 222.5 290.13 222.344C289.75 222.189 289.332 222.149 288.93 222.23C288.527 222.312 288.157 222.51 287.867 222.802C287.577 223.093 287.38 223.464 287.301 223.867C287.221 224.27 287.263 224.688 287.421 225.067C287.578 225.447 287.845 225.771 288.187 225.999C288.529 226.227 288.93 226.349 289.341 226.349C289.615 226.349 289.887 226.295 290.14 226.19C290.393 226.084 290.622 225.93 290.816 225.736C291.009 225.542 291.162 225.311 291.266 225.058C291.37 224.804 291.423 224.533 291.421 224.259ZM296.881 230.409C296.881 229.996 296.759 229.591 296.529 229.248C296.3 228.904 295.973 228.636 295.591 228.478C295.209 228.32 294.789 228.278 294.384 228.359C293.978 228.44 293.606 228.639 293.314 228.931C293.021 229.223 292.822 229.596 292.742 230.001C292.661 230.407 292.702 230.827 292.86 231.209C293.019 231.591 293.287 231.917 293.63 232.147C293.974 232.376 294.378 232.499 294.791 232.499C295.066 232.5 295.339 232.447 295.593 232.343C295.847 232.238 296.078 232.084 296.272 231.89C296.467 231.695 296.62 231.464 296.725 231.21C296.83 230.956 296.883 230.684 296.881 230.409ZM281.911 207.019C281.925 206.873 281.882 206.728 281.791 206.614C281.699 206.5 281.567 206.427 281.421 206.409C281.273 206.398 281.127 206.445 281.013 206.54C280.899 206.635 280.827 206.771 280.811 206.919C280.8 207.067 280.847 207.214 280.942 207.328C281.038 207.441 281.174 207.514 281.321 207.529C281.394 207.536 281.467 207.528 281.536 207.507C281.605 207.485 281.67 207.45 281.726 207.404C281.781 207.357 281.827 207.3 281.861 207.236C281.895 207.172 281.915 207.101 281.921 207.029M295.861 212.089C295.868 212.017 295.861 211.944 295.839 211.874C295.818 211.805 295.783 211.741 295.736 211.685C295.69 211.629 295.633 211.583 295.568 211.549C295.504 211.516 295.434 211.495 295.361 211.489C295.214 211.494 295.074 211.556 294.971 211.663C294.869 211.769 294.811 211.911 294.811 212.059C294.816 212.188 294.864 212.311 294.947 212.409C295.031 212.507 295.145 212.574 295.271 212.599C295.418 212.61 295.564 212.563 295.676 212.467C295.788 212.372 295.859 212.236 295.871 212.089M306.821 219.949C306.828 219.875 306.82 219.801 306.799 219.731C306.777 219.66 306.741 219.594 306.693 219.538C306.646 219.481 306.588 219.434 306.522 219.4C306.457 219.366 306.385 219.345 306.311 219.339C306.239 219.332 306.166 219.34 306.097 219.361C306.027 219.382 305.963 219.417 305.907 219.464C305.851 219.51 305.805 219.567 305.772 219.632C305.738 219.696 305.718 219.767 305.711 219.839C305.685 219.985 305.716 220.135 305.798 220.258C305.88 220.381 306.007 220.468 306.151 220.499C306.298 220.523 306.448 220.489 306.571 220.406C306.694 220.322 306.78 220.194 306.811 220.049C306.816 220.012 306.816 219.975 306.811 219.939M287.861 212.679C287.872 212.471 287.822 212.265 287.716 212.085C287.611 211.906 287.455 211.762 287.268 211.67C287.081 211.579 286.871 211.545 286.665 211.572C286.458 211.599 286.264 211.686 286.107 211.823C285.95 211.96 285.837 212.139 285.781 212.34C285.726 212.541 285.731 212.753 285.795 212.951C285.859 213.149 285.981 213.323 286.144 213.453C286.307 213.582 286.504 213.661 286.711 213.679C286.853 213.691 286.996 213.675 287.131 213.631C287.266 213.587 287.391 213.516 287.498 213.423C287.606 213.329 287.693 213.216 287.755 213.088C287.818 212.96 287.854 212.821 287.861 212.679ZM298.491 217.999C298.504 217.857 298.487 217.715 298.443 217.579C298.399 217.444 298.329 217.319 298.235 217.212C298.142 217.105 298.028 217.017 297.9 216.955C297.772 216.892 297.633 216.856 297.491 216.849C297.351 216.825 297.207 216.83 297.069 216.862C296.93 216.895 296.799 216.956 296.685 217.04C296.57 217.125 296.473 217.231 296.401 217.354C296.328 217.477 296.281 217.613 296.262 217.754C296.243 217.895 296.253 218.038 296.291 218.176C296.329 218.313 296.394 218.441 296.483 218.553C296.571 218.665 296.682 218.757 296.807 218.825C296.932 218.893 297.07 218.935 297.211 218.949H297.311C297.453 218.961 297.595 218.945 297.729 218.901C297.864 218.857 297.988 218.786 298.095 218.692C298.201 218.599 298.288 218.485 298.349 218.357C298.41 218.229 298.445 218.09 298.451 217.949M305.731 225.519C305.524 225.508 305.317 225.558 305.138 225.664C304.958 225.769 304.814 225.926 304.723 226.113C304.631 226.3 304.597 226.509 304.624 226.716C304.652 226.922 304.739 227.116 304.875 227.273C305.012 227.43 305.192 227.543 305.392 227.599C305.593 227.655 305.806 227.65 306.003 227.585C306.201 227.521 306.376 227.4 306.505 227.237C306.635 227.074 306.713 226.876 306.731 226.669C306.744 226.527 306.727 226.385 306.683 226.249C306.639 226.114 306.569 225.989 306.475 225.882C306.382 225.775 306.268 225.687 306.14 225.625C306.012 225.562 305.873 225.526 305.731 225.519ZM274.021 209.759C273.81 209.757 273.602 209.818 273.425 209.934C273.248 210.05 273.11 210.215 273.027 210.41C272.944 210.605 272.921 210.82 272.96 211.028C272.999 211.236 273.1 211.427 273.248 211.578C273.396 211.729 273.586 211.833 273.793 211.876C274 211.92 274.215 211.9 274.412 211.821C274.608 211.742 274.776 211.607 274.896 211.432C275.015 211.257 275.079 211.051 275.081 210.839C275.083 210.699 275.056 210.561 275.003 210.432C274.951 210.303 274.873 210.185 274.774 210.086C274.675 209.988 274.558 209.91 274.429 209.857C274.299 209.804 274.161 209.778 274.021 209.779M268.861 212.689C268.537 212.687 268.219 212.781 267.949 212.96C267.678 213.138 267.466 213.393 267.34 213.692C267.214 213.991 267.18 214.321 267.241 214.639C267.302 214.958 267.457 215.251 267.685 215.481C267.913 215.712 268.204 215.87 268.522 215.935C268.839 216.001 269.169 215.97 269.47 215.848C269.77 215.726 270.028 215.517 270.209 215.248C270.391 214.98 270.489 214.663 270.491 214.339C270.491 213.907 270.32 213.492 270.014 213.186C269.708 212.881 269.294 212.709 268.861 212.709M258.511 216.159C258.187 216.157 257.869 216.251 257.599 216.43C257.328 216.608 257.116 216.863 256.99 217.162C256.864 217.461 256.83 217.791 256.891 218.109C256.952 218.428 257.107 218.721 257.335 218.951C257.563 219.182 257.854 219.34 258.172 219.405C258.489 219.471 258.819 219.44 259.12 219.318C259.42 219.196 259.678 218.987 259.859 218.718C260.041 218.45 260.139 218.133 260.141 217.809C260.139 217.376 259.967 216.962 259.662 216.656C259.357 216.349 258.944 216.174 258.511 216.169M243.361 240.839C243.037 240.837 242.719 240.931 242.449 241.11C242.178 241.288 241.966 241.543 241.84 241.842C241.714 242.141 241.68 242.471 241.741 242.789C241.802 243.108 241.957 243.401 242.185 243.631C242.413 243.862 242.704 244.02 243.022 244.085C243.339 244.151 243.669 244.12 243.97 243.998C244.27 243.876 244.528 243.667 244.709 243.398C244.891 243.13 244.989 242.813 244.991 242.489C244.991 242.275 244.949 242.063 244.867 241.865C244.785 241.667 244.665 241.488 244.514 241.336C244.363 241.185 244.183 241.065 243.985 240.983C243.787 240.901 243.575 240.859 243.361 240.859M245.361 231.229C245.037 231.227 244.719 231.321 244.449 231.5C244.178 231.678 243.966 231.933 243.84 232.232C243.714 232.531 243.68 232.861 243.741 233.179C243.802 233.498 243.957 233.791 244.185 234.021C244.413 234.252 244.704 234.41 245.022 234.475C245.339 234.541 245.669 234.51 245.97 234.388C246.27 234.266 246.528 234.057 246.709 233.788C246.891 233.52 246.989 233.203 246.991 232.879C247.002 232.45 246.843 232.034 246.549 231.721C246.256 231.409 245.85 231.225 245.421 231.209M250.631 222.619C250.307 222.617 249.989 222.711 249.719 222.89C249.448 223.068 249.236 223.323 249.11 223.622C248.984 223.921 248.95 224.251 249.011 224.569C249.072 224.888 249.227 225.181 249.455 225.411C249.683 225.642 249.974 225.8 250.292 225.865C250.609 225.931 250.939 225.9 251.24 225.778C251.54 225.656 251.798 225.447 251.979 225.178C252.161 224.91 252.259 224.593 252.261 224.269C252.259 223.837 252.087 223.422 251.782 223.116C251.477 222.809 251.064 222.634 250.631 222.629M274.021 268.289C274.435 268.291 274.839 268.17 275.184 267.942C275.529 267.714 275.798 267.389 275.958 267.008C276.118 266.627 276.162 266.207 276.083 265.801C276.004 265.395 275.807 265.022 275.516 264.728C275.225 264.434 274.854 264.234 274.449 264.151C274.044 264.069 273.623 264.108 273.241 264.264C272.858 264.421 272.53 264.687 272.299 265.03C272.068 265.372 271.943 265.776 271.941 266.189C271.941 266.742 272.16 267.272 272.55 267.663C272.94 268.055 273.469 268.276 274.021 268.279M274.021 220.799C274.435 220.801 274.839 220.68 275.184 220.452C275.529 220.224 275.798 219.899 275.958 219.518C276.118 219.137 276.162 218.717 276.083 218.311C276.004 217.905 275.807 217.532 275.516 217.238C275.225 216.945 274.854 216.744 274.449 216.661C274.044 216.579 273.623 216.618 273.241 216.774C272.858 216.931 272.53 217.197 272.299 217.54C272.068 217.882 271.943 218.286 271.941 218.699C271.941 219.252 272.16 219.782 272.55 220.173C272.94 220.565 273.469 220.786 274.021 220.789M265.721 222.019C266.135 222.021 266.539 221.9 266.884 221.672C267.229 221.444 267.498 221.119 267.658 220.738C267.818 220.357 267.862 219.937 267.783 219.531C267.704 219.125 267.507 218.752 267.216 218.458C266.925 218.165 266.554 217.964 266.149 217.881C265.744 217.799 265.323 217.838 264.941 217.994C264.558 218.151 264.23 218.417 263.999 218.76C263.768 219.102 263.643 219.506 263.641 219.919C263.64 220.192 263.693 220.463 263.796 220.716C263.899 220.969 264.051 221.199 264.244 221.393C264.436 221.587 264.664 221.741 264.916 221.847C265.168 221.953 265.438 222.008 265.711 222.009M258.711 226.319C259.125 226.321 259.529 226.2 259.874 225.972C260.219 225.744 260.488 225.419 260.648 225.038C260.808 224.657 260.852 224.237 260.773 223.831C260.694 223.425 260.497 223.052 260.206 222.758C259.915 222.465 259.544 222.264 259.139 222.181C258.734 222.099 258.313 222.138 257.931 222.294C257.548 222.451 257.22 222.717 256.989 223.059C256.758 223.402 256.633 223.806 256.631 224.219C256.63 224.492 256.683 224.763 256.786 225.016C256.889 225.269 257.041 225.499 257.234 225.693C257.426 225.887 257.654 226.041 257.906 226.147C258.158 226.253 258.428 226.308 258.701 226.309M253.181 232.489C253.596 232.507 254.006 232.401 254.361 232.184C254.715 231.968 254.996 231.651 255.17 231.274C255.343 230.897 255.4 230.477 255.334 230.067C255.268 229.658 255.081 229.277 254.798 228.974C254.514 228.671 254.147 228.459 253.743 228.365C253.339 228.271 252.916 228.3 252.528 228.447C252.14 228.595 251.805 228.854 251.565 229.193C251.325 229.532 251.192 229.934 251.181 230.349C251.18 230.622 251.233 230.893 251.336 231.146C251.439 231.399 251.591 231.629 251.784 231.823C251.976 232.017 252.204 232.171 252.456 232.277C252.708 232.383 252.978 232.438 253.251 232.439M250.981 240.209C251.395 240.211 251.799 240.09 252.144 239.862C252.489 239.634 252.758 239.309 252.918 238.928C253.078 238.547 253.122 238.127 253.043 237.721C252.964 237.315 252.767 236.942 252.476 236.648C252.185 236.355 251.814 236.154 251.409 236.071C251.004 235.989 250.583 236.028 250.201 236.184C249.818 236.341 249.49 236.607 249.259 236.949C249.028 237.292 248.903 237.696 248.901 238.109C248.901 238.382 248.955 238.653 249.06 238.905C249.164 239.157 249.317 239.387 249.511 239.58C249.704 239.773 249.933 239.926 250.185 240.031C250.438 240.135 250.708 240.189 250.981 240.189M266.731 207.529C266.879 207.514 267.015 207.441 267.11 207.328C267.206 207.214 267.253 207.067 267.241 206.919C267.226 206.771 267.154 206.635 267.04 206.54C266.926 206.445 266.779 206.398 266.631 206.409C266.558 206.415 266.487 206.436 266.422 206.47C266.357 206.504 266.299 206.551 266.253 206.608C266.206 206.665 266.171 206.731 266.15 206.801C266.13 206.872 266.123 206.946 266.131 207.019C266.136 207.091 266.156 207.162 266.188 207.227C266.221 207.291 266.266 207.349 266.32 207.397C266.375 207.444 266.439 207.48 266.508 207.503C266.577 207.525 266.649 207.534 266.721 207.529M252.791 212.589C252.864 212.584 252.934 212.565 252.999 212.532C253.064 212.5 253.122 212.455 253.169 212.4C253.216 212.345 253.253 212.281 253.275 212.213C253.298 212.144 253.307 212.071 253.301 211.999C253.289 211.852 253.218 211.716 253.106 211.621C252.994 211.525 252.848 211.478 252.701 211.489C252.629 211.494 252.559 211.513 252.494 211.546C252.429 211.578 252.371 211.623 252.324 211.678C252.276 211.733 252.24 211.796 252.218 211.865C252.195 211.934 252.186 212.007 252.191 212.079C252.204 212.226 252.274 212.362 252.387 212.457C252.499 212.553 252.644 212.6 252.791 212.589ZM313.171 256.299C313.32 256.299 313.462 256.24 313.567 256.135C313.672 256.03 313.731 255.887 313.731 255.739C313.731 255.59 313.672 255.448 313.567 255.343C313.462 255.238 313.32 255.179 313.171 255.179H313.051C312.979 255.184 312.908 255.203 312.844 255.236C312.779 255.268 312.721 255.313 312.674 255.368C312.626 255.423 312.59 255.486 312.568 255.555C312.545 255.624 312.536 255.697 312.541 255.769C312.554 255.916 312.624 256.052 312.737 256.147C312.849 256.243 312.994 256.29 313.141 256.279M306.461 265.579C306.608 265.561 306.743 265.488 306.837 265.375C306.932 265.262 306.98 265.116 306.971 264.969C306.956 264.821 306.884 264.685 306.77 264.59C306.656 264.495 306.509 264.448 306.361 264.459C306.214 264.474 306.078 264.546 305.982 264.66C305.887 264.774 305.84 264.921 305.851 265.069C305.858 265.143 305.878 265.214 305.913 265.28C305.947 265.345 305.993 265.404 306.05 265.451C306.107 265.498 306.172 265.534 306.243 265.556C306.314 265.578 306.388 265.586 306.461 265.579ZM295.341 273.409C295.414 273.404 295.484 273.385 295.549 273.352C295.614 273.32 295.672 273.275 295.719 273.22C295.766 273.165 295.803 273.101 295.825 273.033C295.848 272.964 295.857 272.891 295.851 272.819C295.851 272.67 295.792 272.528 295.687 272.423C295.582 272.318 295.44 272.259 295.291 272.259C295.143 272.259 295 272.318 294.895 272.423C294.79 272.528 294.731 272.67 294.731 272.819C294.726 272.855 294.726 272.892 294.731 272.929C294.738 273.001 294.758 273.072 294.792 273.136C294.825 273.2 294.871 273.257 294.927 273.304C294.983 273.35 295.047 273.385 295.117 273.407C295.186 273.428 295.259 273.436 295.331 273.429M281.421 278.409C281.57 278.397 281.708 278.327 281.804 278.213C281.901 278.1 281.948 277.952 281.936 277.804C281.924 277.655 281.854 277.518 281.741 277.421C281.627 277.325 281.48 277.277 281.331 277.289C281.183 277.301 281.045 277.371 280.949 277.485C280.852 277.598 280.804 277.745 280.816 277.894C280.828 278.042 280.899 278.18 281.012 278.277C281.126 278.373 281.273 278.421 281.421 278.409ZM266.741 278.409C266.89 278.396 267.027 278.324 267.123 278.21C267.218 278.095 267.265 277.947 267.251 277.799C267.238 277.65 267.166 277.513 267.052 277.418C266.938 277.322 266.79 277.276 266.641 277.289C266.568 277.295 266.496 277.315 266.431 277.349C266.365 277.382 266.306 277.429 266.259 277.485C266.162 277.598 266.114 277.745 266.126 277.894C266.138 278.042 266.209 278.18 266.322 278.277C266.436 278.373 266.583 278.421 266.731 278.409M252.791 273.339C252.864 273.334 252.934 273.315 252.999 273.282C253.064 273.25 253.122 273.205 253.169 273.15C253.216 273.095 253.253 273.031 253.275 272.963C253.298 272.894 253.307 272.821 253.301 272.749C253.289 272.602 253.218 272.466 253.106 272.371C252.994 272.275 252.848 272.228 252.701 272.239C252.629 272.244 252.559 272.263 252.494 272.296C252.429 272.328 252.371 272.373 252.324 272.428C252.276 272.483 252.24 272.546 252.218 272.615C252.195 272.684 252.186 272.757 252.191 272.829C252.204 272.976 252.274 273.112 252.387 273.207C252.499 273.303 252.644 273.35 252.791 273.339ZM241.791 265.489C241.865 265.484 241.937 265.464 242.003 265.431C242.069 265.398 242.128 265.353 242.176 265.297C242.224 265.241 242.261 265.177 242.284 265.106C242.308 265.036 242.317 264.963 242.311 264.889C242.306 264.815 242.286 264.744 242.253 264.678C242.22 264.612 242.175 264.553 242.119 264.505C242.063 264.456 241.999 264.42 241.929 264.396C241.859 264.373 241.785 264.364 241.711 264.369C241.638 264.374 241.566 264.394 241.5 264.427C241.434 264.46 241.375 264.506 241.327 264.561C241.279 264.617 241.242 264.682 241.219 264.752C241.195 264.822 241.186 264.895 241.191 264.969C241.204 265.116 241.274 265.252 241.387 265.347C241.499 265.443 241.644 265.49 241.791 265.479M234.911 256.289C235.06 256.289 235.202 256.23 235.307 256.125C235.412 256.02 235.471 255.877 235.471 255.729C235.471 255.58 235.412 255.438 235.307 255.333C235.202 255.228 235.06 255.169 234.911 255.169H234.791C234.656 255.195 234.534 255.27 234.45 255.38C234.367 255.49 234.326 255.627 234.338 255.764C234.349 255.902 234.41 256.031 234.511 256.126C234.611 256.221 234.743 256.275 234.881 256.279M241.841 220.409C241.915 220.404 241.987 220.384 242.053 220.351C242.119 220.318 242.178 220.273 242.226 220.217C242.274 220.161 242.311 220.097 242.334 220.026C242.358 219.956 242.367 219.883 242.361 219.809C242.356 219.735 242.336 219.664 242.303 219.598C242.27 219.532 242.225 219.473 242.169 219.425C242.113 219.376 242.049 219.34 241.979 219.316C241.909 219.293 241.835 219.284 241.761 219.289C241.688 219.294 241.616 219.314 241.55 219.347C241.484 219.38 241.425 219.426 241.377 219.481C241.329 219.537 241.292 219.602 241.269 219.672C241.245 219.742 241.236 219.815 241.241 219.889C241.254 220.036 241.324 220.172 241.437 220.267C241.549 220.363 241.694 220.41 241.841 220.399M261.331 213.589C261.602 213.553 261.847 213.415 262.018 213.202C262.189 212.99 262.271 212.72 262.248 212.448C262.225 212.177 262.098 211.924 261.894 211.744C261.69 211.563 261.424 211.469 261.151 211.479C260.886 211.516 260.644 211.652 260.475 211.859C260.305 212.067 260.221 212.332 260.239 212.599C260.257 212.867 260.375 213.117 260.57 213.301C260.766 213.485 261.023 213.588 261.291 213.589M250.651 218.909C250.912 218.896 251.157 218.782 251.335 218.59C251.512 218.399 251.608 218.146 251.601 217.885C251.595 217.624 251.486 217.376 251.3 217.194C251.113 217.012 250.862 216.91 250.601 216.91C250.34 216.91 250.09 217.012 249.903 217.194C249.716 217.376 249.608 217.624 249.602 217.885C249.595 218.146 249.691 218.399 249.868 218.59C250.046 218.782 250.291 218.896 250.551 218.909H250.651ZM241.271 226.669C241.271 226.934 241.377 227.189 241.564 227.376C241.752 227.564 242.006 227.669 242.271 227.669H242.421C242.566 227.667 242.709 227.635 242.841 227.576C242.973 227.516 243.091 227.431 243.188 227.324C243.286 227.217 243.361 227.092 243.408 226.955C243.455 226.818 243.474 226.673 243.463 226.529C243.452 226.385 243.412 226.244 243.344 226.116C243.277 225.988 243.184 225.875 243.072 225.784C242.959 225.693 242.829 225.627 242.69 225.588C242.55 225.549 242.405 225.539 242.261 225.559C241.982 225.574 241.72 225.7 241.533 225.908C241.345 226.116 241.248 226.389 241.261 226.669M309.911 246.809C309.772 246.821 309.637 246.86 309.513 246.924C309.388 246.988 309.278 247.076 309.188 247.183C309.098 247.29 309.03 247.413 308.988 247.546C308.945 247.68 308.93 247.82 308.941 247.959C308.953 248.098 308.992 248.234 309.057 248.358C309.121 248.482 309.209 248.592 309.315 248.682C309.422 248.772 309.546 248.84 309.679 248.883C309.812 248.925 309.952 248.941 310.091 248.929C310.372 248.905 310.633 248.77 310.815 248.555C310.996 248.339 311.085 248.06 311.061 247.779C311.038 247.498 310.903 247.238 310.687 247.056C310.472 246.874 310.193 246.785 309.911 246.809ZM305.791 257.109C305.521 257.145 305.275 257.283 305.105 257.496C304.934 257.708 304.852 257.978 304.875 258.25C304.898 258.521 305.025 258.774 305.229 258.954C305.433 259.134 305.699 259.229 305.971 259.219C306.237 259.182 306.479 259.046 306.648 258.838C306.817 258.631 306.902 258.366 306.884 258.099C306.866 257.831 306.748 257.58 306.552 257.397C306.357 257.213 306.099 257.11 305.831 257.109M297.601 265.859C297.457 265.861 297.314 265.893 297.182 265.952C297.05 266.011 296.932 266.097 296.834 266.204C296.737 266.311 296.662 266.436 296.615 266.573C296.568 266.71 296.549 266.855 296.56 266.999C296.571 267.143 296.611 267.284 296.679 267.412C296.746 267.54 296.839 267.653 296.951 267.744C297.064 267.834 297.194 267.901 297.333 267.94C297.472 267.979 297.618 267.989 297.761 267.969C298.041 267.953 298.303 267.828 298.49 267.62C298.678 267.412 298.775 267.139 298.761 266.859C298.761 266.594 298.656 266.339 298.469 266.152C298.281 265.964 298.027 265.859 297.761 265.859H297.611M286.721 271.189C286.442 271.204 286.18 271.33 285.993 271.538C285.805 271.746 285.708 272.019 285.721 272.299C285.732 272.58 285.854 272.845 286.06 273.037C286.266 273.228 286.54 273.33 286.821 273.319C287.103 273.308 287.368 273.186 287.559 272.98C287.75 272.774 287.852 272.5 287.841 272.219C287.841 272.219 287.841 272.149 287.841 272.119C287.835 271.981 287.801 271.846 287.743 271.721C287.684 271.596 287.601 271.484 287.499 271.391C287.397 271.298 287.277 271.226 287.147 271.179C287.017 271.133 286.879 271.112 286.741 271.119M273.901 272.909C273.762 272.914 273.625 272.947 273.499 273.005C273.372 273.063 273.258 273.146 273.164 273.248C273.069 273.35 272.995 273.47 272.947 273.6C272.898 273.731 272.876 273.87 272.881 274.009C272.887 274.148 272.919 274.285 272.977 274.412C273.036 274.538 273.118 274.652 273.22 274.747C273.322 274.841 273.442 274.915 273.573 274.964C273.703 275.012 273.842 275.034 273.981 275.029H274.081C274.352 274.993 274.597 274.855 274.768 274.642C274.939 274.43 275.021 274.16 274.998 273.888C274.975 273.617 274.848 273.364 274.644 273.184C274.44 273.003 274.174 272.909 273.901 272.919M261.621 271.509C261.414 271.527 261.217 271.605 261.054 271.735C260.891 271.864 260.769 272.039 260.705 272.237C260.64 272.435 260.636 272.647 260.691 272.848C260.747 273.048 260.86 273.228 261.017 273.365C261.174 273.501 261.368 273.589 261.575 273.616C261.781 273.643 261.991 273.609 262.178 273.518C262.365 273.426 262.521 273.282 262.626 273.103C262.732 272.923 262.782 272.717 262.771 272.509C262.764 272.367 262.728 272.228 262.665 272.1C262.603 271.972 262.516 271.858 262.408 271.765C262.301 271.672 262.176 271.601 262.041 271.557C261.906 271.513 261.763 271.497 261.621 271.509ZM250.511 265.899C250.23 265.91 249.965 266.031 249.774 266.238C249.582 266.444 249.481 266.718 249.491 266.999C249.502 267.28 249.624 267.545 249.83 267.737C250.036 267.928 250.31 268.03 250.591 268.019H250.691C250.962 267.983 251.207 267.844 251.378 267.632C251.549 267.42 251.631 267.15 251.608 266.878C251.585 266.607 251.458 266.354 251.254 266.174C251.05 265.993 250.784 265.899 250.511 265.909M242.261 257.149C241.991 257.185 241.745 257.323 241.575 257.536C241.404 257.748 241.322 258.018 241.345 258.29C241.368 258.561 241.495 258.814 241.699 258.994C241.903 259.174 242.169 259.269 242.441 259.259C242.707 259.222 242.949 259.086 243.118 258.878C243.287 258.671 243.372 258.406 243.354 258.139C243.336 257.871 243.218 257.62 243.022 257.437C242.827 257.253 242.569 257.15 242.301 257.149M237.701 236.839C237.431 236.875 237.185 237.013 237.015 237.226C236.844 237.438 236.762 237.708 236.785 237.98C236.808 238.251 236.935 238.504 237.139 238.684C237.343 238.864 237.609 238.959 237.881 238.949C238.147 238.912 238.389 238.776 238.558 238.568C238.727 238.361 238.812 238.096 238.794 237.829C238.776 237.561 238.658 237.31 238.462 237.127C238.267 236.943 238.009 236.84 237.741 236.839M267.881 264.839C267.881 264.428 267.759 264.025 267.531 263.683C267.302 263.341 266.977 263.075 266.597 262.917C266.217 262.76 265.799 262.719 265.396 262.799C264.992 262.879 264.622 263.077 264.331 263.368C264.04 263.659 263.842 264.03 263.761 264.433C263.681 264.837 263.722 265.255 263.88 265.635C264.037 266.015 264.304 266.34 264.646 266.568C264.988 266.797 265.39 266.919 265.801 266.919C266.353 266.919 266.882 266.7 267.272 266.31C267.662 265.92 267.881 265.391 267.881 264.839ZM282.241 262.749C281.828 262.747 281.423 262.868 281.079 263.096C280.734 263.324 280.464 263.649 280.304 264.03C280.144 264.411 280.101 264.831 280.18 265.237C280.258 265.643 280.456 266.016 280.747 266.31C281.037 266.603 281.409 266.804 281.814 266.887C282.219 266.969 282.639 266.93 283.022 266.774C283.405 266.617 283.732 266.351 283.964 266.008C284.195 265.666 284.319 265.262 284.321 264.849C284.323 264.576 284.27 264.305 284.167 264.052C284.064 263.799 283.911 263.569 283.719 263.375C283.527 263.181 283.298 263.027 283.047 262.921C282.795 262.815 282.525 262.76 282.251 262.759M289.381 258.619C288.967 258.609 288.559 258.723 288.209 258.945C287.859 259.168 287.584 259.49 287.417 259.869C287.251 260.249 287.201 260.67 287.274 261.078C287.348 261.486 287.541 261.863 287.829 262.161C288.117 262.459 288.487 262.665 288.893 262.752C289.298 262.839 289.72 262.803 290.105 262.65C290.491 262.496 290.821 262.232 291.056 261.89C291.29 261.548 291.417 261.144 291.421 260.729C291.425 260.448 291.373 260.169 291.267 259.909C291.162 259.649 291.005 259.412 290.807 259.214C290.608 259.015 290.372 258.858 290.111 258.753C289.851 258.647 289.572 258.595 289.291 258.599M296.851 254.409C296.849 253.998 296.726 253.597 296.496 253.256C296.266 252.915 295.941 252.65 295.56 252.494C295.18 252.339 294.762 252.299 294.359 252.38C293.957 252.462 293.587 252.66 293.297 252.952C293.007 253.243 292.81 253.614 292.731 254.017C292.651 254.42 292.693 254.838 292.851 255.217C293.008 255.597 293.275 255.921 293.617 256.149C293.959 256.377 294.36 256.499 294.771 256.499C295.045 256.499 295.317 256.445 295.57 256.34C295.823 256.235 296.052 256.08 296.246 255.886C296.439 255.692 296.592 255.462 296.696 255.208C296.8 254.954 296.853 254.683 296.851 254.409ZM258.761 258.509C258.348 258.507 257.943 258.628 257.599 258.856C257.254 259.084 256.984 259.409 256.824 259.79C256.664 260.171 256.621 260.591 256.7 260.997C256.778 261.403 256.976 261.776 257.267 262.07C257.557 262.363 257.929 262.564 258.334 262.647C258.739 262.729 259.159 262.69 259.542 262.534C259.925 262.377 260.252 262.111 260.484 261.768C260.715 261.426 260.839 261.022 260.841 260.609C260.843 260.336 260.79 260.065 260.687 259.812C260.584 259.559 260.431 259.329 260.239 259.135C260.047 258.941 259.818 258.787 259.567 258.681C259.315 258.575 259.045 258.52 258.771 258.519M253.251 252.339C252.836 252.335 252.43 252.455 252.083 252.683C251.736 252.911 251.465 253.237 251.304 253.62C251.144 254.003 251.101 254.424 251.181 254.832C251.261 255.239 251.46 255.613 251.754 255.907C252.047 256.2 252.421 256.4 252.829 256.48C253.236 256.56 253.658 256.517 254.04 256.356C254.423 256.195 254.749 255.924 254.978 255.578C255.206 255.231 255.325 254.824 255.321 254.409C255.321 253.857 255.102 253.328 254.712 252.938C254.322 252.548 253.793 252.329 253.241 252.329M336.741 234.409H349.631V251.609H354.161V234.409H365.921L367.011 231.409H337.841L336.741 234.409ZM232.231 231.409H227.701V251.609H248.361L249.471 248.609H232.231V231.409ZM274.341 231.409L285.261 251.409H290.111L279.191 231.459L274.341 231.409ZM257.841 251.409H262.691L273.601 231.459H268.751L257.841 251.409ZM322.971 246.409L303.971 231.489H299.421V251.409H303.951V236.409L322.951 251.409H327.471V231.459H322.951L322.971 246.409ZM414.511 239.919H400.631C400.3 239.949 399.967 239.914 399.649 239.815C399.332 239.717 399.037 239.556 398.782 239.344C398.527 239.131 398.316 238.87 398.161 238.576C398.007 238.282 397.912 237.96 397.881 237.629C397.876 237.556 397.876 237.482 397.881 237.409V236.849C397.887 236.522 397.957 236.198 398.087 235.898C398.218 235.598 398.407 235.327 398.643 235.1C398.879 234.873 399.158 234.695 399.463 234.576C399.768 234.458 400.094 234.401 400.421 234.409H419.321L420.421 231.409H399.261C395.451 231.409 393.511 233.979 393.461 236.529V237.849C393.461 240.439 395.461 243.119 399.371 243.119H413.251C413.582 243.089 413.916 243.124 414.233 243.223C414.551 243.321 414.845 243.482 415.101 243.694C415.356 243.907 415.567 244.168 415.722 244.462C415.876 244.756 415.971 245.078 416.001 245.409C416.006 245.472 416.006 245.536 416.001 245.599V246.159C415.995 246.486 415.924 246.808 415.793 247.108C415.662 247.408 415.473 247.679 415.237 247.905C415.001 248.132 414.723 248.31 414.418 248.429C414.114 248.548 413.788 248.606 413.461 248.599H394.561L393.461 251.599H414.621C418.431 251.599 420.371 249.029 420.421 246.479V245.149C420.421 242.569 418.421 239.889 414.511 239.889M101.511 239.889H87.5914C87.2604 239.919 86.9268 239.884 86.6095 239.785C86.2921 239.687 85.9974 239.526 85.742 239.314C85.4866 239.101 85.2756 238.84 85.1211 238.546C84.9666 238.252 84.8715 237.93 84.8414 237.599C84.8364 237.536 84.8364 237.472 84.8414 237.409V236.849C84.8466 236.523 84.9159 236.202 85.0454 235.903C85.1749 235.604 85.3619 235.334 85.596 235.107C85.83 234.88 86.1063 234.702 86.4092 234.582C86.7122 234.463 87.0357 234.404 87.3614 234.409H106.281L107.421 231.409H86.2214C82.4214 231.499 80.4714 234.029 80.4214 236.579V237.899C80.4214 240.489 82.4214 243.169 86.3314 243.169H100.211C100.542 243.139 100.876 243.174 101.193 243.273C101.511 243.371 101.805 243.532 102.061 243.744C102.316 243.957 102.527 244.218 102.682 244.512C102.836 244.806 102.931 245.128 102.961 245.459C102.966 245.522 102.966 245.586 102.961 245.649V246.209C102.955 246.536 102.884 246.858 102.753 247.158C102.622 247.458 102.433 247.729 102.197 247.955C101.961 248.182 101.683 248.36 101.378 248.479C101.074 248.598 100.748 248.656 100.421 248.649H81.5214L80.4214 251.649H101.581C105.391 251.649 107.331 249.079 107.381 246.529V245.149C107.381 242.569 105.381 239.889 101.471 239.889M376.581 251.409H381.111V231.459H376.581V251.409ZM117.251 234.409H130.131V251.609H134.661V234.409H146.421L147.521 231.409H118.341L117.251 234.409ZM179.251 234.409L180.351 231.409H157.421V251.609H179.281L180.381 248.609H161.981V242.939H174.851L175.941 239.999H161.941V234.409H179.251ZM198.501 248.629H215.741L214.631 251.629H193.971V231.459H198.501V248.629Z" fill="#243882"/>
</svg>
