<svg width="501" height="501" viewBox="0 0 501 501" fill="none" xmlns="http://www.w3.org/2000/svg">
<path d="M500.233 250.081C500.233 388.153 388.304 500.081 250.233 500.081C112.162 500.081 0.23291 388.153 0.23291 250.081C0.23291 112.01 112.162 0.0814209 250.233 0.0814209C388.304 0.0814209 500.233 112.01 500.233 250.081Z" fill="white"/>
<path d="M250.233 215.437L275.101 185.041C275.101 185.041 317.698 185.945 360.144 205.677C349.276 222.11 327.707 230.153 327.707 230.153C326.253 215.716 316.139 212.191 283.973 212.191L250.24 402.589L216.275 212.154C184.342 212.154 174.228 215.686 172.774 230.116C172.774 230.116 151.197 222.155 140.337 205.715C182.776 185.983 225.38 185.079 225.38 185.079L250.248 215.437H250.21H250.233ZM250.233 176.29C284.515 175.974 323.783 181.584 363.985 199.155C369.362 189.424 370.733 185.154 370.733 185.154C326.803 167.734 285.652 161.74 250.233 161.581C214.813 161.74 173.663 167.704 129.733 185.154C129.733 185.154 131.691 190.449 136.481 199.2C176.69 181.547 215.951 175.981 250.233 176.252V176.29Z" fill="#DB1735"/>
</svg>
