<svg width="501" height="501" viewBox="0 0 501 501" fill="none" xmlns="http://www.w3.org/2000/svg">
<path d="M500.581 250.081C500.581 388.153 388.652 500.081 250.581 500.081C112.51 500.081 0.581055 388.153 0.581055 250.081C0.581055 112.01 112.51 0.0814209 250.581 0.0814209C388.652 0.0814209 500.581 112.01 500.581 250.081Z" fill="#D9D9D9"/>
<path fill-rule="evenodd" clip-rule="evenodd" d="M97.1376 217.739V209.661H60.581V217.736H73.1112V252.853H84.4325V217.739H97.1376ZM238.044 252.855C237.742 249.986 237.558 247.772 237.558 246.275V231.737C237.558 225.698 233.105 221.929 227.199 221.929C222.921 221.987 219.191 223.903 217.141 227.251C215.878 223.903 212.144 222.107 208.648 222.107C204.434 222.107 200.88 223.483 198.886 227.251L198.651 222.766H188.293V252.855H199.012V234.732C199.012 233.778 198.59 228.63 203.532 228.63C206.842 228.63 207.63 231.562 207.63 234.433V252.853H218.286V234.732C218.286 233.778 217.863 228.63 222.802 228.63C226.116 228.63 226.896 231.562 226.896 234.433V252.853L238.044 252.855ZM185.831 231.619V222.466C181.193 222.403 177.636 223.903 176.254 228.509L176.014 222.764H165.296C165.535 225.218 165.535 228.509 165.535 230.481V252.853H176.258V239.695C176.258 234.732 177.703 231.678 183.607 231.56C184.326 231.56 185.049 231.56 185.833 231.619M256.517 221.929C246.638 221.929 240.195 227.372 240.195 237.72C240.195 248.369 246.7 253.693 256.517 253.693C266.333 253.693 272.838 248.367 272.838 237.72C272.838 227.374 266.393 221.929 256.517 221.929ZM256.517 228.271C261.033 228.271 261.878 232.875 261.878 237.601C261.878 243.108 260.914 247.413 256.517 247.413C252.119 247.413 251.155 243.108 251.155 237.601C251.155 232.814 252 228.21 256.517 228.21V228.271ZM130.158 252.855C129.858 249.986 129.735 247.949 129.735 246.275V231.737C129.735 225.698 125.219 221.929 119.319 221.929C117.513 221.929 115.762 222.229 114.259 222.886C112.873 223.544 111.549 224.497 110.404 225.936V209.659H99.6821V252.851H110.406V234.73C110.406 233.774 109.983 228.626 114.922 228.626C118.291 228.626 119.017 231.56 119.017 234.429V252.851H130.158V252.855ZM162.925 239.875C162.984 229.046 159.733 221.931 147.627 221.931C138.049 221.931 132.333 227.792 132.333 236.945C132.333 248.194 136.364 253.693 148.169 253.693C151.84 253.693 155.093 252.853 157.563 251.181C160.215 249.444 162.383 246.695 162.685 242.923H152.564C152.263 245.678 150.642 247.529 147.447 247.529C143.349 247.529 142.508 243.641 142.569 239.875H162.925ZM152.685 234.076H142.75C142.988 230.905 143.711 227.673 147.689 227.496C149.495 227.433 150.702 228.271 151.482 229.59C152.328 230.844 152.685 232.518 152.685 234.133V234.076ZM440.581 231.082V221.926C435.944 221.866 432.39 223.365 431.005 227.973L430.764 222.766H420.043C420.283 225.218 420.283 228.505 420.283 230.485V252.857H431.005V239.691C431.005 234.728 432.45 231.14 438.352 231.019C439.074 231.019 439.801 231.019 440.581 231.082ZM384.814 252.859C384.514 249.988 384.391 247.951 384.391 246.277V231.739C384.391 225.696 379.875 221.928 373.975 221.928C372.169 221.928 370.535 222.227 369.036 222.884C367.652 223.542 366.205 224.503 365.06 225.938V209.661H354.336V252.853H365.06V234.728C365.06 233.768 364.637 228.624 369.576 228.624C372.951 228.624 373.673 231.558 373.673 234.429V252.853H384.814V252.859ZM351.711 243.885C351.711 239.218 349.238 236.947 345.807 235.69C339.365 233.413 334.546 233.299 334.546 230.899C334.546 229.113 335.568 228.093 337.311 228.093C338.695 228.093 339.604 228.448 340.203 229.048C340.747 229.649 340.984 230.601 340.984 231.92H351.163C350.923 224.022 344.662 221.926 337.793 221.926C331.951 221.926 324.36 223.959 324.36 231.203C324.36 241.73 341.522 238.976 341.522 244.603C341.522 246.575 339.902 247.466 337.793 247.466C336.588 247.466 335.622 246.871 335.024 246.033C334.419 245.258 334.179 244.12 334.361 243.103H324.127C323.941 252.074 330.629 253.691 338.041 253.691C344.966 253.699 351.711 251.185 351.711 243.885ZM417.639 239.879C417.702 229.048 414.446 221.928 402.341 221.928C392.763 221.928 387.043 227.79 387.043 236.947C387.043 248.194 391.077 253.699 402.883 253.699C406.554 253.699 409.807 252.859 412.277 251.185C414.925 249.448 417.095 246.697 417.395 242.929H407.282C406.976 245.678 405.352 247.531 402.16 247.531C398.063 247.531 397.221 243.647 397.279 239.879H417.639ZM407.399 234.077H397.463C397.702 230.903 398.428 227.675 402.403 227.494C404.209 227.435 405.414 228.273 406.196 229.588C407.042 230.848 407.399 232.52 407.399 234.135V234.077ZM321.391 222.767H310.669V252.859H321.391V222.767ZM307.335 217.621L309.866 209.667H281.058V252.857H292.381V235.868H301.529L304.048 227.912H292.381V217.625H307.335V217.621ZM321.383 217.598L323.931 209.657H313.338L310.794 217.598H321.383Z" fill="#EF4135"/>
<path fill-rule="evenodd" clip-rule="evenodd" d="M158.95 265.511H162.882V289.996H158.95V265.511ZM423.65 290.416C415.438 290.416 409.294 285.892 409.294 277.941C409.294 269.892 416.19 264.999 423.908 264.999C426.667 264.999 429.704 265.9 431.643 267.147L429.629 269.529C427.888 268.576 426.008 267.943 423.956 267.926C421.006 267.903 418.104 268.781 416.142 270.919C414.541 272.663 413.649 274.918 413.649 278.083C413.649 281.519 414.716 283.403 416.574 285.229C418.457 287.077 421.336 287.585 424.165 287.585C426.421 287.585 428.654 286.753 430.399 285.836L432.315 288.127C430.319 289.456 426.921 290.416 423.65 290.416ZM382.308 265.511H386.244V289.996H382.308V265.511ZM293.411 268.439H284.225V289.996H280.389V268.439H271.276V265.511H293.84L293.411 268.439ZM88.5952 289.127C86.7156 290.053 84.3653 290.505 81.6459 290.505C78.1559 290.505 74.616 289.738 71.6718 288.299L73.3015 285.527C76.1649 286.944 78.8824 287.581 81.9035 287.581C83.8714 287.581 85.1763 287.241 86.3851 286.589C87.7938 285.823 88.5529 284.775 88.5529 283.424C88.5529 281.381 86.9732 280.102 83.1622 279.22L79.1495 278.294C75.1598 277.367 72.65 274.891 72.65 271.993C72.65 267.815 76.7818 264.86 82.6722 264.86C86.1084 264.86 89.779 265.715 92.1313 267.191L90.3575 269.748C87.9494 268.426 85.4376 267.788 82.8797 267.788C79.3763 267.788 76.9471 269.141 76.9471 271.434C76.9471 273.204 78.4269 274.257 81.8746 275.08L85.5818 275.962C87.6862 276.466 89.8213 277.348 91.0359 278.443C92.1947 279.493 92.9519 281.179 92.9519 282.82C92.9557 285.321 91.3433 287.759 88.5952 289.127ZM246.51 289.996L236.716 276.935C234.879 274.488 231.777 269.714 231.777 269.714C231.777 269.714 232.125 273.849 232.152 277.472L232.244 289.996H228.329V265.507H232.994L242.891 278.84C244.817 281.44 247.499 285.558 247.499 285.558C247.499 285.558 246.915 281.041 246.884 277.796L246.796 265.507H250.674V289.998L246.51 289.996ZM314.051 265.511H317.982V289.996H314.051V265.511ZM360.851 268.389H347.333V275.635H358.772V278.522H347.333V289.996H343.397V265.511H361.376L360.851 268.389ZM188.294 289.996V265.511H206.471L205.946 268.439H192.228V275.733H203.923V278.659H192.276V286.926H206.959V289.996H188.294ZM128.559 290.416C120.343 290.416 114.203 285.892 114.203 277.941C114.203 269.892 121.097 264.999 128.813 264.999C131.572 264.999 134.611 265.9 136.548 267.147L134.534 269.529C132.795 268.576 130.913 267.943 128.863 267.926C125.913 267.903 123.009 268.781 121.047 270.919C119.444 272.663 118.552 274.918 118.552 278.083C118.552 281.519 119.621 283.403 121.479 285.229C123.363 287.077 126.241 287.585 129.07 287.585C131.325 287.585 133.558 286.753 135.308 285.836L137.219 288.127C135.224 289.456 131.828 290.416 128.559 290.416Z" fill="black"/>
</svg>
