<svg width="501" height="501" viewBox="0 0 501 501" fill="none" xmlns="http://www.w3.org/2000/svg">
<path d="M500.34 250.081C500.34 388.153 388.411 500.081 250.34 500.081C112.269 500.081 0.339844 388.153 0.339844 250.081C0.339844 112.01 112.269 0.0814209 250.34 0.0814209C388.411 0.0814209 500.34 112.01 500.34 250.081Z" fill="white"/>
<path d="M365.753 238.238C367.451 238.238 368.85 237.355 369.038 236.214L370.716 217.247C370.716 215.372 368.519 213.833 365.758 213.833C363 213.833 360.805 215.372 360.805 217.247L362.481 236.214C362.666 237.354 364.064 238.238 365.758 238.238H365.753ZM355.502 244.162C356.354 242.693 356.29 241.041 355.391 240.308L339.802 229.372C338.181 228.433 335.75 229.563 334.371 231.955C332.987 234.344 333.232 237.013 334.849 237.952L352.111 245.989C353.19 246.389 354.662 245.619 355.507 244.151L355.502 244.162ZM376.013 244.152C376.863 245.62 378.327 246.39 379.408 245.99L396.67 237.953C398.297 237.014 398.528 234.345 397.157 231.956C395.77 229.567 393.336 228.434 391.719 229.373L376.128 240.309C375.237 241.041 375.171 242.694 376.018 244.163L376.013 244.152ZM365.753 261.93C367.451 261.93 368.85 262.806 369.038 263.948L370.716 282.912C370.716 284.793 368.519 286.329 365.758 286.329C363 286.329 360.805 284.793 360.805 282.912L362.481 263.948C362.666 262.806 364.064 261.93 365.758 261.93H365.753ZM376.013 256.005C376.863 254.532 378.327 253.769 379.408 254.174L396.67 262.206C398.297 263.146 398.528 265.817 397.157 268.208C395.77 270.59 393.336 271.725 391.719 270.788L376.128 259.862C375.237 259.123 375.171 257.47 376.018 256.002H376.011M355.502 256.003C356.354 257.47 356.29 259.123 355.391 259.863L339.802 270.789C338.181 271.726 335.75 270.591 334.371 268.209C332.987 265.818 333.232 263.147 334.849 262.207L352.111 254.175C353.19 253.77 354.662 254.533 355.507 256.006H355.502" fill="#FDBB30"/>
<path d="M267.416 259.827C267.416 260.409 267.365 261.01 267.205 261.537C266.544 263.727 264.277 265.578 261.44 265.578C259.075 265.578 257.197 264.235 257.197 261.397C257.197 257.055 261.977 255.856 267.418 255.886L267.416 259.827ZM275.951 252.259C275.951 245.099 272.891 238.798 262.552 238.798C257.245 238.798 253.033 240.288 250.734 241.617L252.418 247.374C254.519 246.047 257.868 244.949 261.037 244.949C266.281 244.935 267.14 247.919 267.14 249.829V250.281C255.709 250.264 248.483 254.222 248.483 262.285C248.483 267.212 252.163 271.827 258.561 271.827C262.492 271.827 265.784 270.258 267.755 267.742H267.949C267.949 267.742 269.253 273.204 276.451 271.114C276.075 268.843 275.952 266.418 275.952 263.502L275.951 252.259ZM97.8402 229.046C97.8402 229.046 105.31 259.655 106.503 264.623C107.895 270.421 110.402 272.556 117.629 271.114L122.293 252.138C123.476 247.422 124.268 244.06 125.03 239.268H125.162C125.697 244.111 126.456 247.437 127.43 252.154C127.43 252.154 129.327 260.769 130.301 265.293C131.275 269.815 133.988 272.667 141.068 271.114L152.182 229.045H143.211L139.415 247.234C138.395 252.527 137.469 256.667 136.755 261.508H136.628C135.98 256.71 135.154 252.738 134.117 247.581L130.168 229.045H120.82L116.593 247.113C115.397 252.605 114.275 257.038 113.565 261.718H113.435C112.706 257.311 111.735 251.738 110.684 246.424C110.684 246.424 108.174 233.5 107.292 229.045L97.8402 229.046ZM169.151 259.827C169.151 260.409 169.099 261.01 168.938 261.537C168.278 263.727 166.009 265.578 163.173 265.578C160.807 265.578 158.932 264.235 158.932 261.397C158.932 257.055 163.71 255.856 169.152 255.886L169.151 259.827ZM177.684 252.259C177.684 245.099 174.625 238.798 164.288 238.798C158.98 238.798 154.764 240.288 152.467 241.617L154.148 247.374C156.249 246.047 159.598 244.949 162.768 244.949C168.016 244.935 168.875 247.919 168.875 249.829V250.281C157.439 250.264 150.216 254.222 150.216 262.285C150.216 267.212 153.894 271.827 160.287 271.827C164.224 271.827 167.514 270.258 169.487 267.742H169.679C169.679 267.742 170.987 273.204 178.183 271.114C177.807 268.843 177.684 266.418 177.684 263.502V252.259ZM191.926 229.046H183.382V271.116H191.926V229.046ZM303.703 229.046V260.08C303.703 264.361 304.51 267.357 306.23 269.19C307.738 270.793 310.216 271.83 313.187 271.83C315.714 271.83 318.198 271.348 319.371 270.913L319.26 264.238C318.388 264.451 317.386 264.624 316.015 264.624C313.104 264.624 312.13 262.759 312.13 258.918V247.043H319.571V238.993H312.13V229.046H303.703ZM281.648 239.512V271.116H290.462V254.934C290.462 254.059 290.515 253.297 290.653 252.6C291.306 249.209 293.898 247.043 297.621 247.043C298.642 247.043 299.372 247.154 300.164 247.267V238.993C299.499 238.861 299.049 238.799 298.222 238.799C294.933 238.799 291.191 240.921 289.62 245.474H289.382V239.512H281.648ZM197.909 239.512V271.116H206.496V252.583C206.496 251.713 206.598 250.794 206.899 249.996C207.611 248.13 209.348 245.945 212.119 245.945C215.586 245.945 217.205 248.875 217.205 253.102V271.113H225.785V252.355C225.785 251.525 225.899 250.525 226.144 249.793C226.848 247.67 228.719 245.943 231.296 245.943C234.808 245.943 236.495 248.821 236.495 253.797V271.112H245.081V252.497C245.081 242.682 240.097 238.796 234.469 238.796C231.979 238.796 230.012 239.419 228.232 240.51C226.738 241.43 225.398 242.734 224.229 244.449H224.102C222.745 241.043 219.553 238.798 215.392 238.798C210.047 238.798 207.645 241.507 206.188 243.805H206.06V239.511H197.909" fill="#1A75CF"/>
<path d="M401 269.579H401.129C401.301 269.579 401.411 269.508 401.411 269.402C401.411 269.282 401.308 269.217 401.148 269.217C401.093 269.217 401.037 269.228 401 269.228V269.582L401 269.579ZM400.98 270.431H400.523V268.944C400.627 268.924 400.868 268.887 401.178 268.887C401.514 268.887 401.664 268.935 401.775 269.009C401.868 269.074 401.935 269.185 401.935 269.335C401.935 269.488 401.795 269.617 401.588 269.674V269.692C401.757 269.737 401.849 269.86 401.897 270.075C401.943 270.289 401.972 270.377 402 270.432H401.483C401.438 270.377 401.411 270.245 401.381 270.114C401.352 269.964 401.281 269.888 401.128 269.888H400.979L400.98 270.431ZM401.169 268.459C400.513 268.459 400.019 268.993 400.019 269.674C400.019 270.337 400.514 270.879 401.186 270.879C401.861 270.89 402.357 270.338 402.357 269.663C402.357 268.992 401.861 268.459 401.179 268.459H401.169ZM401.198 268.056C402.112 268.056 402.84 268.775 402.84 269.663C402.84 270.561 402.112 271.282 401.185 271.282C400.259 271.282 399.522 270.56 399.522 269.663C399.522 268.775 400.26 268.056 401.185 268.056H401.196" fill="#FDBB30"/>
</svg>
