<svg width="501" height="501" viewBox="0 0 501 501" fill="none" xmlns="http://www.w3.org/2000/svg">
<path d="M500.989 250.409C500.989 388.48 389.06 500.409 250.989 500.409C112.918 500.409 0.989258 388.48 0.989258 250.409C0.989258 112.338 112.918 0.408936 250.989 0.408936C389.06 0.408936 500.989 112.338 500.989 250.409Z" fill="white"/>
<path fill-rule="evenodd" clip-rule="evenodd" d="M81.4893 80.9089H420.489V419.909H81.4893V80.9089Z" fill="white"/>
<path fill-rule="evenodd" clip-rule="evenodd" d="M337.129 235.175C328.541 235.175 322.101 241.207 322.101 250.509C322.101 259.714 328.339 266.053 337.129 266.053C346.026 266.053 351.648 259.918 351.648 250.613C351.648 241.413 346.026 235.175 337.129 235.175ZM342.037 258.077C342.037 259.379 341.52 260.627 340.599 261.548C339.679 262.468 338.43 262.985 337.129 262.985C334.473 262.985 332.324 260.838 332.324 258.077V242.537C332.323 241.906 332.447 241.281 332.688 240.697C332.929 240.114 333.283 239.584 333.729 239.137C334.176 238.691 334.706 238.337 335.289 238.095C335.872 237.854 336.497 237.73 337.129 237.73C339.788 237.73 342.037 239.878 342.037 242.537V258.077ZM305.435 235.685C303.288 235.685 300.321 236.095 298.789 238.242V235.481C294.904 236.197 294.288 236.401 285.293 236.401V239.47C288.258 239.47 290.097 239.674 290.097 242.947V271.781C289.994 275.46 290.609 278.119 285.189 278.119V281.392H304.412V278.119H303.799C300.117 278.119 298.787 276.177 298.787 274.028V263.293C300.525 265.646 302.878 266.158 305.022 266.158C313.307 266.054 317.804 260.532 317.804 250.615C317.804 241.615 314.125 235.685 305.435 235.685ZM307.582 258.895C307.582 261.144 305.845 262.985 303.594 262.985C301.343 262.985 299.503 261.144 299.503 258.895V243.355C299.503 241.105 301.344 239.366 303.594 239.366C305.843 239.366 307.582 241.105 307.582 243.355V258.895Z" fill="black"/>
<path fill-rule="evenodd" clip-rule="evenodd" d="M240.201 247.546C238.566 249.181 237.032 250.819 235.499 252.351V246.626L239.589 242.537C239.895 242.945 240.201 243.151 240.201 244.377V247.546ZM263.821 225.564C260.717 228.176 257.683 230.87 254.721 233.641V231.186C253.801 231.902 250.63 232.618 249.405 232.72C253.345 228.778 257.438 224.992 261.675 221.371V225.46L263.821 225.564Z" fill="#EBB53B"/>
<path fill-rule="evenodd" clip-rule="evenodd" d="M275.066 216.054C294.288 200.513 315.148 186.711 336.517 177.303C351.033 171.373 359.417 168.92 365.35 175.462C371.279 181.904 358.5 202.866 355.839 205.522C352.57 204.5 351.342 206.135 351.342 206.135C352.568 205.726 354.716 206.647 353.284 209.918C352.672 211.146 350.22 212.884 349.197 210.02C347.971 213.088 345.006 218.302 341.427 223.107C329.36 239.568 312.593 255.416 288.158 277.194C248.179 312.776 227.525 320.753 213.619 326.578C203.598 330.359 178.139 335.884 194.806 305.11C198.281 297.134 207.586 283.84 220.877 268.504H216.788V267.076C206.973 278.529 197.361 291.104 191.023 303.576C185.91 312.676 175.993 341.406 212.801 330.263C224.866 326.482 257.278 310.838 292.961 278.831C330.69 245.092 349.809 221.167 356.353 213.295C357.683 211.76 359.012 209.306 357.992 207.467C364.432 197.855 373.326 177.817 366.886 171.681C359.731 164.831 345.62 169.329 340.199 171.375C331.712 174.748 299.201 190.392 267.913 216.056L275.066 216.054Z" fill="#EBB53B"/>
<path fill-rule="evenodd" clip-rule="evenodd" d="M210.04 198.571C209.732 199.899 208.914 201.842 204.007 204.808C191.533 212.068 170.88 212.783 154.725 212.374C129.88 211.76 119.553 206.035 116.997 203.786C115.566 202.456 115.77 201.229 117.405 200.003C122.006 196.526 138.264 195.3 148.999 195.3C159.734 195.3 172.004 197.755 171.901 200.617C171.901 203.582 165.97 203.99 164.641 204.094C163.721 204.196 162.699 203.788 162.699 203.276C162.905 202.458 164.335 202.458 165.05 202.252C165.664 202.15 165.97 201.638 165.97 200.923C165.97 200.003 163.311 199.083 161.165 198.775C154.929 197.14 146.748 197.65 142.455 197.957C134.787 198.469 129.468 200.819 129.468 202.662C129.468 204.398 133.967 209.614 156.359 210.328C185.193 211.248 198.689 206.341 205.233 201.638C209.732 198.161 206.359 195.812 202.064 193.663C190.307 188.142 168.017 187.63 156.872 187.528C144.298 187.324 123.336 188.858 114.44 190.494C112.499 191.005 112.907 192.641 115.668 192.027C118.939 191.515 141.843 189.88 152.987 190.494C164.132 191.005 177.731 190.698 190.307 196.936C192.453 198.263 193.168 200.617 189.897 202.456C186.728 204.194 178.548 208.181 159.428 208.283C141.841 208.489 139.591 205.522 138.06 204.296C137.446 203.784 137.344 202.25 139.695 201.023C141.333 200.28 143.111 199.896 144.91 199.897C146.341 199.897 146.851 201.433 145.318 201.535C143.784 201.941 142.149 202.147 142.149 203.272C142.149 204.192 143.172 204.296 144.296 204.704C145.318 205.114 150.736 206.339 157.588 206.339C167.608 206.339 175.277 204.91 179.776 202.249C181.616 201.329 182.126 198.364 178.958 197.342C174.05 195.706 165.256 192.841 146.955 192.841C134.38 192.841 110.967 194.785 104.217 196.624C101.866 197.34 96.447 198.874 96.447 201.737C96.447 204.598 100.128 205.928 101.867 206.542C111.786 210.019 139.799 214.21 150.844 214.312C181.619 214.618 198.898 212.062 209.531 202.963C210.349 201.939 211.781 200.407 211.985 198.872C212.187 196.834 210.449 196.73 210.04 198.571ZM180.49 219.428C188.158 219.428 190.203 219.225 193.372 218.406V239.878C196.134 235.275 199.711 235.275 203.802 235.275C207.277 235.275 211.777 238.446 211.777 245.5V254.501C211.777 260.224 212.085 262.474 215.866 262.474H215.968V265.133H199.917V262.474C202.778 262.474 202.984 259.204 202.984 256.545L203.086 254.501V245.81C203.086 242.129 201.858 239.982 199.507 239.982C194.7 239.982 193.372 243.867 193.372 248.979V255.421C193.577 259.718 193.372 262.477 196.95 262.477V265.136H180.182V262.477C183.761 262.477 184.681 260.434 184.681 256.445V225.974C184.681 223.007 184.783 222.293 182.636 222.701C179.874 223.518 179.057 224.95 177.829 228.733L165.866 266.564H163.207L154.111 241.003L144.806 266.564H142.147L125.483 226.178C124.46 222.905 121.904 222.599 118.631 222.395V219.428H139.695V222.395H138.876C136.628 222.395 136.73 223.109 136.73 224.54C136.73 225.358 136.832 226.074 137.446 228.221L146.443 252.759L152.578 235.583L150.022 229.243C148.489 224.334 148.079 222.393 143.376 222.393V219.426H162.393V222.393L161.371 222.495C159.838 222.699 159.634 223.415 159.634 224.846C159.634 225.562 159.736 225.972 160.349 227.811L167.507 251.021L175.483 225.768C175.995 223.314 173.54 222.395 172.212 222.291V219.428H180.49ZM232.839 226.791C232.839 229.449 230.59 231.7 227.829 231.7C225.172 231.7 223.024 229.451 223.024 226.791C223.024 224.03 225.274 221.883 227.829 221.883C230.59 221.883 232.839 224.03 232.839 226.791ZM219.447 265.133H236.316V262.271C232.635 262.271 232.328 260.43 232.328 254.602V235.073C229.568 235.993 226.091 236.095 218.729 236.095V239.06H219.955C223.228 239.06 223.738 242.539 223.738 242.639V254.602C223.738 260.328 223.226 262.271 219.445 262.271L219.447 265.133ZM252.574 238.036C255.335 234.663 259.936 235.685 260.344 235.685C263.309 235.685 264.841 238.856 264.841 241.003C264.841 243.969 262.899 246.216 260.242 246.216C257.686 246.216 255.745 244.581 255.745 242.023C255.745 241.207 255.845 240.696 256.149 240.286C256.459 239.98 256.459 239.878 256.459 239.774C256.459 239.672 256.563 238.958 256.355 238.958C255.947 238.958 255.231 238.548 254.311 239.774C252.676 241.717 252.574 243.353 252.574 245.908V258.179C252.776 259.508 253.086 261.04 254.415 261.862C255.129 262.27 255.233 262.474 256.765 262.474V265.133H239.895V262.271C243.576 262.271 243.884 260.53 243.884 254.804V242.537C243.884 238.856 242.147 239.058 238.976 239.058V236.197C246.133 236.197 249.097 236.093 252.574 235.379V238.036ZM400.625 255.215C400.625 260.938 401.851 261.862 405.533 262.37V264.925H386.923V262.27C390.605 261.862 391.831 260.937 391.831 255.214V226.484C391.831 223.62 390.094 222.291 387.946 222.189L386.923 222.291V219.326C394.184 219.326 396.942 219.428 400.625 218.508V255.215ZM370.767 235.175C362.18 235.175 355.739 241.207 355.739 250.509C355.739 259.714 361.874 266.053 370.667 266.053C379.561 266.053 385.285 259.918 385.285 250.613C385.287 241.413 379.561 235.175 370.767 235.175ZM375.574 258.077C375.574 260.838 373.426 262.985 370.769 262.985C368.112 262.985 365.864 260.838 365.864 258.077V242.537C365.864 239.878 368.11 237.73 370.769 237.73C373.428 237.73 375.574 239.878 375.574 242.537V258.077ZM278.951 255.215C278.951 260.938 280.18 261.862 283.859 262.37V264.925H265.252V262.27C268.932 261.862 270.261 260.937 270.261 255.214V226.484C270.161 223.62 268.42 222.291 266.276 222.189L265.252 222.291V219.326C272.614 219.326 275.272 219.428 278.951 218.508V255.215Z" fill="black"/>
</svg>
